<?xml version="1.0" standalone="no"?><!DOCTYPE svg PUBLIC "-//W3C//DTD SVG 1.1//EN" "http://www.w3.org/Graphics/SVG/1.1/DTD/svg11.dtd"><svg t="1537694768942" class="icon" style="" viewBox="0 0 1024 1024" version="1.1" xmlns="http://www.w3.org/2000/svg" p-id="1504" xmlns:xlink="http://www.w3.org/1999/xlink" width="200" height="200"><defs><style type="text/css"></style></defs><path d="M665.6 128a21.333333 21.333333 0 1 1 0-42.666667h123.648A149.482667 149.482667 0 0 1 938.666667 234.816v133.504a21.333333 21.333333 0 1 1-42.666667 0v-133.504A106.816 106.816 0 0 0 789.248 128h-123.669333zM896 675.968a21.333333 21.333333 0 1 1 42.666667 0v113.258667A149.397333 149.397333 0 0 1 789.333333 938.666667H234.666667c-82.389333 0-149.333333-66.986667-149.333334-149.205334v-122.752a21.333333 21.333333 0 0 1 42.666667 0v122.752A106.773333 106.773333 0 0 0 234.666667 896h554.666666c58.88 0 106.666667-47.808 106.666667-106.773333v-113.28zM128 363.050667a21.333333 21.333333 0 1 1-42.666667 0v-128.213334C85.333333 152.298667 152.170667 85.333333 234.624 85.333333h128.725333a21.333333 21.333333 0 0 1 0 42.666667h-128.725333A106.730667 106.730667 0 0 0 128 234.858667v128.192zM106.666667 533.333333a21.333333 21.333333 0 0 1 0-42.666666h810.666666a21.333333 21.333333 0 0 1 0 42.666666H106.666667z" p-id="1505"></path></svg>