<?xml version="1.0" standalone="no"?><!DOCTYPE svg PUBLIC "-//W3C//DTD SVG 1.1//EN" "http://www.w3.org/Graphics/SVG/1.1/DTD/svg11.dtd"><svg t="1537694746352" class="icon" style="" viewBox="0 0 1024 1024" version="1.1" xmlns="http://www.w3.org/2000/svg" p-id="1387" xmlns:xlink="http://www.w3.org/1999/xlink" width="200" height="200"><defs><style type="text/css"></style></defs><path d="M840.691358 63.209877h-50.567901V25.283951a25.283951 25.283951 0 0 0-50.567901 0v37.925926H284.444444V25.283951a25.283951 25.283951 0 0 0-50.567901 0v37.925926H183.308642a176.987654 176.987654 0 0 0-176.987654 176.987654v606.814815a176.987654 176.987654 0 0 0 176.987654 176.987654h657.382716a176.987654 176.987654 0 0 0 176.987654-176.987654v-606.814815a176.987654 176.987654 0 0 0-176.987654-176.987654z m126.419753 783.802469a126.419753 126.419753 0 0 1-126.419753 126.419753H183.308642a126.419753 126.419753 0 0 1-126.419753-126.419753v-455.111111h910.222222z m0-505.679013H56.888889v-101.135802a126.419753 126.419753 0 0 1 126.419753-126.419753h50.567901V176.987654a25.283951 25.283951 0 0 0 50.567901 0V113.777778h455.111112V176.987654a25.283951 25.283951 0 0 0 50.567901 0V113.777778h50.567901a126.419753 126.419753 0 0 1 126.419753 126.419753z" p-id="1388"></path><path d="M257.643457 613.135802h510.482963a23.766914 23.766914 0 0 0 0-47.280987H257.643457a23.766914 23.766914 0 0 0 0 47.533827zM257.643457 815.407407h510.482963a23.766914 23.766914 0 1 0 0-47.280987H257.643457a23.766914 23.766914 0 0 0 0 47.533827z" p-id="1389"></path></svg>