<?xml version="1.0" standalone="no"?><!DOCTYPE svg PUBLIC "-//W3C//DTD SVG 1.1//EN" "http://www.w3.org/Graphics/SVG/1.1/DTD/svg11.dtd"><svg t="1561801562751" class="icon" viewBox="0 0 1024 1024" version="1.1" xmlns="http://www.w3.org/2000/svg" p-id="3309" width="64" height="64" xmlns:xlink="http://www.w3.org/1999/xlink"><defs><style type="text/css"></style></defs><path d="M784 160H672v-32c0-17.6-14.4-32-32-32s-32 14.4-32 32v32H416v-32c0-17.6-14.4-32-32-32s-32 14.4-32 32v32H240c-88 0-160 72-160 160v448c0 88 72 160 160 160h544c88 0 160-72 160-160V320c0-88-72-160-160-160z m-544 64h112v32c0 17.6 14.4 32 32 32s32-14.4 32-32v-32h192v32c0 17.6 14.4 32 32 32s32-14.4 32-32v-32h112c52.8 0 96 43.2 96 96v32H144v-32c0-52.8 43.2-96 96-96z m544 640H240c-52.8 0-96-43.2-96-96V416h736v352c0 52.8-43.2 96-96 96z" p-id="3310"></path><path d="M288 672h64c17.6 0 32 14.4 32 32s-14.4 32-32 32h-64c-17.6 0-32-14.4-32-32s14.4-32 32-32z m192 0h64c17.6 0 32 14.4 32 32s-14.4 32-32 32h-64c-17.6 0-32-14.4-32-32s14.4-32 32-32z m192 0h64c17.6 0 32 14.4 32 32s-14.4 32-32 32h-64c-17.6 0-32-14.4-32-32s14.4-32 32-32zM288 512h64c17.6 0 32 14.4 32 32s-14.4 32-32 32h-64c-17.6 0-32-14.4-32-32s14.4-32 32-32z m192 0h64c17.6 0 32 14.4 32 32s-14.4 32-32 32h-64c-17.6 0-32-14.4-32-32s14.4-32 32-32z m192 0h64c17.6 0 32 14.4 32 32s-14.4 32-32 32h-64c-17.6 0-32-14.4-32-32s14.4-32 32-32z" p-id="3311"></path></svg>