<?xml version="1.0" encoding="UTF-8"?>
<svg width="16px" height="16px" viewBox="0 0 16 16" version="1.1" xmlns="http://www.w3.org/2000/svg" xmlns:xlink="http://www.w3.org/1999/xlink">
    <!-- Generator: Sketch 54.1 (76490) - https://sketchapp.com -->
    <title>日历</title>
    <desc>Created with Sketch.</desc>
    <g id="页面1" stroke="none" stroke-width="1" fill="none" fill-rule="evenodd">
        <g id="机票查询" transform="translate(-59.000000, -493.000000)" fill="#2596D9" fill-rule="nonzero">
            <g id="日历" transform="translate(59.000000, 493.000000)">
                <path d="M7,9 C7,9.55228475 7.44771525,10 8,10 C8.55228475,10 9,9.55228475 9,9 C9,8.44771525 8.55228475,8 8,8 C7.44771525,8 7,8.44771525 7,9 Z" id="路径"></path>
                <path d="M11,9 C11,9.55228475 11.4477153,10 12,10 C12.5522847,10 13,9.55228475 13,9 C13,8.44771525 12.5522847,8 12,8 C11.4477153,8 11,8.44771525 11,9 Z" id="路径"></path>
                <path d="M4.72037408,4.99886647 C5.11690047,4.99886647 5.46212425,4.657674 5.46212425,4.23486738 L5.46212425,0.763999093 C5.46212425,0.342326003 5.11690047,0 4.72037408,0 C4.32252246,-6.29235448e-17 4,0.342054045 4,0.763999093 L4,4.23600091 C4,4.65880753 4.32277889,5 4.72037408,5 L4.72037408,4.99886647 Z M11.257181,4.99886647 C11.6547762,4.99886647 12,4.657674 12,4.23486738 L12,0.763999093 C12,0.342326003 11.6547762,0 11.257181,0 C10.8597469,0.000625375034 10.5378753,0.34249632 10.5378758,0.763999093 L10.5378758,4.23600091 C10.5378758,4.65880753 10.8606546,5 11.2582498,5 L11.257181,4.99886647 Z" id="形状"></path>
                <path d="M3,9 C3,9.55228475 3.44771525,10 4,10 C4.55228475,10 5,9.55228475 5,9 C5,8.44771525 4.55228475,8 4,8 C3.44771525,8 3,8.44771525 3,9 Z" id="路径"></path>
                <path d="M3,13 C3,13.5522847 3.44771525,14 4,14 C4.55228475,14 5,13.5522847 5,13 C5,12.4477153 4.55228475,12 4,12 C3.44771525,12 3,12.4477153 3,13 Z" id="路径"></path>
                <path d="M7,13 C7,13.5522847 7.44771525,14 8,14 C8.55228475,14 9,13.5522847 9,13 C9,12.4477153 8.55228475,12 8,12 C7.44771525,12 7,12.4477153 7,13 Z" id="路径"></path>
                <path d="M14.0896801,2.015057 L13.2009102,2.015057 C13.17414,2.0110418 13.1495114,2 13.1216705,2 C12.8138517,2 12.5643154,2.23392135 12.5643154,2.52247795 C12.5643154,2.81103456 12.8138517,3.0449559 13.1216705,3.0449559 C13.1495114,3.0449559 13.1719984,3.0349179 13.1976978,3.0309027 L14.1410788,3.0309027 C14.5554812,3.0309027 14.9056351,3.35914534 14.9056351,3.74861977 L14.9056351,6.11357281 L1.08151519,6.11357281 L1.08151519,3.74861977 C1.08151519,3.35914534 1.43059831,3.0309027 1.84500067,3.0309027 L2.69093829,3.0309027 C2.71663767,3.0349179 2.73912462,3.0449559 2.76589479,3.0449559 C3.07371352,3.0449559 3.3232499,2.81103456 3.3232499,2.52247795 C3.3232499,2.23392135 3.07371352,2 2.76589479,2 C2.73912462,2 2.71556686,2.010038 2.68879668,2.015057 L1.90817829,2.015057 C0.854605251,2.01946865 0.00234386589,2.82019211 0,3.80784398 L0,14.207213 C0,15.1929447 0.827733904,16 1.87819569,16 L14.0907509,16 C15.1447423,15.9961386 15.9976527,15.1952547 16,14.207213 L16,3.80884778 C15.9976527,2.82080606 15.1447423,2.01992221 14.0907509,2.0160608 L14.0896801,2.015057 Z M15,14.2691914 C14.9947364,14.67073 14.6511421,14.9950319 14.2257165,15 L1.77319907,15 C1.34819697,14.9944818 1.00525077,14.6703376 1,14.2691914 L1,7 L15,7 L15,14.2691914 Z" id="形状"></path>
                <path d="M6.60939557,3 C6.6269574,3 6.64217766,2.99232246 6.65973949,2.99040307 L9.34084589,2.99040307 C9.35723694,2.99232246 9.37245719,3 9.39001902,3 C9.40758086,3 9.42280111,2.99232246 9.44036294,2.99040307 L9.50475633,2.99040307 L9.50475633,2.98080614 C9.78574565,2.93474088 10,2.7428023 10,2.5 C10,2.2571977 9.78457486,2.06429942 9.50475633,2.01919386 L9.50475633,2.01439539 L9.47548661,2.01439539 C9.44621689,2.01055662 9.42045953,2 9.39001902,2 C9.35957851,2 9.33382116,2.00959693 9.30455144,2.01439539 L6.69486315,2.01439539 C6.66559343,2.01055662 6.63983608,2 6.60939557,2 C6.27283569,2.00000001 6,2.22364279 6,2.49952015 C6,2.77539751 6.27283569,2.9990403 6.60939557,2.99904031 L6.60939557,3 Z" id="路径"></path>
            </g>
        </g>
    </g>
</svg>