<?xml version="1.0" encoding="utf-8"?>
<!-- Generator: Adobe Illustrator 23.0.3, SVG Export Plug-In . SVG Version: 6.00 Build 0)  -->
<svg version="1.1" id="图层_1" xmlns="http://www.w3.org/2000/svg" xmlns:xlink="http://www.w3.org/1999/xlink" x="0px" y="0px"
	 viewBox="0 0 45 45" style="enable-background:new 0 0 45 45;" xml:space="preserve">
<style type="text/css">
	.st0{fill:none;}
	.st1{fill-rule:evenodd;clip-rule:evenodd;fill:#2596D9;}
	.st2{fill:#FFFFFF;}
</style>
<title>编组</title>
<desc>Created with Sketch.</desc>
<g>
	<title>background</title>
	<rect id="canvas_background" x="-1" y="-1" class="st0" width="47" height="47"/>
</g>
<g>
	<title>Layer 1</title>
	<g id="页面1">
		<g id="编组">
			<g id="形状结合">
				<path class="st1" d="M24.5,14.5h10c5.6,0,7,1.6,7,7v22h-17h-21v-35c0-4.8,1.5-7,7-7h7c5.8,0,7,1.7,7,7V14.5z"/>
			</g>
			<g id="矩形复制-3">
				<path class="st2" d="M20,38h-9c-1.1,0-2-0.9-2-2s0.9-2,2-2h9c1.1,0,2,0.9,2,2S21.1,38,20,38z"/>
			</g>
			<g id="矩形复制-12">
				<path class="st2" d="M19,38h-9c-1.1,0-2-0.9-2-2s0.9-2,2-2h9c1.1,0,2,0.9,2,2S20.1,38,19,38z"/>
			</g>
			<g id="矩形复制-13">
				<path class="st2" d="M36,38h-9c-1.1,0-2-0.9-2-2s0.9-2,2-2h9c1.1,0,2,0.9,2,2S37.1,38,36,38z"/>
			</g>
			<g id="矩形复制-6">
				<path class="st2" d="M19,22h-9c-1.1,0-2-0.9-2-2s0.9-2,2-2h9c1.1,0,2,0.9,2,2S20.1,22,19,22z"/>
			</g>
			<g id="矩形复制-15">
				<path class="st2" d="M19,14h-9c-1.1,0-2-0.9-2-2s0.9-2,2-2h9c1.1,0,2,0.9,2,2S20.1,14,19,14z"/>
			</g>
			<g id="矩形复制-7">
				<path class="st2" d="M36,22h-9c-1.1,0-2-0.9-2-2s0.9-2,2-2h9c1.1,0,2,0.9,2,2S37.1,22,36,22z"/>
			</g>
			<g id="矩形复制-8">
				<path class="st2" d="M19,30h-9c-1.1,0-2-0.9-2-2s0.9-2,2-2h9c1.1,0,2,0.9,2,2S20.1,30,19,30z"/>
			</g>
			<g id="矩形复制-14">
				<path class="st2" d="M36,30h-9c-1.1,0-2-0.9-2-2s0.9-2,2-2h9c1.1,0,2,0.9,2,2S37.1,30,36,30z"/>
			</g>
		</g>
	</g>
</g>
</svg>
