<?xml version="1.0" encoding="UTF-8"?>
<svg width="36px" height="45px" viewBox="0 0 36 45" version="1.1" xmlns="http://www.w3.org/2000/svg" xmlns:xlink="http://www.w3.org/1999/xlink">
    <!-- Generator: Sketch 54.1 (76490) - https://sketchapp.com -->
    <title>火车票</title>
    <desc>Created with Sketch.</desc>
    <g id="页面1" stroke="none" stroke-width="1" fill="none" fill-rule="evenodd">
        <g id="首页" transform="translate(-303.000000, -321.000000)">
            <rect id="矩形复制" x="0" y="0" width="375" height="375"></rect>
            <g id="火车票" transform="translate(303.000000, 321.000000)" fill="#2596D9" fill-rule="nonzero">
                <path d="M9.89399239,40.432713 L26.1050157,40.432713 C26.6021169,40.432713 27.016368,40.8472658 27.016368,41.3447291 L27.016368,42.2567452 C27.016368,42.7542085 26.6021169,43.1687612 26.1050157,43.1687612 L9.89399239,43.1687612 C9.39689117,43.1687612 8.98264015,42.7542085 8.98264015,42.2567452 L8.98264015,41.3447291 C8.98264015,40.8472658 9.39689117,40.432713 9.89399239,40.432713 Z M27.9001035,22.99386 C26.4087998,22.99386 25.1936635,24.2375183 25.1936635,25.7575451 C25.1936635,27.2775719 26.4087998,28.5212302 27.9001035,28.5212302 C29.3914071,28.5212302 30.6065435,27.2775719 30.6065435,25.7575451 C30.6065435,24.2375183 29.3914071,22.99386 27.9001035,22.99386 Z M30.6065435,11.0547404 C30.6065435,10.0321769 29.8056582,9.20307138 28.8114557,9.20307138 L7.18755239,9.20307138 C6.19334993,9.20307138 5.39246462,10.0321769 5.39246462,11.0547404 L5.39246462,18.4061428 C5.39246462,19.4287062 6.19334993,20.2578118 7.18755239,20.2578118 L28.8114557,20.2578118 C29.8056582,20.2578118 30.6065435,19.4287062 30.6065435,18.4061428 L30.6065435,11.0547404 L30.6065435,11.0547404 Z M8.0712879,28.5212302 C9.56259158,28.5212302 10.7777279,27.2775719 10.7777279,25.7575451 C10.7777279,24.2375183 9.56259158,22.99386 8.0712879,22.99386 C6.57998422,22.99386 5.36484789,24.2375183 5.36484789,25.7575451 C5.39246462,27.2775719 6.57998422,28.5212302 8.0712879,28.5212302 Z M35.1633047,44.7716986 C34.3348027,45.2415251 33.3129835,44.9651566 32.843499,44.136051 L29.1428565,37.6137542 C28.8390725,37.6690279 28.5076716,37.6966648 28.2038876,37.6966648 L7.82273729,37.6966648 C7.49133647,37.6966648 7.18755239,37.6690279 6.8837683,37.6137542 L3.18312584,44.136051 C2.71364135,44.9651566 1.66420543,45.2415251 0.863320121,44.7716986 C0.0348180779,44.3018721 -0.24134927,43.2240349 0.228135221,42.3949294 L3.68022707,36.3148222 C1.85752257,34.9882534 0.752853182,32.7773053 0.918553591,30.3176255 L2.21654013,10.5296402 C2.437474,7.21321811 4.53634585,4.58771726 8.09890463,4.58771726 L13.5117846,4.58771726 C13.5117846,2.04512697 15.5278063,0 18.0133124,0 C20.4988185,0 22.5148402,2.04512697 22.5148402,4.58771726 L28.8114557,4.58771726 C32.4016312,4.58771726 33.5615341,7.21321811 33.782468,10.5296402 L35.0804545,30.3176255 C35.2461549,32.7773053 34.1414855,34.9882534 32.318781,36.3148222 L35.7708729,42.3949294 C36.2403574,43.2516718 35.96419,44.3018721 35.1633047,44.7716986 L35.1633047,44.7716986 Z" id="形状"></path>
            </g>
        </g>
    </g>
</svg>