<?xml version="1.0" encoding="utf-8"?>
<!-- Generator: Adobe Illustrator 23.0.3, SVG Export Plug-In . SVG Version: 6.00 Build 0)  -->
<svg version="1.1" id="图层_1" xmlns="http://www.w3.org/2000/svg" xmlns:xlink="http://www.w3.org/1999/xlink" x="0px" y="0px"
	 viewBox="0 0 38 42" style="enable-background:new 0 0 38 42;" xml:space="preserve">
<style type="text/css">
	.st0{fill-rule:evenodd;clip-rule:evenodd;fill:#2596D9;}
	.st1{fill-rule:evenodd;clip-rule:evenodd;fill:#FFFFFF;}
</style>
<path class="st0" d="M21,13h10c5.6,0,7,1.6,7,7v22H21H0V7c0-4.8,1.5-7,7-7h7c5.8,0,7,1.7,7,7V13z"/>
<path class="st1" d="M21.3,27.5h13.7c0.5,0,0.7,0.7,0.7,1.3l0,0c0,0.9-0.4,1.3-0.7,1.3H21.3c-0.5,0-0.8-0.7-0.8-1.3l0,0
	C20.5,28,20.9,27.5,21.3,27.5z"/>
<path class="st1" d="M21.3,19.5h13.7c0.5,0,0.7,0.7,0.7,1.3l0,0c0,0.9-0.4,1.3-0.7,1.3H21.3c-0.5,0-0.8-0.7-0.8-1.3l0,0
	C20.5,20,20.9,19.5,21.3,19.5z"/>
<path class="st1" d="M21.3,35.5h13.7c0.5,0,0.7,0.7,0.7,1.3l0,0c0,0.9-0.4,1.3-0.7,1.3H21.3c-0.5,0-0.8-0.7-0.8-1.3l0,0
	C20.5,36,20.9,35.5,21.3,35.5z"/>
<path class="st1" d="M2.3,35.5h13.7c0.5,0,0.7,0.7,0.7,1.3l0,0c0,0.9-0.4,1.3-0.7,1.3H2.3c-0.5,0-0.8-0.7-0.8-1.3l0,0
	C1.5,36,1.9,35.5,2.3,35.5z"/>
<path class="st1" d="M2.3,27.5h13.7c0.5,0,0.7,0.7,0.7,1.3l0,0c0,0.9-0.4,1.3-0.7,1.3H2.3c-0.5,0-0.8-0.7-0.8-1.3l0,0
	C1.5,28,1.9,27.5,2.3,27.5z"/>
<path class="st1" d="M2.3,19.5h13.7c0.5,0,0.7,0.7,0.7,1.3l0,0c0,0.9-0.4,1.3-0.7,1.3H2.3c-0.5,0-0.8-0.7-0.8-1.3l0,0
	C1.5,20,1.9,19.5,2.3,19.5z"/>
<path class="st1" d="M2.3,11.5h13.7c0.5,0,0.7,0.7,0.7,1.3l0,0c0,0.9-0.4,1.3-0.7,1.3H2.3c-0.5,0-0.8-0.7-0.8-1.3l0,0
	C1.5,12,1.9,11.5,2.3,11.5z"/>
<path class="st1" d="M2.3,4.5h13.7c0.5,0,0.7,0.7,0.7,1.3l0,0c0,0.9-0.4,1.3-0.7,1.3H2.3c-0.5,0-0.8-0.7-0.8-1.3l0,0
	C1.5,5,1.9,4.5,2.3,4.5z"/>
</svg>
