<?xml version="1.0" encoding="UTF-8"?>
<svg width="10px" height="13px" viewBox="0 0 10 13" version="1.1" xmlns="http://www.w3.org/2000/svg" xmlns:xlink="http://www.w3.org/1999/xlink">
    <!-- Generator: Sketch 54.1 (76490) - https://sketchapp.com -->
    <title>密码 (1)</title>
    <desc>Created with Sketch.</desc>
    <g id="页面1" stroke="none" stroke-width="1" fill="none" fill-rule="evenodd">
        <g id="密码-(1)" transform="translate(0.000000, -0.000000)" fill="#2596D9" fill-rule="nonzero">
            <path d="M9.30275446,5.66425797 L2.22248557,5.65205924 C2.21962005,4.68046195 1.96295994,3.17470637 2.77790498,2.26073795 C3.27365332,1.70387105 4.1090231,1.13058332 5.00040315,1.13058332 C6.31723152,1.13058332 7.30177268,2.14085536 7.77832075,3.39130829 C7.91727975,3.75177454 8.0394874,3.9460836 8.33415673,3.95660645 C9.07266674,3.97931504 9.02771462,3.18647637 8.88957614,2.82602312 C8.20091615,1.02079488 6.90901911,0 5.00040315,0 C3.70319163,0 2.98838847,0.270866077 2.22248556,1.13058334 C1.0503346,2.44412144 1.10837726,4.56773751 1.11124278,5.65205926 L0.698051839,5.66425798 C0.311837217,5.66425798 5.68434189e-14,5.97843666 5.68434189e-14,6.36497618 L5.68434189e-14,12.2980087 C5.68434189e-14,12.6866398 0.312657745,13 0.698051839,13 L9.30194654,13 C9.68774458,13 9.99999838,12.6862241 9.99999838,12.2980087 L9.99999839,6.36497617 C10.0008189,5.97802093 9.68816117,5.66425797 9.30275446,5.66425797 L9.30275446,5.66425797 L9.30275446,5.66425797 L9.30275446,5.66425797 Z M8.90673142,11.2994936 C8.90673142,11.4559594 8.8527914,11.5901193 8.74324505,11.6999077 C8.63493581,11.8105146 8.50375286,11.8660389 8.35007491,11.8660389 L1.66993168,11.866039 C1.51625374,11.866039 1.38507079,11.8113591 1.27717811,11.6999078 C1.16846492,11.5892879 1.11328779,11.4559594 1.11328779,11.2994936 L1.11328779,7.33572904 C1.11328779,7.02407065 1.36260105,6.77044387 1.66993168,6.77044387 L8.35008753,6.77044387 C8.65702684,6.77044387 8.90673142,7.02407065 8.90673142,7.33572904 L8.90673142,11.2994936 L8.90673142,11.2994936 L8.90673142,11.2994936 L8.90673142,11.2994936 Z" id="形状"></path>
        </g>
    </g>
</svg>