<svg width="13" height="13" xmlns="http://www.w3.org/2000/svg">
 <!-- Generator: Sketch 54.1 (76490) - https://sketchapp.com -->

 <title>密码 (1)</title>
 <desc>Created with Sketch.</desc>
 <g>
  <title>background</title>
  <rect fill="none" id="canvas_background" height="15" width="15" y="-1" x="-1"/>
 </g>
 <g>
  <title>Layer 1</title>
  <g fill-rule="evenodd" fill="none" id="页面1">
   <g fill-rule="nonzero" fill="#2596D9" id="密码-(1)">
    <path id="形状" d="m10.802754,5.664258l-7.080268,-0.012199c-0.002866,-0.971597 -0.259526,-2.477353 0.555419,-3.391321c0.495748,-0.556867 1.331118,-1.130155 2.222498,-1.130155c1.316829,0 2.30137,1.010272 2.777918,2.260725c0.138959,0.360467 0.261166,0.554776 0.555836,0.565298c0.73851,0.022709 0.693558,-0.77013 0.555419,-1.130583c-0.68866,-1.805228 -1.980557,-2.826023 -3.889173,-2.826023c-1.297211,0 -2.012015,0.270866 -2.777917,1.130583c-1.172151,1.313538 -1.114109,3.437155 -1.111243,4.521476l-0.413191,0.012199c-0.386215,0 -0.698052,0.314179 -0.698052,0.700718l0,5.933033c0,0.388631 0.312658,0.701991 0.698052,0.701991l8.603895,0c0.385798,0 0.698051,-0.313776 0.698051,-0.701991l0,-5.933033c0.000821,-0.386955 -0.311837,-0.700718 -0.697244,-0.700718l0,0l0,0l0,0zm-0.396023,5.635236c0,0.156465 -0.05394,0.290625 -0.163486,0.400414c-0.108309,0.110607 -0.239492,0.166131 -0.39317,0.166131l-6.680143,0c-0.153678,0 -0.284861,-0.05468 -0.392754,-0.166131c-0.108713,-0.11062 -0.16389,-0.243949 -0.16389,-0.400414l0,-3.963765c0,-0.311658 0.249313,-0.565285 0.556644,-0.565285l6.680156,0c0.306939,0 0.556643,0.253627 0.556643,0.565285l0,3.963765l0,0l0,0l0,0z"/>
   </g>
  </g>
 </g>
</svg>