<svg width="13" height="13" xmlns="http://www.w3.org/2000/svg">
 <!-- Generator: Sketch 54.1 (76490) - https://sketchapp.com -->

 <title>手机</title>
 <desc>Created with Sketch.</desc>
 <g>
  <title>background</title>
  <rect fill="none" id="canvas_background" height="15" width="15" y="-1" x="-1"/>
 </g>
 <g>
  <title>Layer 1</title>
  <g fill-rule="evenodd" fill="none" id="页面1">
   <g fill-rule="nonzero" fill="#2596D9" id="手机">
    <path id="路径" d="m8.54399,13l-4.08798,0c-1.07885,0 -1.95601,-0.94154 -1.95601,-2.09959l0,-6.29876c0,-0.20051 0.15161,-0.36325 0.33841,-0.36325c0.1868,0 0.33841,0.16274 0.33841,0.36325l0,6.29876c0,0.75702 0.57394,1.37309 1.27919,1.37309l4.08798,0c0.70525,0 1.27919,-0.61607 1.27919,-1.37309l0,-8.80082c0,-0.75702 -0.57394,-1.37309 -1.27919,-1.37309l-4.08798,0c-0.70525,0 -1.27919,0.61607 -1.27919,1.37309l0,0.54923c0,0.20051 -0.15161,0.36325 -0.33841,0.36325c-0.1868,0 -0.33841,-0.16274 -0.33841,-0.36325l0,-0.54923c0,-1.15805 0.87716,-2.09959 1.95601,-2.09959l4.08798,0c1.07885,0 1.95601,0.94154 1.95601,2.09959l0,8.80082c0,1.15805 -0.87716,2.09959 -1.95601,2.09959z"/>
    <path id="路径" d="m6.25,11.5c0.41421,0 0.75,-0.33579 0.75,-0.75c0,-0.26795 -0.14295,-0.51554 -0.375,-0.64952c-0.23205,-0.13397 -0.51795,-0.13397 -0.75,0c-0.23205,0.13398 -0.375,0.38157 -0.375,0.64952c0,0.41421 0.33579,0.75 0.75,0.75z"/>
    <path id="路径" d="m10.12818,9.5l-7.25636,0c-0.20525,0 -0.37182,-0.224 -0.37182,-0.5c0,-0.276 0.16657,-0.5 0.37182,-0.5l7.25636,0c0.20525,0 0.37182,0.224 0.37182,0.5c0,0.276 -0.16657,0.5 -0.37182,0.5z"/>
   </g>
  </g>
 </g>
</svg>