<?xml version="1.0" encoding="UTF-8"?>
<svg width="11px" height="12px" viewBox="0 0 11 12" version="1.1" xmlns="http://www.w3.org/2000/svg" xmlns:xlink="http://www.w3.org/1999/xlink">
    <!-- Generator: Sketch 54.1 (76490) - https://sketchapp.com -->
    <title>我的 (1)复制</title>
    <desc>Created with Sketch.</desc>
    <g id="页面1" stroke="none" stroke-width="1" fill="none" fill-rule="evenodd">
        <g id="机票查询" transform="translate(-67.000000, -486.000000)" fill="#2596D9" fill-rule="nonzero">
            <g id="我的-(1)复制" transform="translate(67.000000, 486.000000)">
                <path d="M10.9941464,11.4669738 C10.8915601,9.93434084 10.1341104,8.50840671 8.91619841,7.55460907 L8.8429933,7.5040377 L8.84232715,7.50502985 C8.77306222,7.46266499 8.69410275,7.44001559 8.61281885,7.44001559 C8.33357643,7.44001559 8.16695507,7.57463636 8.16695507,7.80019489 C8.16695507,7.93152738 8.22768768,8.05496519 8.32962208,8.13870276 L8.32848821,8.14067289 L8.39314682,8.18696384 C9.41454593,8.91717308 9.98959937,10.0246124 10.1022204,11.4791064 L10.1034252,11.4949808 C10.1023651,11.5072932 10.1018166,11.5196443 10.1017811,11.5320022 C10.1017811,11.7777864 10.3010294,11.977053 10.5468228,11.977053 C10.7843674,11.977053 10.9783999,11.7909537 10.9911559,11.5565934 L11,11.5565934 L10.9941606,11.4669738 L10.9941464,11.4669738 Z M9.56088529,4.01279875 C9.56088529,1.80020197 7.7391906,0 5.49987953,0 C3.26056845,0 1.43885959,1.80020197 1.43885959,4.01281293 C1.43885959,5.20495367 1.96597892,6.31701362 2.88989405,7.08366316 C1.2313766,7.96884645 0.130521951,9.65744556 0.00591026753,11.5216838 L0.000779531688,11.5993976 C0.000680318564,11.6009992 0.000552758834,11.6026009 0.000467719013,11.6042166 L5.68434189e-14,11.6113034 L0.000283466069,11.6113034 C0.000155906338,11.6150878 5.68434189e-14,11.618858 5.68434189e-14,11.6226707 C5.68434189e-14,11.831065 0.16891743,12 0.377321684,12 C0.585711764,12 0.754657541,11.8310791 0.754657541,11.6226707 C0.754657541,11.6188438 0.754473288,11.6150878 0.754374075,11.6113034 L0.762226085,11.6113034 L0.768136352,11.5338022 C0.904880384,9.76213171 2.027732,8.21080382 3.63273105,7.57153234 C4.11193044,7.79414276 4.84341463,8.02593767 5.49956771,8.02593767 C6.1074607,8.02593767 6.69777879,7.89199724 7.25987783,7.62472583 L7.67159812,7.38571656 L8.00778887,7.16507627 C8.99467599,6.39682512 9.56088529,5.24767287 9.56088529,4.01281293 L9.56088529,4.01279875 Z M5.49986535,7.21797211 C3.71051414,7.21797211 2.25488753,5.77989122 2.25488753,4.01250111 C2.25488753,2.24543699 3.71049997,0.807682086 5.49986535,0.807682086 C7.28938664,0.807682086 8.74516916,2.24543699 8.74516916,4.01250111 C8.74515499,5.77989122 7.28937247,7.21797211 5.49986535,7.21797211 Z" id="形状"></path>
            </g>
        </g>
    </g>
</svg>