<svg width="13" height="13" xmlns="http://www.w3.org/2000/svg">
 <!-- Generator: Sketch 54.1 (76490) - https://sketchapp.com -->

 <title>我的 (1)复制</title>
 <desc>Created with Sketch.</desc>
 <g>
  <title>background</title>
  <rect fill="none" id="canvas_background" height="15" width="15" y="-1" x="-1"/>
 </g>
 <g>
  <title>Layer 1</title>
  <g fill-rule="evenodd" fill="none" id="页面1">
   <g fill-rule="nonzero" fill="#2596D9" id="机票查询">
    <g id="我的-(1)复制">
     <path id="形状" d="m11.994146,11.966974c-0.102586,-1.532633 -0.860036,-2.958567 -2.077948,-3.912365l-0.073205,-0.050571l-0.000666,0.000992c-0.069265,-0.042365 -0.148224,-0.065014 -0.229508,-0.065014c-0.279243,0 -0.445864,0.13462 -0.445864,0.360179c0,0.131332 0.060733,0.25477 0.162667,0.338508l-0.001134,0.00197l0.064659,0.046291c1.021399,0.730209 1.596452,1.837648 1.709073,3.292142l0.001205,0.015875c-0.00106,0.012312 -0.001608,0.024663 -0.001644,0.037021c0,0.245784 0.199248,0.445051 0.445042,0.445051c0.237544,0 0.431577,-0.186099 0.444333,-0.42046l0.008844,0l-0.005839,-0.089619l-0.000015,0zm-1.433261,-7.454175c0,-2.212597 -1.821694,-4.012799 -4.061005,-4.012799c-2.239312,0 -4.06102,1.800202 -4.06102,4.012813c0,1.192141 0.527119,2.304201 1.451034,3.07085c-1.658517,0.885183 -2.759372,2.573783 -2.883984,4.438021l-0.00513,0.077714c-0.0001,0.001601 -0.000227,0.003203 -0.000312,0.004819l-0.000468,0.007086l0.000283,0c-0.000127,0.003785 -0.000283,0.007555 -0.000283,0.011368c0,0.208394 0.168917,0.377329 0.377322,0.377329c0.20839,0 0.377336,-0.168921 0.377336,-0.377329c0,-0.003827 -0.000185,-0.007583 -0.000284,-0.011368l0.007852,0l0.00591,-0.077501c0.136744,-1.77167 1.259596,-3.322998 2.864595,-3.96227c0.479199,0.222611 1.210684,0.454406 1.866837,0.454406c0.607893,0 1.198211,-0.133941 1.76031,-0.401212l0.41172,-0.239009l0.336191,-0.220641c0.986887,-0.768251 1.553096,-1.917403 1.553096,-3.152263l0,-0.000014zm-4.06102,3.205173c-1.789351,0 -3.244977,-1.438081 -3.244977,-3.205471c0,-1.767064 1.455612,-3.204819 3.244977,-3.204819c1.789522,0 3.245304,1.437755 3.245304,3.204819c-0.000014,1.76739 -1.455797,3.205471 -3.245304,3.205471z"/>
    </g>
   </g>
  </g>
 </g>
</svg>