<svg width="763" height="329" xmlns="http://www.w3.org/2000/svg" class="icon">
 <defs>
  <style type="text/css"/>
 </defs>
 <g>
  <title>background</title>
  <rect fill="none" id="canvas_background" height="331" width="765" y="-1" x="-1"/>
 </g>
 <g>
  <title>Layer 1</title>
  <path stroke="null" id="svg_1" d="m695.847715,264.528674c0,-8.943816 -8.05777,-16.21589 -17.9679,-16.21589l-188.385098,0c-9.910131,0 -17.9679,7.272074 -17.9679,16.21589l0,8.107945c0,8.943816 8.05777,16.21589 17.9679,16.21589l188.385098,0c9.910131,0 17.9679,-7.272074 17.9679,-16.21589l0,-8.107945zm-26.95185,-97.128166l-71.778983,-89.020221c0,0 -10.836311,-15.547194 -35.843182,-24.323835c-59.368165,-20.729591 -107.622165,8.107945 -107.622165,8.107945s-12.503436,5.851094 -33.249877,15.630781l39.455286,113.929166l191.163639,0c37.973397,-0.167174 17.875282,-24.323835 17.875282,-24.323835zm-260.071463,-24.240248c-5.742319,-33.184064 -30.378718,-41.877118 -58.441985,-32.598954c-55.292971,25.911989 -124.571267,58.427357 -186.625355,87.515654c-3.426868,9.445338 -4.816138,22.234159 2.871159,34.103521c6.483263,10.114035 12.410818,13.875452 15.559831,15.296432l175.140718,-48.898431c36.398891,-10.114035 57.978894,-17.386109 51.495631,-55.418222zm278.039363,178.040443l-681.761409,0l0,-24.323835l133.092127,-37.196243c2.778541,-3.845005 4.167812,-10.114035 1.481889,-19.475786c-4.167812,-14.209801 -11.669873,-20.144482 -17.690046,-22.568507c-43.53048,20.47883 -80.021988,37.614178 -100.120104,47.059516c-12.596054,5.934681 -16.763866,15.965129 -16.763866,15.965129l0,-40.456138l376.770196,-186.231975c0,0 112.438303,-65.532257 197.369048,-40.456138c84.930745,25.076119 170.417198,210.472223 170.417198,210.472223s41.770737,94.536968 -62.795033,97.211754z"/>
 </g>
</svg>