<svg width="25" height="25" xmlns="http://www.w3.org/2000/svg">
 <!-- Generator: Sketch 54.1 (76490) - https://sketchapp.com -->

 <title>我的</title>
 <desc>Created with Sketch.</desc>
 <g>
  <title>background</title>
  <rect fill="none" id="canvas_background" height="27" width="27" y="-1" x="-1"/>
 </g>
 <g>
  <title>Layer 1</title>
  <g fill-rule="evenodd" fill="none" id="页面1">
   <g fill-rule="nonzero" fill="#666666" id="机票查询">
    <g id="我的">
     <path id="形状" d="m12.5,11.111111c2.538462,0 4.615385,-2.083333 4.615385,-4.62963c0,-2.546296 -2.076923,-4.629629 -4.615385,-4.629629c-2.538462,0 -4.615385,2.083333 -4.615385,4.629629c0,2.546297 2.076923,4.62963 4.615385,4.62963zm-4.015385,0.462963c-1.476923,-1.203704 -2.446153,-3.009259 -2.446153,-5.092593c0,-3.564814 2.907692,-6.481481 6.461538,-6.481481c3.553846,0 6.461538,2.916667 6.461538,6.481481c0,2.037038 -0.96923,3.888889 -2.446153,5.092593c4.615384,1.342593 7.984615,5.601852 7.984615,10.648148c0,1.527778 -1.246154,2.777778 -2.769231,2.777778l-18.461538,0c-1.523077,0 -2.769231,-1.25 -2.769231,-2.777778c0,-5.046296 3.369231,-9.305555 7.984615,-10.648148zm13.246154,11.574074c0.507692,0 0.923077,-0.416666 0.923077,-0.925926c0,-5.092592 -4.153846,-9.259259 -9.230769,-9.259259l-1.846154,0c-5.076923,0 -9.230769,4.166667 -9.230769,9.259259c0,0.50926 0.415384,0.925926 0.923077,0.925926l18.461538,0z"/>
    </g>
   </g>
  </g>
 </g>
</svg>