<?xml version="1.0" encoding="UTF-8"?>
<svg width="25px" height="25px" viewBox="0 0 25 25" version="1.1" xmlns="http://www.w3.org/2000/svg" xmlns:xlink="http://www.w3.org/1999/xlink">
    <!-- Generator: Sketch 54.1 (76490) - https://sketchapp.com -->
    <title>形状</title>
    <desc>Created with Sketch.</desc>
    <g id="页面1" stroke="none" stroke-width="1" fill="none" fill-rule="evenodd">
        <g id="机票查询" transform="translate(-179.000000, -566.000000)" fill="#2596D9">
            <path d="M193.721251,566.950101 C193.14311,566.341946 192.340311,565.998372 191.50125,566.000006 C190.6575,566.000006 189.869999,566.337539 189.281249,566.950101 L179.801243,576.817335 C178.823743,577.836187 178.948743,578.717525 179.111243,579.085061 C179.226243,579.345087 179.696243,579.880141 180.816244,579.880141 L182.306245,579.880141 L182.306245,587.653416 C182.306245,589.528603 183.362495,591 185.121246,591 L189.156249,591 L189.156249,582.966699 C189.156249,582.104112 189.279999,581.466549 189.924999,581.466549 L192.965001,581.466549 C193.720001,581.466549 193.843751,582.009103 193.843751,582.966699 L193.843751,591 L197.878754,591 C199.637505,591 200.875005,589.377338 200.875005,587.653416 L200.875005,579.880141 L202.336256,579.880141 C203.456257,579.880141 203.773757,579.345087 203.888757,579.085061 C204.051257,578.716274 204.176257,577.836187 203.198757,576.817335 L193.721251,566.950101 Z M199.546255,578.501253 L199.546255,587.653416 C199.546255,588.516002 198.710004,589.70112 197.831254,589.70112 L195.302502,589.70112 L195.302502,582.966699 C195.302502,581.162769 194.742502,580.062659 192.983751,580.062659 L190.033749,580.062659 C188.274998,580.062659 187.778748,581.242777 187.778748,582.966699 L187.778748,589.70112 L185.118746,589.70112 C184.239996,589.70112 183.688745,588.514752 183.688745,587.653416 L183.688745,578.501253 L180.314994,578.501253 C180.368744,578.406244 180.708744,577.921195 180.862494,577.759929 L190.274999,568.036459 C190.557499,567.740179 191.11375,567.315137 191.50125,567.318887 C191.88875,567.315137 192.498751,567.740179 192.782501,568.036459 L202.141256,577.759929 C202.296256,577.921195 202.770007,578.406244 202.823757,578.501253 L199.546255,578.501253 Z" id="形状" fill-rule="nonzero"></path>
            <polygon id="路径-6" stroke="#2596D9" points="191.5 567.318863 180.314994 578.5 183.607625 578.509992 183.607625 589.70112 185.907497 589.70112 187.778748 589.70112 187.778748 580.68985 194.6902 580.68985 195.302502 589.70112 199.409845 589.70112 199.409845 578.509992 202.823757 578.5"></polygon>
        </g>
    </g>
</svg>