<?xml version="1.0" encoding="UTF-8"?>
<svg width="26px" height="27px" viewBox="0 0 26 27" version="1.1" xmlns="http://www.w3.org/2000/svg" xmlns:xlink="http://www.w3.org/1999/xlink">
    <!-- Generator: Sketch 54.1 (76490) - https://sketchapp.com -->
    <title>路径 5</title>
    <desc>Created with Sketch.</desc>
    <g id="页面1" stroke="none" stroke-width="1" fill="none" fill-rule="evenodd">
        <g id="机票查询" transform="translate(-255.000000, -555.000000)" fill="#2596D9" stroke="#2596D9">
            <path d="M264.880504,567.203305 C261.176149,568.62393 258.690834,570.42247 257.424559,572.598926 C255.525147,575.863611 255.525147,579.82106 257.424559,580.13942 C259.323972,580.45778 274.021701,580.556248 275.373773,580.483188 C276.725844,580.410128 279.528684,580.985564 279.54528,577.679272 C279.547652,577.206695 279.370112,576.116118 279.218953,575.465326 C278.354659,571.74424 275.652599,568.990233 271.112772,567.203305 C272.924134,565.970837 273.829815,564.30417 273.829815,562.203305 C273.829815,559.052008 270.484305,554.198418 264.880504,556.684069 C262.673701,557.66293 261.157332,560.597093 261.844793,563.650019 C261.94943,564.114695 262.514484,565.455732 263.129947,566.137282 C263.456597,566.499008 264.040116,566.854349 264.880504,567.203305 Z" id="路径-5"></path>
        </g>
    </g>
</svg>