<svg width="25" height="25" xmlns="http://www.w3.org/2000/svg">
 <!-- Generator: Sketch 54.1 (76490) - https://sketchapp.com -->

 <title>行李箱复制</title>
 <desc>Created with Sketch.</desc>
 <g>
  <title>background</title>
  <rect fill="none" id="canvas_background" height="27" width="27" y="-1" x="-1"/>
 </g>
 <g>
  <title>Layer 1</title>
  <g fill-rule="evenodd" fill="none" id="页面1">
   <g fill-rule="nonzero" fill="#666666" id="机票查询">
    <g id="行李箱复制">
     <path id="形状" d="m17.954546,3.086207l0,-0.896552c0,-1.47931 -1.227273,-2.689655 -2.727273,-2.689655l-5.454546,0c-1.5,0 -2.727272,1.210345 -2.727272,2.689655l0,0.896552c-2.5,0 -4.545455,2.017241 -4.545455,4.482759l0,11.655172c0,2.465517 2.045455,4.482759 4.545455,4.482759l0.90909,0l0,0.896551c0,0.493104 0.409091,0.896552 0.909091,0.896552c0.5,0 0.909091,-0.403448 0.909091,-0.896552l0,-0.896551l5.454546,0l0,0.896551c0,0.493104 0.409091,0.896552 0.909091,0.896552c0.5,0 0.90909,-0.403448 0.90909,-0.896552l0,-0.896551l0.909092,0c2.5,0 4.545454,-2.017242 4.545454,-4.482759l0,-11.655172c0,-2.465518 -2.045454,-4.482759 -4.545454,-4.482759zm-9.09091,-0.896552c0,-0.493103 0.409091,-0.896552 0.909091,-0.896552l5.454546,0c0.5,0 0.909091,0.403449 0.909091,0.896552l0,0.896552l-7.272728,0l0,-0.896552zm11.818182,17.034483c0,1.47931 -1.227272,2.689655 -2.727272,2.689655l-10.909091,0c-1.5,0 -2.727273,-1.210345 -2.727273,-2.689655l0,-11.655172c0,-1.479311 1.227273,-2.689656 2.727273,-2.689656l10.90909,0c1.500001,0 2.727273,1.210345 2.727273,2.689656l0,11.655172z"/>
     <path id="形状" d="m9.388889,7.5c-0.488889,0 -0.888889,0.380769 -0.888889,0.846154l0,9.307692c0,0.465385 0.4,0.846154 0.888889,0.846154c0.488889,0 0.888889,-0.380769 0.888889,-0.846154l0,-9.307692c0,-0.465385 -0.4,-0.846154 -0.888889,-0.846154zm6.222222,0c-0.488889,0 -0.888889,0.380769 -0.888889,0.846154l0,9.307692c0,0.465385 0.4,0.846154 0.888889,0.846154c0.488889,0 0.888889,-0.380769 0.888889,-0.846154l0,-9.307692c0,-0.465385 -0.4,-0.846154 -0.888889,-0.846154z"/>
    </g>
   </g>
  </g>
 </g>
</svg>