<svg width="13" height="13" xmlns="http://www.w3.org/2000/svg">
 <!-- Generator: Sketch 54.1 (76490) - https://sketchapp.com -->

 <title>验证码复制</title>
 <desc>Created with Sketch.</desc>
 <g>
  <title>background</title>
  <rect fill="none" id="canvas_background" height="15" width="15" y="-1" x="-1"/>
 </g>
 <g>
  <title>Layer 1</title>
  <g fill-rule="evenodd" fill="none" id="页面1">
   <g stroke="null" fill-rule="nonzero" fill="#2596D9" id="验证码复制">
    <path stroke="null" id="形状" d="m6.498989,13.499662c-2.09716,0 -5.998989,-3.137452 -5.998989,-6.105009l0,-5.664199c0,-0.137404 0.114636,-0.24841 0.256582,-0.251287l0.339861,-0.005753c0.012981,0 1.345284,-0.026906 2.718721,-0.5728c1.409514,-0.558416 2.318002,-1.202286 2.327611,-1.208886l0.200107,-0.14248c0.045489,-0.032027 0.0997,-0.04922 0.155264,-0.049242c0.05518,-0.00036 0.109099,0.016557 0.154252,0.048396l0.203984,0.143665c0.009272,0.006599 0.918603,0.649793 2.326431,1.208886c1.374786,0.545894 2.707089,0.572799 2.720744,0.572799l0.337164,0.005753c0.142115,0.002877 0.256413,0.113883 0.256413,0.251288l0.002866,5.664198c0,2.967219 -3.902503,6.105009 -6.001517,6.105009l0.000506,-0.000338zm5.075496,-11.1096c-0.515692,-0.03892 -1.600685,-0.172602 -2.727824,-0.620519c-1.151752,-0.456886 -1.998539,-0.970797 -2.347672,-1.197717c-0.348122,0.226074 -1.195415,0.740155 -2.34683,1.197717c-1.125116,0.446902 -2.207075,0.580584 -2.729847,0.620519l0,5.004591c0,2.32724 3.399455,5.171946 5.076677,5.171946c0.650051,0 1.916776,-0.529479 3.161922,-1.692169c1.200304,-1.119878 1.916777,-2.420987 1.916777,-3.479439l-0.003203,-5.004929zm-5.556629,5.956436c-0.085568,0.088055 -0.202987,0.137616 -0.325532,0.137404c-0.122855,-0.000048 -0.240576,-0.049471 -0.32688,-0.137235l-1.384901,-1.399085c-0.179963,-0.182899 -0.179963,-0.477048 0,-0.659946c0.086167,-0.087689 0.203754,-0.137054 0.326459,-0.137054c0.122705,0 0.240291,0.049365 0.326459,0.137054l1.058863,1.068943l2.673372,-2.702902c0.086019,-0.087839 0.203584,-0.137314 0.326291,-0.137314c0.122707,0 0.240271,0.049475 0.32629,0.137314c0.181158,0.182404 0.181158,0.477542 0,0.659946l-3.000421,3.032875z"/>
   </g>
  </g>
 </g>
</svg>