<?xml version="1.0" standalone="no"?><!DOCTYPE svg PUBLIC "-//W3C//DTD SVG 1.1//EN" "http://www.w3.org/Graphics/SVG/1.1/DTD/svg11.dtd"><svg t="1577704845502" class="icon" viewBox="0 0 1024 1024" version="1.1" xmlns="http://www.w3.org/2000/svg" p-id="3571" width="128" height="128" xmlns:xlink="http://www.w3.org/1999/xlink"><defs><style type="text/css"></style></defs><path d="M808.914944 874.496 198.8608 874.496C129.099776 874.496 81.92 808.47872 81.92 738.70336L81.92 281.5488C81.92 211.77344 129.099776 167.936 198.8608 167.936l610.052096 0C878.675968 167.936 946.176 211.77344 946.176 281.5488l0 457.156608C946.176 808.47872 878.675968 874.496 808.914944 874.496L808.914944 874.496zM198.8608 194.56C155.817984 194.56 135.168 238.491648 135.168 281.5488l0 457.156608C135.168 781.760512 155.817984 821.248 198.8608 821.248l610.052096 0C851.218432 821.248 892.928 781.760512 892.928 738.70336L892.928 281.5488C892.928 238.491648 851.218432 194.56 808.914944 194.56L198.8608 194.56z" p-id="3572" fill="#2596D9"></path><path d="M592.941056 403.456l208.545792 0c12.61568 0 22.267904 1.447936 22.267904 13.312s-9.652224 13.312-22.267904 13.312L592.941056 430.08c-11.864064 0-21.516288-1.447936-21.516288-13.312S581.076992 403.456 592.941056 403.456L592.941056 403.456z" p-id="3573" fill="#2596D9"></path><path d="M592.941056 481.28l155.121664 0c11.862016 0 21.512192 14.401536 21.512192 26.2656 0 12.630016-9.650176 26.9824-21.512192 26.9824l-155.121664 0c-11.864064 0-21.516288-14.352384-21.516288-26.9824C571.426816 495.681536 581.076992 481.28 592.941056 481.28L592.941056 481.28z" p-id="3574" fill="#2596D9"></path><path d="M592.941056 587.776l95.737856 0c11.876352 0 22.269952 13.735936 22.269952 25.6S700.555264 638.976 688.68096 638.976l-95.737856 0c-11.864064 0-21.516288-13.735936-21.516288-25.6S581.076992 587.776 592.941056 587.776L592.941056 587.776z" p-id="3575" fill="#2596D9"></path><path d="M526.157824 692.224c-0.741376 0 0.178176-10.665984 0.178176-11.405312l0-0.741376 0-2.965504c0-60.852224-47.958016-112.805888-104.361984-136.558592 33.39264-22.269952 53.198848-59.369472 53.198848-100.202496 0-66.783232-55.033856-120.961024-121.088-120.961024-34.134016 0-62.390272 11.88864-86.145024 35.61472-23.752704 23.011328-35.649536 51.955712-35.649536 85.346304 0 40.833024 20.762624 77.932544 53.413888 100.202496-55.660544 23.011328-91.693056 74.223616-99.848192 134.334464-0.741376 1.4848 2.562048 2.224128 2.562048 3.70688l0 2.226176 0 1.4848 0 0c0 8.921088 3.364864 17.819648 13.756416 17.819648 9.652224 0 16.150528-8.155136 16.150528-17.819648l0 0c8.912896-66.043904 60.778496-117.997568 128.31744-121.704448 5.189632 0.739328 9.967616 0.739328 15.169536 0 33.39264 2.224128 62.134272 14.088192 86.628352 37.840896 24.49408 22.267904 39.223296 50.470912 42.930176 83.863552l0 0 0 0c0 8.921088 7.378944 22.765568 17.758208 22.765568C518.037504 705.067008 526.157824 692.224 526.157824 692.224l-0.741376 0L526.157824 692.224 526.157824 692.224zM353.970176 526.465024c-47.49312 0-86.829056-39.348224-86.829056-86.114304 0-24.467456 8.910848-44.51328 25.235456-60.850176 17.065984-17.053696 37.840896-25.97888 61.5936-25.97888s43.784192 8.923136 60.864512 25.97888c17.065984 16.338944 25.223168 36.38272 25.223168 60.850176C440.057856 487.856128 401.475584 526.465024 353.970176 526.465024L353.970176 526.465024z" p-id="3576" fill="#2596D9"></path></svg>