<svg xmlns="http://www.w3.org/2000/svg" viewBox="0 0 45.04 22.84"><defs><style>.cls-1{fill:#b9d9f9;}.cls-2{fill:#fff;stroke:#fff;stroke-miterlimit:10;stroke-width:0.25px;}</style></defs><title>资源 12</title><g id="图层_2" data-name="图层 2"><g id="图层_1-2" data-name="图层 1"><rect class="cls-1" width="45.04" height="22.84"/><path class="cls-2" d="M4.72,7.16h.84c0,.41,0,1.22,0,2.45q.74,0,1.23,0v.69c-.33,0-.74,0-1.23,0v4.22c0,.36,0,.82,0,1.39H4.72c0-.57,0-1,0-1.39V10.23c-.52,0-.93,0-1.23,0V9.58q.45,0,1.23,0C4.76,8.38,4.74,7.57,4.72,7.16ZM8.48,7a4.31,4.31,0,0,0,.92.15,7.5,7.5,0,0,0-.11,1.89h2.07a10.75,10.75,0,0,0-.15,1.15l-.27,4.26c0,.41-.21.66-.46.75a9.71,9.71,0,0,1-1.08.29,5,5,0,0,0-.34-.85,9.66,9.66,0,0,0,1-.07q.17,0,.21-.54l.27-4.38H9.25A11.66,11.66,0,0,1,8.71,13,6.88,6.88,0,0,1,7,15.72a1.88,1.88,0,0,0-.92-.54A4.13,4.13,0,0,0,7.68,13.3a8.64,8.64,0,0,0,.8-3.61c-.49,0-1,0-1.46,0V9c.49,0,1,0,1.5,0C8.52,8.26,8.51,7.58,8.48,7ZM7,13.07a2.63,2.63,0,0,0-.73-.19,12.32,12.32,0,0,0,.62-2,3.78,3.78,0,0,0,.84.19A9.24,9.24,0,0,0,7,13.07Zm5.69-.42a1.91,1.91,0,0,0-.73.27,15.32,15.32,0,0,0-.66-1.77,3.31,3.31,0,0,0,.66-.31A13.67,13.67,0,0,1,12.71,12.65Z"/><path class="cls-2" d="M14.2,15a1.05,1.05,0,0,0,.54-.92V10.69h-.5c-.25,0-.53,0-.84,0V10a5.37,5.37,0,0,0,.84.08h1.27c0,.43,0,.93,0,1.49V14c.28-.3.66-.73,1.12-1.26.1.12.26.33.5.61-.39.38-.77.78-1.16,1.17a10.2,10.2,0,0,0-1.07,1.33C14.68,15.57,14.46,15.31,14.2,15Zm1.66-6.38a6.58,6.58,0,0,0-.73.39,17.11,17.11,0,0,0-.85-1.65A3.3,3.3,0,0,0,14.93,7Q15.55,8,15.86,8.65ZM17.7,9.86a7.61,7.61,0,0,0,.46,1.37,8.74,8.74,0,0,0,1,1.57,8.81,8.81,0,0,0,.71-1.75c.14-.52.26-1,.37-1.55s.19-1.1.27-1.77a7,7,0,0,0,1,.19,2.12,2.12,0,0,0-.3.68c-.06.21-.12.53-.2.94s-.19.93-.34,1.57a10.66,10.66,0,0,1-.92,2.31,5.3,5.3,0,0,0,1.23.94,7.08,7.08,0,0,0,1.49.55,2.27,2.27,0,0,0-.69.93L20.27,15a6.18,6.18,0,0,1-1.11-1,9.07,9.07,0,0,1-1.23,1.17c-.36.27-.74.55-1.15.83l-.85-.69a7.56,7.56,0,0,0,1.52-.79,4.21,4.21,0,0,0,1.13-1.09,8.44,8.44,0,0,1-1.07-1.81A10.17,10.17,0,0,1,17,10.05q-.18-.71-.33-1.59a5,5,0,0,0,.81-.15A11.41,11.41,0,0,0,17.7,9.86Zm1.81,0a2.88,2.88,0,0,0-.77.16c-.16-.93-.37-1.91-.66-3,.23-.08.49-.16.77-.23Q19.27,8.7,19.51,9.88Z"/><path class="cls-2" d="M25.38,8.38h1.46v6.34c0,.41-.09.67-.27.77a3.51,3.51,0,0,1-1,.27,3,3,0,0,0-.3-.85,3.11,3.11,0,0,0,.78,0c.12,0,.18-.19.18-.5V11.92H24.57c0,.59,0,1.11-.05,1.55a8.21,8.21,0,0,1-.21,1.27A8.37,8.37,0,0,1,23.85,16a1.5,1.5,0,0,0-.7-.35,5,5,0,0,0,.64-1.71,12.77,12.77,0,0,0,.13-2,5.48,5.48,0,0,0-.65,0V11.3a6.29,6.29,0,0,0,.65,0V9.65c0-.38,0-.81,0-1.27h.81A6.16,6.16,0,0,0,25.11,7l.81.27C25.76,7.55,25.59,7.92,25.38,8.38Zm.81,3V9H24.57v2.38ZM26,13.68l-.58.35a11.39,11.39,0,0,0-.65-1.31,3.39,3.39,0,0,0,.5-.34C25.48,12.81,25.73,13.25,26,13.68Zm0-3a4.43,4.43,0,0,0-.58.27,8.94,8.94,0,0,0-.54-1.23,5.49,5.49,0,0,0,.54-.31Zm4.88,1.11v2.73c0,.31.07.46.23.46h.19c.13,0,.22-.07.27-.23a2.56,2.56,0,0,0,.07-.73,2,2,0,0,0,.77.31,3.91,3.91,0,0,1-.3,1,.7.7,0,0,1-.66.27h-.61c-.44,0-.66-.26-.66-.77V11H28.72c0,.87,0,1.55,0,2.05a4.35,4.35,0,0,1-.32,1.46,5.18,5.18,0,0,1-1,1.48,1.32,1.32,0,0,0-.62-.5,3.33,3.33,0,0,0,1-1.42A4.79,4.79,0,0,0,28,12.86c0-.35,0-.74,0-1.17s0-.87,0-1.31h2.85C30.81,10.71,30.8,11.18,30.8,11.76ZM32,9.31c-.31,0-.63,0-1,0H28.22a6.8,6.8,0,0,0-.8,0v-.7a7.05,7.05,0,0,0,.76,0H31c.3,0,.61,0,.92,0ZM30,8.23a5.65,5.65,0,0,0-.73.35,7.66,7.66,0,0,0-.69-1.31c.26-.13.47-.24.65-.35A13.39,13.39,0,0,1,30,8.23Z"/><path class="cls-2" d="M38.36,9.27c.34,0,.78,0,1.35,0V10c-.54,0-1,0-1.31,0H34.83c-.49,0-1,0-1.5,0V9.23c.51,0,1,0,1.5,0Zm3.15-1.85c0,.57,0,1.07,0,1.5v6a.72.72,0,0,1-.51.68,6.91,6.91,0,0,1-1.41.28,1.81,1.81,0,0,0-.38-.92,5.76,5.76,0,0,0,1.23-.07c.15-.06.23-.25.23-.58V8.08h-5.3c-.46,0-1,0-1.5,0V7.39l1.46,0ZM39,12.23v.84c0,.41,0,.83,0,1.27h-.84v-.5H35.06v1h-.84a11.68,11.68,0,0,0,.07-1.23V12.23a10.22,10.22,0,0,0-.07-1.16h4.83C39,11.43,39,11.82,39,12.23Zm-.81,1V11.69H35.06v1.53Z"/></g></g></svg>