<?xml version="1.0" standalone="no"?><!DOCTYPE svg PUBLIC "-//W3C//DTD SVG 1.1//EN" "http://www.w3.org/Graphics/SVG/1.1/DTD/svg11.dtd"><svg t="1588730244869" class="icon" viewBox="0 0 1024 1024" version="1.1" xmlns="http://www.w3.org/2000/svg" p-id="968" width="32" height="32" xmlns:xlink="http://www.w3.org/1999/xlink"><defs><style type="text/css"></style></defs><path d="M892.34 897.21H115.46c-24.63 0-44.66-20.04-44.66-44.66v-77.23c0-24.62 20.04-44.66 44.66-44.66h776.89c24.62 0 44.65 20.04 44.65 44.66v77.23c0 24.63-20.04 44.66-44.66 44.66zM119.91 848.1h767.98v-68.33H119.91v68.33zM239.87 694.71c-15.9 0-31.63-7.09-41.91-20.39l-79.15-102.3a52.653 52.653 0 0 1-8.26-49.15c5.65-16.77 19.24-29.52 36.34-34.1l112.69-30.23 90.45-58.39c1-0.65 1.56-1.59 1.65-2.79 0.1-1.19-0.31-2.21-1.21-3L193.94 254.21c-12.25-10.97-18.61-26.67-17.44-43.08 1.18-16.4 9.69-31.04 23.38-40.16l58.23-38.79c13.23-8.81 29.54-11.2 44.76-6.52l320.25 98.47c0.82 0.25 1.73 0.2 2.53-0.14l174.07-75.84c40.42-17.6 87.11-0.34 106.36 39.23 18.1 37.15 5.6 82.13-29.09 104.61l-608.6 394.34c-8.74 5.66-18.67 8.38-28.52 8.38z m-82.21-152.73l79.15 102.3c1.16 1.51 3.3 1.85 4.87 0.83l608.61-394.34c13.9-9 18.9-27.01 11.65-41.89-7.72-15.85-26.39-22.79-42.6-15.71L645.27 269a52.918 52.918 0 0 1-36.58 2.07L288.44 172.6a3.65 3.65 0 0 0-3.1 0.45l-58.24 38.79c-0.99 0.66-1.53 1.59-1.62 2.79-0.08 1.19 0.32 2.19 1.21 2.99l156.54 140.15c12.35 11.06 18.7 26.88 17.41 43.4-1.28 16.53-10 31.18-23.91 40.2l-89.41 57.93a52.639 52.639 0 0 1-15.06 6.7L159.6 536.2c-1.26 0.34-2.1 1.13-2.52 2.36-0.41 1.24-0.22 2.39 0.58 3.42z" p-id="969" fill="#169bd4"></path></svg>