<?xml version="1.0" encoding="UTF-8"?>
<svg width="38px" height="38px" viewBox="0 0 38 38" version="1.1" xmlns="http://www.w3.org/2000/svg" xmlns:xlink="http://www.w3.org/1999/xlink">
    <!-- Generator: Sketch 58 (84663) - https://sketch.com -->
    <title>联系我们 (1)</title>
    <desc>Created with Sketch.</desc>
    <g id="页面1" stroke="none" stroke-width="1" fill="none" fill-rule="evenodd">
        <g id="画板" transform="translate(-50.000000, -239.000000)" fill="#179BD4" fill-rule="nonzero">
            <g id="联系我们-(1)" transform="translate(50.000000, 239.000000)">
                <path d="M18.8585555,0 C26.3952222,0 32.7707778,5.33931343 34.8734445,12.6816618 L34.8333333,12.6774359 C35.6731856,12.6774359 36.4786396,13.0113496 37.0725048,13.6057197 C37.66637,14.2000898 38,15.0062287 38,15.8467949 L38,20.0726069 C38,21.8090636 36.6040924,23.2222861 34.8692222,23.2419659 C33.2922222,28.7545376 29.3043333,33.1367047 24.2228889,34.9791587 C23.8726804,36.851539 22.1598869,38.152245 20.2638934,37.9856447 C18.3678998,37.8190443 16.9077603,36.2395335 16.8888889,34.3347223 C16.8877412,32.5772056 18.1228313,31.061734 19.8432618,30.7096683 C21.5636923,30.3576027 23.294005,31.2662398 23.9822222,32.8831559 C29.6927778,30.6899595 33.7777778,24.8372099 33.7777778,17.9597009 C33.7777778,9.20804432 27.1615555,2.112906 19,2.112906 C10.8384445,2.112906 4.22222223,9.20804432 4.22222223,17.9597009 C4.22222223,18.3146691 4.23277777,18.6675245 4.25388888,19.0161539 L4.22222223,19.0161539 L4.22222223,23.2419659 L3.16666665,23.2419659 C2.32681443,23.2419659 1.52136037,22.9080523 0.927495176,22.3136821 C0.333629979,21.719312 0,20.9131732 0,20.0726069 L0,15.8467949 C0,14.222448 1.22716446,12.8611055 2.84155554,12.6943392 C4.94211112,5.34353925 11.3176667,0 18.8585555,0 Z M19,4.22581199 C25.9956068,4.22581199 31.6666667,9.90169339 31.6666667,16.9032479 C31.6666667,23.9054184 31.6666667,29.5806839 19,29.5806839 C6.98777777,29.5806839 6.36711112,24.475903 6.33333335,17.9787171 L6.33333335,16.9032479 C6.33333335,9.90169339 12.0043932,4.22581199 19,4.22581199 L19,4.22581199 Z M19,6.33871799 C13.1703276,6.33871799 8.44444446,11.0686191 8.44444446,16.9032479 L8.44444446,17.8836363 C8.48033335,23.2588692 9.044,27.4677779 19,27.4677779 C29.5555555,27.4677779 29.5555555,22.7369814 29.5555555,16.9032479 C29.5555555,11.0686191 24.8296724,6.33871799 19,6.33871799 L19,6.33871799 Z M13.7222222,16.9032479 C14.002173,16.9032479 14.2706577,17.0145525 14.4686127,17.2126759 C14.6665678,17.4107992 14.7777778,17.6795122 14.7777778,17.9597009 L14.7777778,22.1855129 C14.7777778,22.7689758 14.3051894,23.2419659 13.7222222,23.2419659 C13.139255,23.2419659 12.6666667,22.7689758 12.6666667,22.1855129 L12.6666667,17.9597009 C12.6666667,17.6795122 12.7778766,17.4107992 12.9758317,17.2126758 C13.1737868,17.0145525 13.4422715,16.9032479 13.7222222,16.9032479 L13.7222222,16.9032479 Z M24.2777778,16.9032479 C24.5577285,16.9032479 24.8262132,17.0145525 25.0241683,17.2126758 C25.2221234,17.4107992 25.3333333,17.6795122 25.3333333,17.9597009 L25.3333333,22.1855129 C25.3333333,22.7689758 24.860745,23.2419659 24.2777778,23.2419659 C23.6948106,23.2419659 23.2222222,22.7689758 23.2222222,22.1855129 L23.2222222,17.9597009 C23.2222222,17.6795122 23.3334322,17.4107992 23.5313873,17.2126759 C23.7293423,17.0145525 23.997827,16.9032479 24.2777778,16.9032479 L24.2777778,16.9032479 Z" id="形状"></path>
            </g>
        </g>
    </g>
</svg>