<svg width="45" height="45" xmlns="http://www.w3.org/2000/svg">
 <!-- Generator: Sketch 54.1 (76490) - https://sketchapp.com -->

 <title>火车票</title>
 <desc>Created with Sketch.</desc>
 <g>
  <title>background</title>
  <rect fill="none" id="canvas_background" height="47" width="47" y="-1" x="-1"/>
 </g>
 <g>
  <title>Layer 1</title>
  <g fill-rule="evenodd" fill="none" id="页面1">
   <g fill-rule="nonzero" fill="#2596D9" id="火车票">
    <path id="形状" d="m14.393992,40.432713l16.211024,0c0.497101,0 0.911352,0.414553 0.911352,0.912016l0,0.912016c0,0.497463 -0.414251,0.912016 -0.911352,0.912016l-16.211024,0c-0.497101,0 -0.911352,-0.414553 -0.911352,-0.912016l0,-0.912016c0,-0.497463 0.414251,-0.912016 0.911352,-0.912016zm18.006112,-17.438853c-1.491304,0 -2.706441,1.243658 -2.706441,2.763685c0,1.520027 1.215137,2.763685 2.706441,2.763685c1.491303,0 2.70644,-1.243658 2.70644,-2.763685c0,-1.520027 -1.215137,-2.763685 -2.70644,-2.763685zm2.70644,-11.93912c0,-1.022563 -0.800886,-1.851669 -1.795088,-1.851669l-21.623904,0c-0.994202,0 -1.795087,0.829106 -1.795087,1.851669l0,7.351403c0,1.022563 0.800885,1.851669 1.795087,1.851669l21.623904,0c0.994202,0 1.795088,-0.829106 1.795088,-1.851669l0,-7.351403l0,0zm-22.535256,17.46649c1.491304,0 2.70644,-1.243658 2.70644,-2.763685c0,-1.520027 -1.215136,-2.763685 -2.70644,-2.763685c-1.491304,0 -2.70644,1.243658 -2.70644,2.763685c0.027617,1.520027 1.215136,2.763685 2.70644,2.763685zm27.092017,16.250469c-0.828502,0.469826 -1.850321,0.193458 -2.319806,-0.635648l-3.700642,-6.522297c-0.303784,0.055274 -0.635185,0.082911 -0.938969,0.082911l-20.381151,0c-0.331401,0 -0.635185,-0.027637 -0.938969,-0.082911l-3.700642,6.522297c-0.469485,0.829106 -1.518921,1.105474 -2.319806,0.635648c-0.828502,-0.469827 -1.104669,-1.547664 -0.635185,-2.37677l3.452092,-6.080107c-1.822704,-1.326569 -2.927374,-3.537517 -2.761673,-5.997197l1.297986,-19.787985c0.220934,-3.316422 2.319806,-5.941923 5.882365,-5.941923l5.41288,0c0,-2.54259 2.016021,-4.587717 4.501527,-4.587717c2.485506,0 4.501528,2.045127 4.501528,4.587717l6.296616,0c3.590175,0 4.750078,2.625501 4.971012,5.941923l1.297987,19.787985c0.1657,2.45968 -0.938969,4.670628 -2.761674,5.997197l3.452092,6.080107c0.469484,0.856743 0.193317,1.906943 -0.607568,2.37677l0,0z"/>
   </g>
  </g>
 </g>
</svg>