<?xml version="1.0" encoding="UTF-8"?>
<svg width="60px" height="50px" viewBox="0 0 60 50" version="1.1" xmlns="http://www.w3.org/2000/svg" xmlns:xlink="http://www.w3.org/1999/xlink">
    <!-- Generator: Sketch 55.1 (78136) - https://sketchapp.com -->
    <title>国内机票</title>
    <desc>Created with Sketch.</desc>
    <g id="图标" stroke="none" stroke-width="1" fill="none" fill-rule="evenodd">
        <g id="画板" transform="translate(-124.000000, -164.000000)">
            <g id="国内机票" transform="translate(124.000000, 159.000000)">
                <rect id="矩形" fill="#FFFFFF" opacity="0" x="0" y="0" width="60" height="60"></rect>
                <g id="编组" transform="translate(0.000000, 5.000000)" fill-rule="nonzero">
                    <path d="M18.2596699,30.5894166 L26.8069922,28.1385113 C26.765034,28.4988319 26.7434653,28.865341 26.7434653,29.2368645 L26.7434653,29.6330814 C31.2221413,30.9041136 34.3131304,34.9748166 34.3207972,39.6130381 C34.3207972,40.286476 33.9604587,40.9102233 33.3739502,41.247596 C32.7852742,41.5848362 32.0676543,41.5848362 31.4789783,41.247596 C30.8978848,40.9180895 30.5362147,40.2928886 30.5334091,39.6130381 C30.5334091,35.9738584 27.5753107,33.0198854 23.9208134,33.0094242 C20.2586493,33.0094242 17.2903285,35.9660125 17.2903285,39.6130381 C17.2903285,43.2587561 20.2586493,46.2166521 23.9208134,46.2166521 L24.6593796,46.2166521 C24.8663826,46.1813456 25.0784968,46.1813456 25.2854998,46.2166521 L25.284222,46.2153444 L47.5817669,46.2153444 C50.2894172,46.2153444 52.7913423,44.7769335 54.1445286,42.4427848 C55.4981667,40.118023 55.4981667,37.2211195 54.1445286,34.8963578 C52.7900645,32.5609015 50.2894172,31.1224905 47.5817669,31.1237982 C47.079593,31.1237982 46.5978638,30.9250359 46.2426364,30.5706638 C45.8887398,30.2212711 45.6882145,29.7400899 45.686795,29.2368645 C45.686795,26.9983525 44.9040188,24.9418781 43.59615,23.3242978 L47.4687583,22.2138453 C48.4450861,23.7697877 49.1088924,25.5519117 49.3642927,27.4820031 C55.2447111,28.3842791 59.4320495,33.6514785 58.9643761,39.558117 C58.4967026,45.4660631 53.5337419,50.0153646 47.5830447,49.9892117 L47.5817669,49.9892117 L23.9016464,49.9892117 C18.1477298,50.2481257 13.2703815,45.8152047 13.0109888,40.0837908 C12.8269015,36.0568898 14.971466,32.461392 18.2596699,30.5894166 Z" id="形状结合" fill="#9FCEFF"></path>
                    <g transform="translate(0.000000, 0.000000)">
                        <path d="M59.6872345,13.5402429 C57.4507214,10.2010914 54.2208966,9.08908204 51.9422146,8.73923642 C50.5309326,8.52507401 49.0884123,8.67120642 47.7487525,9.16404897 L35.3745252,13.6792441 L35.2074115,13.6745587 C34.4230358,13.6493889 33.6662732,13.379019 33.0435225,12.9014623 C29.6700111,10.3244744 18.4109168,1.77277917 15.6738433,0.446801784 C14.5743285,-0.0857757244 13.6481746,-0.0748430479 12.9047527,0.171923062 C11.4991229,0.640466318 10.9173484,2.34284013 11.7123101,3.61181144 L22.8081952,18.2639398 L13.8277829,21.5390572 C12.5914533,21.9904529 11.2217464,21.8968123 10.0583524,21.2813584 L4.5646828,18.3818566 C3.9373882,18.0502993 3.23300881,17.8920633 2.52417693,17.9234651 L1.17321055,17.9843757 C0.132263612,18.03123 -0.347993209,19.327533 0.400895105,20.0670505 L8.87059526,28.426643 C10.2188845,29.7670055 12.1940766,30.2591541 14.0136384,29.7081088 L58.8094969,16.0766238 C59.8684046,15.7548907 60.311178,14.4718631 59.6872345,13.5402429 L59.6872345,13.5402429 Z" id="路径" fill="#469FFA"></path>
                        <path d="M52.4145278,10 L49.6813589,10.973789 C49.543264,11.0249262 49.4387973,11.1402134 49.401474,11.2826639 C49.3641507,11.4251145 49.3986641,11.5768157 49.4939415,11.6890984 L51.2119335,13.7108625 C51.324394,13.8444231 51.5062164,13.8971208 51.6726677,13.8443974 L56.7485529,12.2318277 C56.7485529,12.2318277 55.3046587,10.4849422 52.4145278,10 L52.4145278,10 Z M48.5709114,11.7156492 L50.2272117,13.740537 C50.3205989,13.8545834 50.3524145,14.0070449 50.3124336,14.1489226 C50.2724527,14.2908003 50.165713,14.4042172 50.0265191,14.4527227 L48.152346,15.077447 C47.9788235,15.1346824 47.7880595,15.076515 47.6759937,14.9321986 L46.097003,12.9252717 C46.0075633,12.8119 45.977768,12.662578 46.0168469,12.5235621 C46.0559258,12.3845461 46.1591608,12.2726204 46.2945721,12.2224568 L48.094559,11.5821144 C48.2656326,11.5222525 48.4558827,11.5755849 48.5709114,11.7156492 L48.5709114,11.7156492 Z" id="形状" fill="#FFFFFF"></path>
                    </g>
                </g>
            </g>
        </g>
    </g>
</svg>