<?xml version="1.0" encoding="UTF-8"?>
<svg width="40px" height="42px" viewBox="0 0 40 42" version="1.1" xmlns="http://www.w3.org/2000/svg" xmlns:xlink="http://www.w3.org/1999/xlink">
    <!-- Generator: Sketch 58 (84663) - https://sketch.com -->
    <title>出用车</title>
    <desc>Created with Sketch.</desc>
    <g id="页面1" stroke="none" stroke-width="1" fill="none" fill-rule="evenodd">
        <g id="首页" transform="translate(-30.000000, -424.000000)" fill="#2596D9" fill-rule="nonzero">
            <g id="出用车" transform="translate(30.000000, 424.000000)">
                <path d="M36.248,36 L36.2484348,38.3095648 C36.2484348,43.3033956 31.249687,43.1563452 31.249687,38.3095648 L31.249687,38.3095648 L31.249,36 L36.248,36 Z M8.75,36 L8.75031305,38.3095648 C8.75031305,43.1563452 3.75156524,43.3033956 3.75156524,38.3095648 L3.75156524,38.3095648 L3.751,36 L8.75,36 Z M9.5,23 C7.56700338,23 6,24.5670034 6,26.5 C6,28.4329966 7.56700338,30 9.5,30 C11.4329966,30 13,28.4329966 13,26.5 C13,24.5670034 11.4329966,23 9.5,23 Z M30.5,23 C28.5670034,23 27,24.5670034 27,26.5 C27,28.4329966 28.5670034,30 30.5,30 C32.4329966,30 34,28.4329966 34,26.5 C34,24.5670034 32.4329966,23 30.5,23 Z M28.750313,7.6407377 L11.3749061,7.6407377 C10.2529426,7.6407377 9.75206612,8.51715796 9.50162785,9.54651061 C8.48524987,12.3175658 7.72297426,14.4771045 7.21480104,16.0251267 C7.02541508,16.6020436 7.48550263,17.1813663 7.99160891,17.1813663 L7.99160891,17.1813663 L32.0433213,17.1813663 C32.737338,17.1813663 32.9257969,16.5790748 32.737338,16.003388 C32.2676165,14.5685264 31.5630343,12.4162339 30.6235913,9.54651061 C30.2479339,8.37598959 29.8772852,7.6407377 28.750313,7.6407377 L28.750313,7.6407377 Z M0,35 L0,22.7516346 C0,19.3753579 2.37415477,17.6166354 3.62634611,17.469585 L3.62634611,17.469585 L6.88705234,7.63485568 C7.50813924,5.72908277 8.88554971,4.1115286 11.3849236,4.1115286 L11.3849236,4.1115286 L16.1332332,4.1115286 C16.1332332,4.1115286 17.630854,0 18.3821688,0 L18.3821688,0 L21.7580766,0 C22.5093914,0 24.0070123,4.1115286 24.0070123,4.1115286 L24.0070123,4.1115286 L28.6301027,4.1115286 C31.1294766,4.1115286 32.5018783,5.72908277 33.127974,7.63485568 L33.127974,7.63485568 L36.3786627,17.469585 C37.7510644,17.6166354 40,19.38124 40,22.7575167 L40,22.7575167 L40,35 L0,35 Z" id="形状结合"></path>
            </g>
        </g>
    </g>
</svg>