<?xml version="1.0" encoding="UTF-8"?>
<svg width="52px" height="40px" viewBox="0 0 52 40" version="1.1" xmlns="http://www.w3.org/2000/svg" xmlns:xlink="http://www.w3.org/1999/xlink">
    <!-- Generator: Sketch 55.1 (78136) - https://sketchapp.com -->
    <title>用车</title>
    <desc>Created with Sketch.</desc>
    <g id="图标" stroke="none" stroke-width="1" fill="none" fill-rule="evenodd">
        <g id="画板" transform="translate(-308.000000, -170.000000)">
            <g id="用车" transform="translate(304.000000, 159.000000)">
                <rect id="矩形" fill="#5A3F3F" opacity="0" x="0" y="0" width="60" height="60"></rect>
                <g id="编组" transform="translate(4.000000, 11.000000)" fill-rule="nonzero">
                    <path d="M51.0204082,21.5561224 L51.0204082,31.122449 C51.0204082,31.3520408 50.9438776,31.5497449 50.7971939,31.6964286 C50.6441327,31.8494898 50.4591837,31.9196429 50.2232143,31.9196429 L47.8316327,31.9196429 L47.8316327,35.1020408 C47.8316327,36.434949 47.3660714,37.557398 46.434949,38.494898 C45.5038265,39.4196429 44.375,39.8915816 43.0420918,39.8915816 C41.7091837,39.8915816 40.5867347,39.4260204 39.6492347,38.494898 C38.7244898,37.5637755 38.2653061,36.434949 38.2653061,35.1084184 L38.2653061,31.9196429 L12.755102,31.9196429 L12.755102,35.1084184 C12.755102,36.4413265 12.2895408,37.5637755 11.3584184,38.5012755 C10.4272959,39.4260204 9.29846939,39.8979592 7.96556122,39.8979592 C6.63265306,39.8979592 5.51020408,39.432398 4.57270408,38.5012755 C3.63520408,37.5701531 3.18877551,36.434949 3.18877551,35.1084184 L3.18877551,31.9196429 L0.797193878,31.9196429 C0.567602041,31.9196429 0.369897959,31.8431122 0.223214286,31.6964286 C0.0701530612,31.5433673 5.68434189e-14,31.3584184 5.68434189e-14,31.122449 L5.68434189e-14,21.5561224 C5.68434189e-14,20.0127551 0.542091837,18.692602 1.62627551,17.6084184 C2.71683673,16.5178571 4.03061224,15.9821429 5.57397959,15.9821429 L6.26913265,15.9821429 L8.88392857,5.54846939 C9.26658163,3.98596939 10.1339286,2.67857143 11.4732143,1.62627551 C12.8188776,0.573979592 14.3048469,0.0446428571 15.9311224,0.0446428571 L35.0637755,0.0446428571 C36.690051,0.0446428571 38.1760204,0.573979592 39.5216837,1.62627551 C40.8673469,2.67857143 41.7346939,3.99234694 42.1109694,5.54846939 L44.7257653,15.9821429 L45.4209184,15.9821429 C46.9642857,15.9821429 48.2844388,16.5242347 49.3686224,17.6084184 C50.4783163,18.6989796 51.0204082,20.0127551 51.0204082,21.5561224 Z M10.7908163,26.7665816 C11.5688776,25.9885204 11.9579082,25.0510204 11.9579082,23.9540816 C11.9579082,22.8571429 11.5625,21.9196429 10.7908163,21.1415816 C10.0127551,20.3635204 9.0752551,19.9744898 7.97831633,19.9744898 C6.88137755,19.9744898 5.94387755,20.369898 5.16581633,21.1415816 C4.3877551,21.9196429 3.99872449,22.8571429 3.99872449,23.9540816 C3.99872449,25.0510204 4.3877551,25.9885204 5.16581633,26.7665816 C5.94387755,27.5446429 6.88137755,27.9336735 7.97193878,27.9336735 C9.0625,27.9336735 10.0063776,27.5446429 10.7908163,26.7665816 Z M12.8571429,15.9757653 L38.1696429,15.9757653 L35.9502551,7.08545918 C35.9183673,6.95153061 35.7971939,6.80484694 35.5994898,6.65178571 C35.4017857,6.49872449 35.2295918,6.41581633 35.0765306,6.41581633 L15.9438776,6.41581633 C15.7908163,6.41581633 15.6186224,6.49234694 15.4209184,6.65178571 C15.2232143,6.81122449 15.1084184,6.95790816 15.0701531,7.08545918 L12.8571429,15.9757653 L12.8571429,15.9757653 Z M45.8673469,26.7665816 C46.6454082,25.9885204 47.0344388,25.0510204 47.0344388,23.9540816 C47.0344388,22.8571429 46.6390306,21.9196429 45.8673469,21.1415816 C45.0892857,20.3635204 44.1517857,19.9744898 43.0548469,19.9744898 C41.9579082,19.9744898 41.0204082,20.369898 40.2423469,21.1415816 C39.4642857,21.9196429 39.0752551,22.8571429 39.0752551,23.9540816 C39.0752551,25.0510204 39.4642857,25.9885204 40.2423469,26.7665816 C41.0204082,27.5446429 41.9579082,27.9336735 43.0484694,27.9336735 C44.1390306,27.9336735 45.0829082,27.5446429 45.8673469,26.7665816 Z" id="形状" fill="#469FFA"></path>
                    <path d="M13,32 L13,35 C13,37.7614237 10.7614237,40 8,40 C5.23857625,40 3,37.7614237 3,35 L3,32" id="路径" fill="#9FCEFF"></path>
                    <path d="M48,32 L48,35 C48,37.7614237 45.7614237,40 43,40 C40.2385763,40 38,37.7614237 38,35 L38,32" id="路径" fill="#9FCEFF"></path>
                </g>
            </g>
        </g>
    </g>
</svg>