<?xml version="1.0" encoding="UTF-8"?>
<svg width="38px" height="42px" viewBox="0 0 38 42" version="1.1" xmlns="http://www.w3.org/2000/svg" xmlns:xlink="http://www.w3.org/1999/xlink">
    <!-- Generator: Sketch 54.1 (76490) - https://sketchapp.com -->
    <title>编组</title>
    <desc>Created with Sketch.</desc>
    <g id="页面1" stroke="none" stroke-width="1" fill="none" fill-rule="evenodd">
        <g id="首页" transform="translate(-169.000000, -321.000000)">
            <rect id="矩形复制" x="0" y="0" width="375" height="375"></rect>
            <g id="编组" transform="translate(169.000000, 321.000000)">
                <path d="M21,13 L31,13 C36.561035,13 38,14.5725702 38,20 L38,42 L21,42 L0,42 L0,7 C0,2.18553775 1.47159199,0 7,0 L14,0 C19.8277541,0 21,1.7181992 21,7 L21,13 Z" id="形状结合" fill="#2596D9"></path>
                <rect id="矩形复制-3" stroke="#FFFFFF" stroke-width="2" x="7" y="34" width="10" height="1" rx="0.5"></rect>
                <rect id="矩形复制-12" stroke="#FFFFFF" stroke-width="2" x="6" y="34" width="10" height="1" rx="0.5"></rect>
                <rect id="矩形复制-13" stroke="#FFFFFF" stroke-width="2" x="23" y="34" width="10" height="1" rx="0.5"></rect>
                <rect id="矩形复制-6" stroke="#FFFFFF" stroke-width="2" x="6" y="18" width="10" height="1" rx="0.5"></rect>
                <rect id="矩形复制-15" stroke="#FFFFFF" stroke-width="2" x="6" y="10" width="10" height="1" rx="0.5"></rect>
                <rect id="矩形复制-7" stroke="#FFFFFF" stroke-width="2" x="23" y="18" width="10" height="1" rx="0.5"></rect>
                <rect id="矩形复制-8" stroke="#FFFFFF" stroke-width="2" x="6" y="26" width="10" height="1" rx="0.5"></rect>
                <rect id="矩形复制-14" stroke="#FFFFFF" stroke-width="2" x="23" y="26" width="10" height="1" rx="0.5"></rect>
            </g>
        </g>
    </g>
</svg>