<?xml version="1.0" encoding="UTF-8"?>
<svg width="41px" height="49px" viewBox="0 0 41 49" version="1.1" xmlns="http://www.w3.org/2000/svg" xmlns:xlink="http://www.w3.org/1999/xlink">
    <!-- Generator: Sketch 55.1 (78136) - https://sketchapp.com -->
    <title>火车票</title>
    <desc>Created with Sketch.</desc>
    <g id="图标" stroke="none" stroke-width="1" fill="none" fill-rule="evenodd">
        <g id="画板" transform="translate(-223.000000, -164.000000)">
            <g id="火车票" transform="translate(214.000000, 159.000000)">
                <rect id="矩形" fill="#FFFFFF" opacity="0" x="0" y="0" width="60" height="60"></rect>
                <g id="编组" transform="translate(9.000000, 5.000000)" fill-rule="nonzero">
                    <path d="M11.5499255,43.6484724 L29.0461997,43.6484724 C29.5827124,43.6484724 30.0298063,44.254533 30.0298063,44.9818058 L30.0298063,46.3151391 C30.0298063,47.0424118 29.5827124,47.6484724 29.0461997,47.6484724 L11.5499255,47.6484724 C11.0134128,47.6484724 10.5663189,47.0424118 10.5663189,46.3151391 L10.5663189,44.9818058 C10.5663189,44.254533 11.0134128,43.6484724 11.5499255,43.6484724 Z" id="路径" fill="#9FCEFF"></path>
                    <path d="M5.32786885,35.2459016 C6.4595999,35.2459016 7.37704918,36.1633509 7.37704918,37.295082 L7.37704918,47.1311475 C7.37704918,48.2628786 6.4595999,49.1803279 5.32786885,49.1803279 C4.19613781,49.1803279 3.27868852,48.2628786 3.27868852,47.1311475 L3.27868852,37.295082 C3.27868852,36.1633509 4.19613781,35.2459016 5.32786885,35.2459016 Z" id="矩形" fill="#9FCEFF" transform="translate(5.327869, 42.213115) rotate(30.000000) translate(-5.327869, -42.213115) "></path>
                    <path d="M35.6557377,35.2459016 C36.7874687,35.2459016 37.704918,36.1633509 37.704918,37.295082 L37.704918,47.1311475 C37.704918,48.2628786 36.7874687,49.1803279 35.6557377,49.1803279 C34.5240067,49.1803279 33.6065574,48.2628786 33.6065574,47.1311475 L33.6065574,37.295082 C33.6065574,36.1633509 34.5240067,35.2459016 35.6557377,35.2459016 Z" id="矩形" fill="#9FCEFF" transform="translate(35.655738, 42.213115) rotate(-30.000000) translate(-35.655738, -42.213115) "></path>
                    <path d="M32.3248882,40.608234 C31.9970194,40.6678465 31.6393443,40.6976528 31.3114754,40.6976528 L9.31445604,40.6976528 C8.95678092,40.6976528 8.62891207,40.6678465 8.30104322,40.608234 L4.84351714,39.2073398 C2.87630402,37.7766393 1.68405365,35.3921386 1.86289121,32.7393815 L3.26378539,11.3980999 C3.50223547,7.82134873 5.76751118,4.9897541 9.61251863,4.9897541 L15.4545455,4.9897541 C15.4545455,2.24757824 17.6304024,0.0419150522 20.3129657,0.0419150522 C22.9955291,0.0419150522 25.171386,2.24757824 25.171386,4.9897541 L31.9672131,4.9897541 C35.8420268,4.9897541 37.0938897,7.82134873 37.3323398,11.3980999 L38.733234,32.7393815 C38.9120715,35.3921386 37.7198212,37.7766393 35.752608,39.2073398 L32.3248882,40.608234 Z M33.90462,11.9644188 C33.90462,10.8615872 33.0402385,9.9673994 31.9672131,9.9673994 L8.62891207,9.9673994 C7.55588674,9.9673994 6.69150522,10.8615872 6.69150522,11.9644188 L6.69150522,19.8928838 C6.69150522,20.9957154 7.55588674,21.8899031 8.62891207,21.8899031 L31.9672131,21.8899031 C33.0402385,21.8899031 33.90462,20.9957154 33.90462,19.8928838 L33.90462,11.9644188 Z M9.58271237,30.8019747 C11.1922504,30.8019747 12.5037258,29.460693 12.5037258,27.8213487 C12.5037258,26.1820045 11.1922504,24.8407228 9.58271237,24.8407228 C7.97317437,24.8407228 6.66169896,26.1820045 6.66169896,27.8213487 C6.69150522,29.460693 7.97317437,30.8019747 9.58271237,30.8019747 Z M30.9836066,24.8407228 C29.3740686,24.8407228 28.0625931,26.1820045 28.0625931,27.8213487 C28.0625931,29.460693 29.3740686,30.8019747 30.9836066,30.8019747 C32.5931446,30.8019747 33.90462,29.460693 33.90462,27.8213487 C33.90462,26.1820045 32.5931446,24.8407228 30.9836066,24.8407228 Z" id="形状结合" fill="#469FFA"></path>
                </g>
            </g>
        </g>
    </g>
</svg>