<?xml version="1.0" encoding="UTF-8"?>
<svg width="43px" height="50px" viewBox="0 0 43 50" version="1.1" xmlns="http://www.w3.org/2000/svg" xmlns:xlink="http://www.w3.org/1999/xlink">
    <!-- Generator: Sketch 55.1 (78136) - https://sketchapp.com -->
    <title>国内酒店</title>
    <desc>Created with Sketch.</desc>
    <g id="图标" stroke="none" stroke-width="1" fill="none" fill-rule="evenodd">
        <g id="画板" transform="translate(-55.000000, -244.000000)">
            <g id="国内酒店" transform="translate(47.000000, 239.000000)">
                <rect id="矩形" fill="#5A3F3F" opacity="0" x="0" y="0" width="60" height="60"></rect>
                <g id="编组" transform="translate(8.000000, 5.000000)" fill-rule="nonzero">
                    <path d="M25.0457103,8.3609599 C25.3966063,9.00546275 25.3966063,49.9750125 25.0457103,49.9750125 C19.9301567,49.9750125 12.0229529,49.9750125 1.32409874,49.9750125 C0.605009644,49.9750125 0.0220727527,49.3920756 0.0220727527,48.6729865 L0.0220727527,1.30202599 C0.0220727527,0.582936891 0.605009644,0 1.32409874,0 L23.7436843,0 C24.4627734,0 25.0457103,0.582936891 25.0457103,1.30202599 L25.0457103,8.3609599 Z M20.8199849,8.45665878 L4.18790492,8.45665878 L4.18790492,12.5723629 L20.8199849,12.5723629 L20.8199849,8.45665878 Z M4.18790492,25.002154 L4.18790492,29.2337385 L16.8826583,29.2337385 L16.8826583,25.002154 L4.18790492,25.002154 Z M4.18790492,16.6743958 L4.18790492,20.9059803 L20.8160788,20.9059803 L20.8160788,16.6743958 L4.18790492,16.6743958 Z" id="形状结合" fill="#469FFA"></path>
                    <path d="M24.9875062,49.9750125 L25.1746412,8.29926841 C25.5255373,8.94377125 30.8850205,16.2219418 41.7432662,16.7388461 C42.436827,16.7725234 42.982144,17.3445412 42.982144,18.0389191 L42.982144,48.6729865 C42.982144,49.3920756 42.3992071,49.9750125 41.680118,49.9750125 C34.2611794,49.9750125 28.6969755,49.9750125 24.9875062,49.9750125 Z M30.5497488,44.5117114 L30.5503999,19.5857259 C30.5505349,19.0973043 30.2773089,18.6498873 29.8427487,18.4269228 L26.3832656,16.6529124 L26.3832656,45.8137374 L29.2477228,45.8137374 C29.9668119,45.8137374 30.5497488,45.2308005 30.5497488,44.5117114 Z M38.8996415,36.1891613 L38.9009435,23.347279 C38.900893,22.8108882 38.5719025,22.3294199 38.072204,22.1344418 L34.7331583,20.8324158 L34.7331583,37.4911873 L37.5976155,37.4911873 C38.3167046,37.4911873 38.8996415,36.9082504 38.8996415,36.1891613 Z" id="形状结合" fill="#9FCEFF"></path>
                </g>
            </g>
        </g>
    </g>
</svg>