<?xml version="1.0" encoding="UTF-8"?>
<svg width="38px" height="42px" viewBox="0 0 38 42" version="1.1" xmlns="http://www.w3.org/2000/svg" xmlns:xlink="http://www.w3.org/1999/xlink">
    <!-- Generator: Sketch 58 (84663) - https://sketch.com -->
    <title>编组</title>
    <desc>Created with Sketch.</desc>
    <g id="页面1" stroke="none" stroke-width="1" fill="none" fill-rule="evenodd">
        <g id="首页" transform="translate(-171.000000, -320.000000)" fill="#2596D9">
            <g id="编组" transform="translate(171.000000, 320.000000)">
                <path d="M14,0 C19.8277541,0 21,1.7181992 21,7 L21,13 L31,13 C36.561035,13 38,14.5725702 38,20 L38,42 L0,42 L0,7 C0,2.18553775 1.47159199,0 7,0 L14,0 Z M17,33 L6,33 C5.44771525,33 5,33.4477153 5,34 C5,34.5128358 5.38604019,34.9355072 5.88337887,34.9932723 L6,35 L17,35 C17.5522847,35 18,34.5522847 18,34 C18,33.4477153 17.5522847,33 17,33 Z M33,33 L23,33 C22.4477153,33 22,33.4477153 22,34 C22,34.5128358 22.3860402,34.9355072 22.8833789,34.9932723 L23,35 L33,35 C33.5522847,35 34,34.5522847 34,34 C34,33.4477153 33.5522847,33 33,33 Z M16,25 L6,25 C5.44771525,25 5,25.4477153 5,26 C5,26.5128358 5.38604019,26.9355072 5.88337887,26.9932723 L6,27 L16,27 C16.5522847,27 17,26.5522847 17,26 C17,25.4477153 16.5522847,25 16,25 Z M33,25 L23,25 C22.4477153,25 22,25.4477153 22,26 C22,26.5522847 22.4477153,27 23,27 L23,27 L33,27 C33.5522847,27 34,26.5522847 34,26 C34,25.4477153 33.5522847,25 33,25 L33,25 Z M16,17 L6,17 C5.44771525,17 5,17.4477153 5,18 C5,18.5128358 5.38604019,18.9355072 5.88337887,18.9932723 L6,19 L16,19 C16.5522847,19 17,18.5522847 17,18 C17,17.4477153 16.5522847,17 16,17 Z M33,17 L23,17 C22.4477153,17 22,17.4477153 22,18 C22,18.5128358 22.3860402,18.9355072 22.8833789,18.9932723 L23,19 L33,19 C33.5522847,19 34,18.5522847 34,18 C34,17.4477153 33.5522847,17 33,17 Z M16,9 L6,9 C5.44771525,9 5,9.44771525 5,10 C5,10.5128358 5.38604019,10.9355072 5.88337887,10.9932723 L6,11 L16,11 C16.5522847,11 17,10.5522847 17,10 C17,9.44771525 16.5522847,9 16,9 Z" id="形状结合"></path>
            </g>
        </g>
    </g>
</svg>