<?xml version="1.0" encoding="UTF-8"?>
<svg width="42px" height="32px" viewBox="0 0 42 32" version="1.1" xmlns="http://www.w3.org/2000/svg" xmlns:xlink="http://www.w3.org/1999/xlink">
    <!-- Generator: Sketch 58 (84663) - https://sketch.com -->
    <title>证件管理</title>
    <desc>Created with Sketch.</desc>
    <g id="页面1" stroke="none" stroke-width="1" fill="none" fill-rule="evenodd">
        <g id="画板" transform="translate(-48.000000, -94.000000)">
            <g id="证件管理" transform="translate(49.000000, 95.000000)">
                <path d="M4,0 L36,0 C38.209139,-4.05812251e-16 40,1.790861 40,4 L40,26 C40,28.209139 38.209139,30 36,30 L4,30 C1.790861,30 2.705415e-16,28.209139 0,26 L0,4 C-2.705415e-16,1.790861 1.790861,4.05812251e-16 4,0 Z" id="矩形" stroke="#179BD4" stroke-width="2"></path>
                <circle id="椭圆形" stroke="#179BD4" stroke-width="2" cx="12.5" cy="11" r="4.5"></circle>
                <path d="M21,25 C21,20.3055796 17.1944204,16.5 12.5,16.5 C7.80557963,16.5 4,20.3055796 4,25" id="路径" stroke="#179BD4" stroke-width="2" stroke-linecap="round"></path>
                <rect id="矩形" fill="#179BD4" x="23" y="9.5" width="14" height="2" rx="1"></rect>
                <rect id="矩形备份" fill="#179BD4" x="23" y="15.5" width="14" height="2" rx="1"></rect>
                <rect id="矩形备份-2" fill="#179BD4" x="23" y="21.5" width="14" height="2" rx="1"></rect>
            </g>
        </g>
    </g>
</svg>