<?xml version="1.0" encoding="UTF-8"?>
<svg width="34px" height="38px" viewBox="0 0 34 38" version="1.1" xmlns="http://www.w3.org/2000/svg" xmlns:xlink="http://www.w3.org/1999/xlink">
    <!-- Generator: Sketch 58 (84663) - https://sketch.com -->
    <title>消息</title>
    <desc>Created with Sketch.</desc>
    <g id="页面1" stroke="none" stroke-width="1" fill="none" fill-rule="evenodd">
        <g id="画板" transform="translate(-52.000000, -284.000000)" fill="#179BD4" fill-rule="nonzero">
            <g id="消息" transform="translate(52.000000, 284.000000)">
                <path d="M17,38 C14.7313944,38 12.4046194,37.6259761 10.2668948,36.8779285 L10.2523524,36.8635429 C9.91787854,36.7340732 9.64157402,36.4895191 9.48160823,36.1730374 C9.32164245,35.8565557 9.3788904,35.5001595 9.48160823,35.2946441 C9.67553733,34.9066355 10.0484306,34.6652605 10.615582,34.6652605 C10.7755478,34.6652605 10.9209712,34.6940315 11.080937,34.7371881 C12.9132723,35.3701516 15.0513259,35.9988375 17,35.9988375 C18.9923011,35.9988375 21.0007699,35.4420792 22.8767323,34.7659592 L22.905817,34.7515736 C23.0657827,34.6940315 23.3884271,34.6652605 23.5483928,34.6652605 C24.1155442,34.6652605 24.3981271,35.0582533 24.4624129,35.1969086 C24.5266986,35.3355639 24.6492729,35.7702425 24.5038495,36.1011097 C24.3438837,36.431977 24.0821215,36.6621455 23.7476476,36.7916153 C21.5372113,37.5972051 19.3413173,38 17,38 Z M18.4687767,3 L18.5414884,3 C21.9007699,3.37402385 24.9982891,4.92766133 27.2668948,7.40197289 C29.5645851,9.89066996 30.8152267,13.0986437 30.8152267,16.4360871 L30.8152267,23.3555282 L31.1206159,23.4706124 C31.9786142,23.8014797 32.691189,24.3625154 33.2147134,25.1105631 C33.7382378,25.8586108 34,26.7217427 34,27.6280312 L34,27.8006576 C34,28.9946568 33.534645,30.1167283 32.6766467,30.9510892 C31.8041061,31.8142211 30.6407186,32.2889437 29.4046193,32.2889437 L4.59538068,32.2889437 C2.05047051,32.2889437 0,30.2605837 0,27.7862721 L0,27.6136457 C0,26.7073572 0.276304523,25.8298397 0.785286564,25.0961776 C1.30881095,24.3481299 2.02138578,23.7870941 2.87938408,23.4562269 L3.18477334,23.3411426 L3.18477334,16.4360871 C3.18477334,13.0986437 4.44995725,9.89066996 6.73310524,7.40197289 C9.01625323,4.92766133 12.1719418,3.37402385 15.5312233,3 M1.78981654,27.7953458 L1.78981654,27.96017 C1.7747678,29.0240356 2.64759479,29.9080929 3.71605542,29.9230769 L30.2688958,29.9230769 C30.780553,29.9080929 31.247064,29.7282846 31.6082338,29.3836521 C31.9844523,29.0240356 32.1951347,28.4995948 32.1951347,27.9751541 L32.2101835,27.8103298 C32.2252322,27.0161766 31.7436725,26.2819595 31.0062842,25.9972631 L28.9295579,25.1881259 L28.9295579,16.1527606 C28.9295579,9.88943935 23.7828884,4.79487179 17.4473684,4.79487179 C11.1118484,4.79487179 5.07044213,9.88943931 5.07044213,16.1527606 L5.07044213,25.1881259 L2.99371584,25.9822791 C2.25632751,26.2819595 1.7747678,27.0161766 1.78981654,27.7953458 Z" id="形状"></path>
                <path d="M16.0009482,3.57004276 C16.0304955,4.15867291 17.0498776,3.89283992 17.5078609,3.87385189 C17.9806179,3.85486382 19,4.27260135 19,3.6839712 L19,1.97504492 C19,1.95605684 19,1.97504492 19,1.97504492 C19,1.95605684 19,1.99403299 19,1.97504492 C18.9704527,0.911713008 18.2908646,-0.0187024312 17.4635399,0.00028564297 C16.6362153,0.0192737171 15.9714009,0.911713008 16.0009482,1.97504492" id="路径"></path>
            </g>
        </g>
    </g>
</svg>