<?xml version="1.0" encoding="UTF-8"?>
<svg width="8px" height="13px" viewBox="0 0 8 13" version="1.1" xmlns="http://www.w3.org/2000/svg" xmlns:xlink="http://www.w3.org/1999/xlink">
    <!-- Generator: Sketch 54.1 (76490) - https://sketchapp.com -->
    <title>手机</title>
    <desc>Created with Sketch.</desc>
    <g id="页面1" stroke="none" stroke-width="1" fill="none" fill-rule="evenodd">
        <g id="手机" fill="#2596D9" fill-rule="nonzero">
            <path d="M6.04399323,13 L1.95600677,13 C0.87715736,13 0,12.0584553 0,10.9004135 L0,4.60165419 C0,4.40114005 0.151607445,4.23840393 0.338409475,4.23840393 C0.525211506,4.23840393 0.676818951,4.40114005 0.676818951,4.60165419 L0.676818951,10.9004135 C0.676818951,11.6574271 1.25076142,12.2734995 1.95600677,12.2734995 L6.04399323,12.2734995 C6.74923858,12.2734995 7.32318105,11.6574271 7.32318105,10.9004135 L7.32318105,2.09958645 C7.32318105,1.34257293 6.74923858,0.726500503 6.04399323,0.726500503 L1.95600677,0.726500503 C1.25076142,0.726500503 0.676818951,1.34257293 0.676818951,2.09958645 L0.676818951,2.64882083 C0.676818951,2.84933497 0.525211506,3.01207109 0.338409475,3.01207109 C0.151607445,3.01207109 0,2.84933497 0,2.64882083 L0,2.09958645 C0,0.941544652 0.87715736,2.84217094e-14 1.95600677,2.84217094e-14 L6.04399323,2.84217094e-14 C7.12284264,2.84217094e-14 8,0.941544652 8,2.09958645 L8,10.9004135 C8,12.0584553 7.12284264,13 6.04399323,13 Z" id="路径"></path>
            <path d="M3.75,11.5 C4.16421356,11.5 4.5,11.1642136 4.5,10.75 C4.50000001,10.4820508 4.35705082,10.2344555 4.12500001,10.1004809 C3.8929492,9.96650635 3.6070508,9.96650635 3.37499999,10.1004809 C3.14294918,10.2344555 2.99999999,10.4820508 3,10.75 C3,11.1642136 3.33578644,11.5 3.75,11.5 Z" id="路径"></path>
            <path d="M7.62818368,9.5 L0.371816323,9.5 C0.166573713,9.5 0,9.276 0,9 C0,8.724 0.166573713,8.5 0.371816323,8.5 L7.62818368,8.5 C7.83342629,8.5 8,8.724 8,9 C8,9.276 7.83342629,9.5 7.62818368,9.5 Z" id="路径"></path>
        </g>
    </g>
</svg>