<?xml version="1.0" encoding="UTF-8"?>
<svg width="36px" height="38px" viewBox="0 0 36 38" version="1.1" xmlns="http://www.w3.org/2000/svg" xmlns:xlink="http://www.w3.org/1999/xlink">
    <!-- Generator: Sketch 58 (84663) - https://sketch.com -->
    <title>我的待办</title>
    <desc>Created with Sketch.</desc>
    <g id="页面1" stroke="none" stroke-width="1" fill="none" fill-rule="evenodd">
        <g id="画板" transform="translate(-51.000000, -137.000000)">
            <g id="我的待办" transform="translate(52.000000, 138.000000)">
                <path d="M4,0 L30,0 C32.209139,-4.05812251e-16 34,1.790861 34,4 L34,32 C34,34.209139 32.209139,36 30,36 L4,36 C1.790861,36 2.705415e-16,34.209139 0,32 L0,4 C-2.705415e-16,1.790861 1.790861,4.05812251e-16 4,0 Z" id="矩形" stroke="#179BD4" stroke-width="2"></path>
                <polygon id="矩形" stroke="#179BD4" stroke-width="2" stroke-linejoin="round" points="17 -2.27318164e-13 28 -2.27318164e-13 28 14 22.5 9.94164648 17 14"></polygon>
                <rect id="矩形" fill="#179BD4" x="5" y="22" width="15" height="2" rx="1"></rect>
                <rect id="矩形备份-3" fill="#179BD4" x="5" y="28" width="22" height="2" rx="1"></rect>
            </g>
        </g>
    </g>
</svg>