<?xml version="1.0" encoding="UTF-8"?>
<svg width="52px" height="48px" viewBox="0 0 52 48" version="1.1" xmlns="http://www.w3.org/2000/svg" xmlns:xlink="http://www.w3.org/1999/xlink">
    <!-- Generator: Sketch 55.1 (78136) - https://sketchapp.com -->
    <title>通知</title>
    <desc>Created with Sketch.</desc>
    <g id="图标" stroke="none" stroke-width="1" fill="none" fill-rule="evenodd">
        <g id="画板" transform="translate(-224.000000, -239.000000)" fill="#2696DA" fill-rule="nonzero">
            <g id="通知" transform="translate(224.000000, 239.000000)">
                <path d="M30.1296415,47.543854 L28.5316901,47.543854 L12.306338,36.112356 C11.918358,35.9484413 11.4899003,35.9055956 11.0771447,35.9894366 L5.79161329,35.9894366 C2.71862995,35.9894366 0.0144045951,32.6706146 0.0144045951,29.8434699 L0.0144045951,17.5515365 C0.0144045951,14.4785532 2.96446859,12.6347631 5.79161329,12.6347631 L10.7083867,12.6347631 C11.2959527,12.5315661 11.8466062,12.2774183 12.306338,11.8972471 L28.5316901,0.219910352 L28.7775288,0.219910352 C30.4414582,-0.215438334 32.2132203,0.14800005 33.5713829,1.20326504 C34.9180194,2.27319936 35.690326,3.90867207 35.6610115,5.62836106 L35.6610115,42.012484 C35.6610115,45.0673753 33.1845328,47.543854 30.1296415,47.543854 Z M29.6379642,45.0854674 C30.5528504,45.2724171 31.503108,45.0332296 32.2204667,44.4354307 C32.9378253,43.8376318 33.3444497,42.9460843 33.3255442,42.012484 L33.3255442,5.62836106 C33.3255442,4.66111711 32.870146,3.75032077 32.0963508,3.1699744 C31.4034337,2.62104459 30.5076816,2.39710656 29.6379642,2.55537771 L13.6584507,13.9868758 C12.7877379,14.7076596 11.7130758,15.1375244 10.5854674,15.2160691 L5.668694,15.2160691 C4.07074268,15.2160691 2.34987195,16.0765045 2.34987195,17.6744558 L2.34987195,29.9663892 C2.34987195,31.6872599 4.07074262,33.6539693 5.668694,33.6539693 L11.0771447,33.6539693 C12.0227645,33.5347718 12.9801597,33.7523616 13.7813701,34.268566 L29.6379642,45.0854674 Z M45.7403969,36.9727913 L44.0195263,35.2519206 C50.903009,28.3684379 50.903009,19.1494879 44.0195263,12.2660051 L45.7403969,10.5451344 C53.6072343,18.4119718 53.6072343,29.1059539 45.7403969,36.9727913 Z" id="形状"></path>
                <path d="M42.5444942,30.8268246 L40.8236236,29.1059539 C42.352849,27.775294 43.2308053,25.8475353 43.2308053,23.8204225 C43.2308053,21.7933098 42.352849,19.865551 40.8236236,18.5348912 L42.5444942,16.8140205 C44.5196725,18.6079231 45.6459068,21.1521992 45.6459068,23.8204225 C45.6459068,26.4886459 44.5196725,29.032922 42.5444942,30.8268246 L42.5444942,30.8268246 Z" id="路径"></path>
            </g>
        </g>
    </g>
</svg>