<?xml version="1.0" standalone="no"?><!DOCTYPE svg PUBLIC "-//W3C//DTD SVG 1.1//EN" "http://www.w3.org/Graphics/SVG/1.1/DTD/svg11.dtd"><svg t="1586762476559" class="icon" viewBox="0 0 1170 1024" version="1.1" xmlns="http://www.w3.org/2000/svg" p-id="2136" xmlns:xlink="http://www.w3.org/1999/xlink" width="73.125" height="64"><defs><style type="text/css"></style></defs><path d="M658.285714 1024l-358.4-292.571429H73.142857c-43.885714 0-73.142857-29.257143-73.142857-73.142857V373.028571c0-36.571429 29.257143-73.142857 73.142857-73.142857L299.885714 292.571429 658.285714 0v1024zM585.142857 153.6L329.142857 365.714286 73.142857 373.028571V658.285714h248.685714L585.142857 870.4V153.6zM804.571429 841.142857c-7.314286 0-21.942857 0-21.942858-7.314286-14.628571-14.628571-14.628571-36.571429 0-51.2 65.828571-65.828571 95.085714-138.971429 95.085715-226.742857 0-87.771429-29.257143-160.914286-95.085715-234.057143-14.628571-14.628571-14.628571-36.571429 0-51.2 14.628571-14.628571 36.571429-14.628571 51.2 0 73.142857 80.457143 117.028571 175.542857 117.028572 277.942858s-36.571429 197.485714-117.028572 277.942857c-7.314286 7.314286-21.942857 14.628571-29.257142 14.628571z" fill="#2596d9" p-id="2137"></path><path d="M950.857143 987.428571c-7.314286 0-14.628571 0-21.942857-7.314285-14.628571-14.628571-14.628571-36.571429 0-51.2 95.085714-109.714286 146.285714-234.057143 146.285714-373.028572 0-138.971429-51.2-270.628571-146.285714-380.342857-14.628571-14.628571-14.628571-36.571429 7.314285-51.2 14.628571-14.628571 36.571429-14.628571 51.2 7.314286 109.714286 124.342857 160.914286 270.628571 160.914286 424.228571 0 160.914286-58.514286 299.885714-160.914286 424.228572-14.628571 0-29.257143 7.314286-36.571428 7.314285z" fill="#2596d9" p-id="2138"></path></svg>