<?xml version="1.0" encoding="UTF-8"?>
<svg width="34px" height="17px" viewBox="0 0 34 17" version="1.1" xmlns="http://www.w3.org/2000/svg" xmlns:xlink="http://www.w3.org/1999/xlink">
    <!-- Generator: Sketch 54.1 (76490) - https://sketchapp.com -->
    <title>飞行 旅游 出差 飞机 800</title>
    <desc>Created with Sketch.</desc>
    <g id="页面1" stroke="none" stroke-width="1" fill="none" fill-rule="evenodd">
        <g id="机票查询" transform="translate(-298.000000, -463.000000)" fill="#2596D9" fill-rule="nonzero">
            <g id="飞行-旅游-出差-飞机-800" transform="translate(298.000000, 463.000000)">
                <path d="M29.4508477,11.2355123 C27.7904028,11.7460913 10.906017,16.7115695 10.906017,16.7115695 C10.906017,16.7115695 6.23146191,18.3017698 2.77252121,14.0144652 L6.61110175,12.3930845 C7.27834751,12.62304 7.89957633,12.6035522 8.72404668,12.3346213 L13.0879874,11.2355123 L6.54207632,1.38250682 C6.54207632,1.38250682 5.21525428,-0.757247936 9.81311448,0.287295367 C9.81311448,0.287295367 18.1306781,6.76112531 19.6300637,7.94987795 C19.6300637,7.94987795 20.3970129,8.39419861 21.8120341,7.94987795 L28.3579451,5.75945506 C28.3579451,5.75945506 32.7909113,4.38362004 33.8109537,6.85466651 C34.8846825,9.44653701 31.1074579,10.7249333 29.4508477,11.2355123 Z M2.03625002,13.2232626 C0.325953392,11.2822829 0,10.1403008 0,10.1403008 C0,10.1403008 0.352796613,7.76669312 3.27103816,10.1403008 C4.12235173,10.8340647 5.02735173,11.3095657 5.6025636,11.6993207 L2.03625002,13.2232626 Z" id="形状"></path>
            </g>
        </g>
    </g>
</svg>