<?xml version="1.0" encoding="UTF-8"?>
<svg width="58px" height="49px" viewBox="0 0 58 49" version="1.1" xmlns="http://www.w3.org/2000/svg" xmlns:xlink="http://www.w3.org/1999/xlink">
    <!-- Generator: Sketch 55.1 (78136) - https://sketchapp.com -->
    <title>国际机票</title>
    <desc>Created with Sketch.</desc>
    <g id="图标" stroke="none" stroke-width="1" fill="none" fill-rule="evenodd">
        <g id="画板" transform="translate(-33.000000, -169.000000)">
            <g id="国际机票" transform="translate(30.000000, 159.000000)">
                <rect id="矩形" fill="#FFFFFF" opacity="0" x="2" y="0" width="60" height="60"></rect>
                <g transform="translate(0.000000, 1.000000)" fill-rule="nonzero" id="形状">
                    <path d="M53.194446,23.5454545 C52.0632141,24.2615142 50.847085,25.0264995 49.5098193,25.856951 C53.1225563,28.0833361 55.7118157,31.8562859 56.4311406,36.2796686 L50.6051867,36.2796686 C50.3501737,32.5460627 49.5916119,29.1949228 48.5127315,26.4747846 C48.0877634,26.7397005 47.6823335,26.9915552 47.2377203,27.2661598 C46.6623353,27.6223964 46.1000114,27.9624672 45.5311034,28.3089615 C46.2210408,30.5386654 46.6753964,33.3404891 46.8257598,36.2796686 L37.0570616,36.2796686 C37.1158366,35.1746124 37.2335473,34.1022091 37.3707961,33.0527698 C36.0599203,33.7818906 34.8077125,34.4651369 33.6076956,35.1092534 C33.5718311,35.5015151 33.512949,35.8774504 33.4836686,36.2796686 L31.4075399,36.2796686 C27.8767025,38.1301183 25.0780371,39.5032485 23.3845884,40.3174271 C24.1561578,50.1385304 32.1660482,57.8672321 41.9544986,57.8672321 C42.0133807,57.8672321 42.0688369,57.8605409 42.1278261,57.8605409 C42.1702212,57.8605409 42.2159886,57.873602 42.2618096,57.873602 C42.3794667,57.873602 42.5003356,57.844268 42.621365,57.8343651 C52.6059464,57.4715979 60.6028827,49.0856652 60.6028827,38.7643853 C60.6028827,32.5426369 57.6865601,27.0338968 53.194446,23.5454545 Z M27.3535084,39.8529011 L33.3953455,39.8529011 C33.506472,44.9303031 34.5657607,49.3831268 36.1645163,52.574054 C31.2505923,50.413028 27.7620965,45.5711007 27.3535084,39.8529011 Z M41.9641339,53.7934484 C39.0708289,53.7934484 37.2204326,46.8003981 37.0145059,39.8529011 L46.8715273,39.8529011 C46.6688659,46.8003981 44.8575994,53.7934484 41.9641339,53.7934484 Z M48.2611445,52.3223599 C49.696315,49.1477056 50.6051867,44.7995313 50.7031986,39.8529011 L56.5618588,39.8529011 C56.1695971,45.3683858 52.903622,50.0566308 48.2611445,52.3223599 Z" fill="#9FCEFF"></path>
                    <path d="M49.4400438,26.5079949 C46.804086,27.4383926 20.0001087,36.4866881 20.0001087,36.4866881 C20.0001087,36.4866881 12.5792484,39.3844154 7.08817693,31.5719154 L13.1819269,28.6173699 C14.2411802,29.036404 15.2273815,29.0008926 16.5362289,28.5108358 L23.4639886,26.5079949 L13.072349,8.55344946 C13.072349,8.55344946 10.9660178,4.65430174 18.265125,6.55771083 C18.265125,6.55771083 31.4692646,18.3545858 33.8495406,20.520779 C33.8495406,20.520779 35.067073,21.3304381 37.3134204,20.520779 C43.0605976,18.3407294 46.5244775,17.0102369 47.70506,16.5293017 C49.4759339,15.8078989 59.4713035,16.1067759 61.0634034,21.8532089 C61.299875,22.7067161 52.0699139,25.5775972 49.4400438,26.5079949 Z M5.91934576,30.130154 C3.20424836,26.5932222 2.68679706,24.5122563 2.68679706,24.5122563 C2.68679706,24.5122563 3.246862,20.1869722 7.87957303,24.5122563 C9.23103407,25.7764608 10.6677224,26.6429381 11.5808717,27.3531654 L5.91934576,30.130154 Z" fill="#469FFA" transform="translate(31.877331, 21.523234) rotate(-11.000000) translate(-31.877331, -21.523234) "></path>
                </g>
            </g>
        </g>
    </g>
</svg>