<?xml version="1.0" encoding="UTF-8"?>
<svg width="29px" height="26px" viewBox="0 0 29 26" version="1.1" xmlns="http://www.w3.org/2000/svg" xmlns:xlink="http://www.w3.org/1999/xlink">
    <!-- Generator: Sketch 58 (84663) - https://sketch.com -->
    <title>形状结合</title>
    <desc>Created with Sketch.</desc>
    <g id="页面1" stroke="none" stroke-width="1" fill="none" fill-rule="evenodd">
        <path d="M27.1917262,21.383594 C26.2776314,23.0751455 25.0371212,24.5644002 23.554603,25.7669508 C22.6159193,25.3554897 21.9639363,24.4423942 21.9639363,23.3817982 L21.9639363,23.3817982 L21.9639363,21.9504241 C23.2085384,21.8171924 24.7356868,21.6530546 26.288835,21.482736 Z M6.88249683,21.5114774 L6.88249683,23.3817982 C6.88249683,24.4340892 6.22236679,25.3411806 5.28640875,25.7572723 C4.00260707,24.7133726 2.90052275,23.4541614 2.03550568,22.0346313 C3.32441798,21.8967891 5.07614994,21.709011 6.88249683,21.5114774 L6.88249683,21.5114774 Z M14.4296556,3.05823925e-07 C18.7083209,0.000869614501 22.553927,1.85494591 25.2074764,4.80323186 L26.3646387,8.93061224 C26.6414445,9.56210135 26.9124836,10.2245449 27.1751932,10.9334223 C29.1769106,11.8769408 28.8193698,14.0654825 28.832825,15.6417277 C28.8339728,15.7857522 28.8374895,15.9275422 28.8425283,16.0669932 C28.6803768,17.5805012 28.284699,19.0247561 27.6925648,20.3626575 L27.4353399,20.3624157 C27.4359802,20.3692258 27.4359802,20.3778929 27.4366213,20.3871796 L27.4366213,20.3871796 L20.9931934,20.4175159 L20.9931934,20.3630345 L14.4382745,20.3630345 C14.4318667,20.3599392 14.4273814,20.3580814 14.4273814,20.3580814 L14.4273814,20.3580814 L13.3899998,20.3630345 L9.42180715,20.3630345 L9.42180715,20.3816077 L1.40340476,20.419373 C1.4040451,20.3958474 1.40468618,20.3760359 1.40532651,20.3624157 L1.40532651,20.3624157 L1.16072534,20.3626575 C0.572519322,19.0336316 0.178171814,17.5996585 0.0135447165,16.0966001 L0.0182443419,15.9841719 L0.0182443419,15.9841719 L0.0251415724,15.6417277 C0.0379564478,14.0654825 -0.365077785,11.8769408 1.63599855,10.9334223 C1.90127093,10.2183543 2.25304494,9.54971873 2.53177328,8.91327727 L2.53177328,8.91327727 L2.54907347,8.91575378 L3.69382287,4.75015274 C6.34626392,1.83202164 10.1725087,0 14.4266451,0 L14.42,0 Z M22.8289549,13.4921896 C21.598066,13.4921896 20.6016926,14.4561384 20.6016926,15.6454425 C20.6016926,16.8347459 21.598066,17.7986954 22.8289549,17.7986954 C24.0598446,17.7986954 25.0574994,16.8347459 25.0574994,15.6454425 C25.0574994,14.4561384 24.0598446,13.4921896 22.8289549,13.4921896 Z M6.01491463,13.4921896 C4.78402573,13.4921896 3.78637093,14.4561384 3.78637093,15.6454425 C3.78637093,16.8347459 4.78402573,17.7986954 6.01491463,17.7986954 C7.24580431,17.7986954 8.24345911,16.8347459 8.24345911,15.6454425 C8.24345911,14.4561384 7.24580431,13.4921896 6.01491463,13.4921896 Z M14.4395559,3.44347083 C11.8707709,3.44347083 9.53137569,3.69358996 7.72060355,4.10343859 C7.68023572,4.11953529 7.65332458,4.13191718 7.65332458,4.13191718 C7.61680173,4.13191718 7.58348203,4.14058503 7.54695921,4.1449186 C7.45917541,4.16534887 7.36946987,4.18577985 7.28489071,4.20682889 C6.80047975,4.3925612 6.44742432,4.92561163 6.44742432,5.56205382 L6.44742432,5.56205382 L5.80979917,9.4463284 C5.79449541,10.9897607 8.15823889,10.409039 9.76589194,10.409039 L9.76589194,10.409039 L19.0459401,10.409039 C20.6574382,10.409039 23.0865389,10.9922373 23.0609084,9.43642231 L23.0609084,9.43642231 L23.0679565,9.43518405 L22.4329689,5.56205382 C22.4329689,4.92561163 22.0799134,4.3925612 21.5942211,4.20682889 C21.5096419,4.18577985 21.4199356,4.16534887 21.3321526,4.1449186 C21.2969111,4.14058503 21.26231,4.13191718 21.2257872,4.13191718 C21.2257872,4.13191718 21.184779,4.11705875 21.1264707,4.09539021 C19.3182614,3.68987516 16.9916811,3.44347083 14.4395559,3.44347083 Z" id="形状结合" fill="#429ADB" fill-rule="nonzero"></path>
    </g>
</svg>