<?xml version="1.0" encoding="UTF-8"?>
<svg width="110px" height="112px" viewBox="0 0 110 112" version="1.1" xmlns="http://www.w3.org/2000/svg" xmlns:xlink="http://www.w3.org/1999/xlink">
    <!-- Generator: Sketch 53.2 (72643) - https://sketchapp.com -->
    <title>product-plane</title>
    <desc>Created with Sketch.</desc>
    <defs>
        <rect id="path-1" x="0" y="0" width="128" height="128"></rect>
        <path d="M29,0 C29,3.86599325 32.1340068,7 36,7 C39.8659932,7 43,3.86599325 43,0 L68,0 C70.209139,-4.05812251e-16 72,1.790861 72,4 L72,90 L0,90 L0,4 C-2.705415e-16,1.790861 1.790861,4.05812251e-16 4,0 L29,0 Z M18.6720326,32.6758689 C17.8996031,33.5905213 17.7930209,34.8915699 18.352397,36.5830107 C18.9115512,38.2704001 19.8703469,39.7888451 21.2064802,41.1251922 L25.4630539,45.3788252 L21.2329454,63.747409 C21.1442841,64.0804135 21.2506999,64.377842 21.552581,64.6176053 L24.934859,67.1485505 C25.0547016,67.2550009 25.2276965,67.3040081 25.4363668,67.3040081 C25.5074955,67.3040081 25.565142,67.295128 25.6184608,67.2773122 C25.8847776,67.2194249 26.0666497,67.0820051 26.1732874,66.855451 L33.5368342,53.4552388 L40.3633645,60.2885467 L38.9652571,65.4035514 C38.8764293,65.705531 38.9475026,65.9719901 39.1783105,66.2160824 L41.7127581,68.7602368 C41.8681095,68.9156944 42.0722857,69 42.3119707,69 L42.3696172,69 C42.6359894,68.9690306 42.8447152,68.853478 43.0044497,68.6535643 L48.0022162,62.0069055 L54.6512575,57.0207736 C54.8467229,56.9008364 54.9576882,56.6920981 54.9975802,56.4213099 C55.0153346,56.1904268 54.9353841,55.9729749 54.7578951,55.759852 L52.2277751,53.2022664 C52.0725902,53.0468088 51.8682475,52.9624477 51.6287289,52.9624477 C51.5220913,52.9624477 51.451018,52.9713833 51.4155091,52.9891435 L46.2978446,54.3833779 L39.4667648,47.55007 L52.853675,40.1706347 C53.0977432,40.0329929 53.2488224,39.81987 53.3019193,39.5358727 C53.3331006,39.2470468 53.2620273,39.0207147 53.0624007,38.8254076 L49.6801226,35.4420263 C49.435888,35.2111432 49.1697377,35.1399912 48.885611,35.2289034 L31.335338,39.4248712 L27.1141067,35.2022076 C25.7781399,33.8658605 24.26019,32.9156322 22.5734063,32.3471935 C20.8956664,31.792186 19.5862203,31.9031875 18.6720326,32.6758689 Z" id="path-3"></path>
        <polygon id="path-5" points="0 0 89 0 89 6 0 6"></polygon>
    </defs>
    <g id="Page-2" stroke="none" stroke-width="1" fill="none" fill-rule="evenodd">
        <g id="product-plane" transform="translate(-11.000000, -8.000000)">
            <g id="Mask" fill="#FFFFFF" fill-opacity="0" fill-rule="nonzero">
                <rect id="path-1" x="0" y="0" width="128" height="128"></rect>
            </g>
            <g id="Group-Clipped">
                <mask id="mask-2" fill="white">
                    <use xlink:href="#path-1"></use>
                </mask>
                <g id="path-1"></g>
                <g id="Group" mask="url(#mask-2)">
                    <g transform="translate(11.000000, 8.000000)">
                        <g>
                            <g id="Rectangle" transform="translate(19.000000, 0.000000)">
                                <g id="Combined-Shape" fill="#2596D9" fill-rule="nonzero">
                                    <path d="M29,0 C29,3.86599325 32.1340068,7 36,7 C39.8659932,7 43,3.86599325 43,0 L68,0 C70.209139,-4.05812251e-16 72,1.790861 72,4 L72,90 L0,90 L0,4 C-2.705415e-16,1.790861 1.790861,4.05812251e-16 4,0 L29,0 Z M18.6720326,32.6758689 C17.8996031,33.5905213 17.7930209,34.8915699 18.352397,36.5830107 C18.9115512,38.2704001 19.8703469,39.7888451 21.2064802,41.1251922 L25.4630539,45.3788252 L21.2329454,63.747409 C21.1442841,64.0804135 21.2506999,64.377842 21.552581,64.6176053 L24.934859,67.1485505 C25.0547016,67.2550009 25.2276965,67.3040081 25.4363668,67.3040081 C25.5074955,67.3040081 25.565142,67.295128 25.6184608,67.2773122 C25.8847776,67.2194249 26.0666497,67.0820051 26.1732874,66.855451 L33.5368342,53.4552388 L40.3633645,60.2885467 L38.9652571,65.4035514 C38.8764293,65.705531 38.9475026,65.9719901 39.1783105,66.2160824 L41.7127581,68.7602368 C41.8681095,68.9156944 42.0722857,69 42.3119707,69 L42.3696172,69 C42.6359894,68.9690306 42.8447152,68.853478 43.0044497,68.6535643 L48.0022162,62.0069055 L54.6512575,57.0207736 C54.8467229,56.9008364 54.9576882,56.6920981 54.9975802,56.4213099 C55.0153346,56.1904268 54.9353841,55.9729749 54.7578951,55.759852 L52.2277751,53.2022664 C52.0725902,53.0468088 51.8682475,52.9624477 51.6287289,52.9624477 C51.5220913,52.9624477 51.451018,52.9713833 51.4155091,52.9891435 L46.2978446,54.3833779 L39.4667648,47.55007 L52.853675,40.1706347 C53.0977432,40.0329929 53.2488224,39.81987 53.3019193,39.5358727 C53.3331006,39.2470468 53.2620273,39.0207147 53.0624007,38.8254076 L49.6801226,35.4420263 C49.435888,35.2111432 49.1697377,35.1399912 48.885611,35.2289034 L31.335338,39.4248712 L27.1141067,35.2022076 C25.7781399,33.8658605 24.26019,32.9156322 22.5734063,32.3471935 C20.8956664,31.792186 19.5862203,31.9031875 18.6720326,32.6758689 Z" id="path-3"></path>
                                </g>
                                <g id="Clipped">
                                    <mask id="mask-4" fill="white">
                                        <use xlink:href="#path-3"></use>
                                    </mask>
                                    <g id="path-3"></g>
                                    <g id="Group" stroke-dasharray="6,5" mask="url(#mask-4)">
                                        <g transform="translate(-6.000000, 19.000000)" id="path-5-Clipped">
                                            <g>
                                                <mask id="mask-6" fill="white">
                                                    <use xlink:href="#path-5"></use>
                                                </mask>
                                                <g id="path-5"></g>
                                                <path d="M0,0 L89,0 L89,6 L0,6 L0,0 Z" id="path-5" stroke="#FFFFFF" stroke-width="12" mask="url(#mask-6)"></path>
                                            </g>
                                        </g>
                                    </g>
                                </g>
                            </g>
                            <path d="M110,78 L110,102 C110,107.522847 105.522847,112 100,112 L10,112 C4.4771525,112 0,107.522847 0,102 L0,78 L110,78 Z M24,94 C22.3431458,94 21,95.3431458 21,97 C21,98.6568542 22.3431458,100 24,100 L86,100 C87.6568542,100 89,98.6568542 89,97 C89,95.3431458 87.6568542,94 86,94 L24,94 Z" id="Shape" fill="#2596D9" fill-rule="nonzero"></path>
                        </g>
                    </g>
                </g>
            </g>
        </g>
    </g>
</svg>