<?xml version="1.0" encoding="UTF-8"?>
<svg width="50px" height="50px" viewBox="0 0 50 50" version="1.1" xmlns="http://www.w3.org/2000/svg" xmlns:xlink="http://www.w3.org/1999/xlink">
    <!-- Generator: Sketch 55.1 (78136) - https://sketchapp.com -->
    <title>国际酒店</title>
    <desc>Created with Sketch.</desc>
    <g id="图标" stroke="none" stroke-width="1" fill="none" fill-rule="evenodd">
        <g id="画板" transform="translate(-129.000000, -244.000000)">
            <g id="国际酒店" transform="translate(124.000000, 239.000000)">
                <rect id="矩形" fill="#5A3F3F" opacity="0" x="0" y="0" width="60" height="60"></rect>
                <g id="编组" transform="translate(5.000000, 5.000000)" fill-rule="nonzero">
                    <polygon id="路径" fill="#9FCEFF" points="4.19776119 29.6175373 45.3591418 29.6175373 45.3591418 46.4085821 4.19776119 46.4085821"></polygon>
                    <path d="M9.21175373,0 L40.3451493,0 C40.9891558,0 41.511194,0.522038246 41.511194,1.16604478 L41.511194,46.4085821 L8.04570896,46.4085821 L8.04570896,1.16604478 C8.04570896,0.522038246 8.5677472,0 9.21175373,0 Z M12.1268657,3.49813433 C11.8159204,3.49813433 11.6604478,3.65360697 11.6604478,3.96455224 L11.6604478,10.261194 C11.6604478,10.5721393 11.8159204,10.7276119 12.1268657,10.7276119 L18.1902985,10.7276119 C18.5012438,10.7276119 18.6567164,10.5721393 18.6567164,10.261194 L18.6567164,3.96455224 C18.6567164,3.65360697 18.5012438,3.49813433 18.1902985,3.49813433 L12.1268657,3.49813433 Z M12.1268657,12.3600746 C11.8159204,12.3600746 11.6604478,12.5155473 11.6604478,12.8264925 L11.6604478,19.1231343 C11.6604478,19.4340796 11.8159204,19.5895522 12.1268657,19.5895522 L18.1902985,19.5895522 C18.5012438,19.5895522 18.6567164,19.4340796 18.6567164,19.1231343 L18.6567164,12.8264925 C18.6567164,12.5155473 18.5012438,12.3600746 18.1902985,12.3600746 L12.1268657,12.3600746 Z M12.1268657,21.2220149 C11.8159204,21.2220149 11.6604478,21.3774876 11.6604478,21.6884328 L11.6604478,27.9850746 C11.6604478,28.2960199 11.8159204,28.4514925 12.1268657,28.4514925 L18.1902985,28.4514925 C18.5012438,28.4514925 18.6567164,28.2960199 18.6567164,27.9850746 L18.6567164,21.6884328 C18.6567164,21.3774876 18.5012438,21.2220149 18.1902985,21.2220149 L12.1268657,21.2220149 Z M21.8050373,3.49813433 C21.494092,3.49813433 21.3386194,3.65360697 21.3386194,3.96455224 L21.3386194,10.261194 C21.3386194,10.5721393 21.494092,10.7276119 21.8050373,10.7276119 L27.8684701,10.7276119 C28.1794154,10.7276119 28.3348881,10.5721393 28.3348881,10.261194 L28.3348881,3.96455224 C28.3348881,3.65360697 28.1794154,3.49813433 27.8684701,3.49813433 L21.8050373,3.49813433 Z M21.8050373,21.2220149 C21.494092,21.2220149 21.3386194,21.3774876 21.3386194,21.6884328 L21.3386194,27.9850746 C21.3386194,28.2960199 21.494092,28.4514925 21.8050373,28.4514925 L27.8684701,28.4514925 C28.1794154,28.4514925 28.3348881,28.2960199 28.3348881,27.9850746 L28.3348881,21.6884328 C28.3348881,21.3774876 28.1794154,21.2220149 27.8684701,21.2220149 L21.8050373,21.2220149 Z M31.483209,3.38152985 C31.1722637,3.38152985 31.016791,3.53700249 31.016791,3.84794776 L31.016791,10.1445896 C31.016791,10.4555348 31.1722637,10.6110075 31.483209,10.6110075 L37.5466418,10.6110075 C37.8575871,10.6110075 38.0130597,10.4555348 38.0130597,10.1445896 L38.0130597,3.84794776 C38.0130597,3.53700249 37.8575871,3.38152985 37.5466418,3.38152985 L31.483209,3.38152985 Z M31.483209,12.2434701 C31.1722637,12.2434701 31.016791,12.3989428 31.016791,12.7098881 L31.016791,19.0065299 C31.016791,19.3174751 31.1722637,19.4729478 31.483209,19.4729478 L37.5466418,19.4729478 C37.8575871,19.4729478 38.0130597,19.3174751 38.0130597,19.0065299 L38.0130597,12.7098881 C38.0130597,12.3989428 37.8575871,12.2434701 37.5466418,12.2434701 L31.483209,12.2434701 Z M31.483209,21.1054104 C31.1722637,21.1054104 31.016791,21.2608831 31.016791,21.5718284 L31.016791,27.8684701 C31.016791,28.1794154 31.1722637,28.3348881 31.483209,28.3348881 L37.5466418,28.3348881 C37.8575871,28.3348881 38.0130597,28.1794154 38.0130597,27.8684701 L38.0130597,21.5718284 C38.0130597,21.2608831 37.8575871,21.1054104 37.5466418,21.1054104 L31.483209,21.1054104 Z M10.9608209,31.483209 C10.6498756,31.483209 10.494403,31.6386816 10.494403,31.9496269 L10.494403,35.3311567 C10.494403,35.642102 10.6498756,35.7975746 10.9608209,35.7975746 L14.9253731,35.7975746 C15.2363184,35.7975746 15.391791,35.642102 15.391791,35.3311567 L15.391791,31.9496269 C15.391791,31.6386816 15.2363184,31.483209 14.9253731,31.483209 L10.9608209,31.483209 Z M21.8050373,12.3600746 C21.494092,12.3600746 21.3386194,12.5155473 21.3386194,12.8264925 L21.3386194,19.1231343 C21.3386194,19.4340796 21.494092,19.5895522 21.8050373,19.5895522 L27.8684701,19.5895522 C28.1794154,19.5895522 28.3348881,19.4340796 28.3348881,19.1231343 L28.3348881,12.8264925 C28.3348881,12.5155473 28.1794154,12.3600746 27.8684701,12.3600746 L21.8050373,12.3600746 Z M34.5149254,31.483209 C34.2039801,31.483209 34.0485075,31.6386816 34.0485075,31.9496269 L34.0485075,35.3311567 C34.0485075,35.642102 34.2039801,35.7975746 34.5149254,35.7975746 L38.4794776,35.7975746 C38.7904229,35.7975746 38.9458955,35.642102 38.9458955,35.3311567 L38.9458955,31.9496269 C38.9458955,31.6386816 38.7904229,31.483209 38.4794776,31.483209 L34.5149254,31.483209 Z" id="形状结合" fill="#469FFA"></path>
                    <path d="M17.2574627,31.483209 L23.9039179,31.483209 C24.2148632,31.483209 24.3703358,31.6386816 24.3703358,31.9496269 L24.3703358,45.9421642 C24.3703358,46.2531095 24.2148632,46.4085821 23.9039179,46.4085821 L17.2574627,46.4085821 C16.9465174,46.4085821 16.7910448,46.2531095 16.7910448,45.9421642 L16.7910448,31.9496269 C16.7910448,31.6386816 16.9465174,31.483209 17.2574627,31.483209 Z" id="路径" fill="#FFFFFF"></path>
                    <path d="M25.6529851,31.483209 L32.2994403,31.483209 C32.6103856,31.483209 32.7658582,31.6386816 32.7658582,31.9496269 L32.7658582,45.9421642 C32.7658582,46.2531095 32.6103856,46.4085821 32.2994403,46.4085821 L25.6529851,46.4085821 C25.3420398,46.4085821 25.1865672,46.2531095 25.1865672,45.9421642 L25.1865672,31.9496269 C25.1865672,31.6386816 25.3420398,31.483209 25.6529851,31.483209 Z" id="路径" fill="#FFFFFF"></path>
                    <polygon id="路径" fill="#9FCEFF" points="0 49.4402985 49.4402985 49.4402985 49.4402985 46.4085821 0 46.4085821"></polygon>
                </g>
            </g>
        </g>
    </g>
</svg>