<?xml version="1.0" encoding="UTF-8"?>
<svg width="128px" height="128px" viewBox="0 0 128 128" version="1.1" xmlns="http://www.w3.org/2000/svg" xmlns:xlink="http://www.w3.org/1999/xlink">
    <!-- Generator: Sketch 53.2 (72643) - https://sketchapp.com -->
    <title>酒店</title>
    <desc>Created with Sketch.</desc>
    <defs>
        <rect id="path-1" x="0" y="0" width="128" height="128"></rect>
    </defs>
    <g id="酒店" stroke="none" stroke-width="1" fill="none" fill-rule="evenodd">
        <g>
            <mask id="mask-2" fill="white">
                <use xlink:href="#path-1"></use>
            </mask>
            <use id="Mask" fill-opacity="0" fill="#FFFFFF" xlink:href="#path-1"></use>
            <path d="M111,113 L116,113 C118.209139,113 120,114.790861 120,117 C120,119.209139 118.209139,121 116,121 L12,121 C9.790861,121 8,119.209139 8,117 C8,114.790861 9.790861,113 12,113 L17,113 L17,11 C17,8.790861 18.790861,7 21,7 L60,7 C62.209139,7 64,8.790861 64,11 L64,113 L70,113 L70,41.8019037 C70,40.6973342 70.8954305,39.8019037 72,39.8019037 C72.4045639,39.8019037 72.7996161,39.9245955 73.1330015,40.1537812 L111,66.185442 L111,113 Z M26,31 C24.3431458,31 23,32.3431458 23,34 C23,35.6568542 24.3431458,37 26,37 L54,37 C55.6568542,37 57,35.6568542 57,34 C57,32.3431458 55.6568542,31 54,31 L26,31 Z M26,49 C24.3431458,49 23,50.3431458 23,52 C23,53.6568542 24.3431458,55 26,55 L54,55 C55.6568542,55 57,53.6568542 57,52 C57,50.3431458 55.6568542,49 54,49 L26,49 Z M26,66 C24.3431458,66 23,67.3431458 23,69 C23,70.6568542 24.3431458,72 26,72 L54,72 C55.6568542,72 57,70.6568542 57,69 C57,67.3431458 55.6568542,66 54,66 L26,66 Z M26,84 C24.3431458,84 23,85.3431458 23,87 C23,88.6568542 24.3431458,90 26,90 L54,90 C55.6568542,90 57,88.6568542 57,87 C57,85.3431458 55.6568542,84 54,84 L26,84 Z M81,66 L81,72 L87,72 L87,66 L81,66 Z M95,66 L95,72 L101,72 L101,66 L95,66 Z M81,80 L81,86 L87,86 L87,80 L81,80 Z M95,80 L95,86 L101,86 L101,80 L95,80 Z M81,95 L81,101 L87,101 L87,95 L81,95 Z M95,95 L95,101 L101,101 L101,95 L95,95 Z" id="Shape" fill="#214FFF" mask="url(#mask-2)"></path>
        </g>
    </g>
</svg>