<?xml version="1.0" encoding="UTF-8"?>
<svg width="128px" height="128px" viewBox="0 0 128 128" version="1.1" xmlns="http://www.w3.org/2000/svg" xmlns:xlink="http://www.w3.org/1999/xlink">
    <!-- Generator: Sketch 53.2 (72643) - https://sketchapp.com -->
    <title>保险</title>
    <desc>Created with Sketch.</desc>
    <defs>
        <rect id="path-1" x="5.68434189e-14" y="0" width="128" height="128"></rect>
    </defs>
    <g id="保险" stroke="none" stroke-width="1" fill="none" fill-rule="evenodd">
        <g id="用车" transform="translate(1.000000, 0.000000)">
            <mask id="mask-2" fill="white">
                <use xlink:href="#path-1"></use>
            </mask>
            <use id="Mask" fill-opacity="0" fill="#FFFFFF" xlink:href="#path-1"></use>
            <path d="M13,19.9760604 L63.5,6 L114,19.9760604 L114,61.5161691 C114,91.4100544 92.6342795,117.033117 63.5,122.468468 C34.3657205,116.645357 13,91.0222937 13,61.5161691 L13,19.9760604 Z M45.8169953,29.6576577 C41.8748174,39.7554384 35.5658449,49.8532191 28.4684685,56.4549905 C29.6511535,58.0092748 31.6228756,61.5045045 32.0174733,63.0581651 C34.3836347,60.7274403 36.3547237,58.0092748 38.720252,55.2906415 L38.720252,93.3513514 L45.0293828,93.3513514 L45.0293828,45.9694573 C47.7887174,41.3084754 50.154404,36.6481171 52.1261261,31.5993827 L45.8169953,29.6576577 Z M92.9577423,68.499678 L92.9577423,62.6754519 L73.9994105,62.6754519 L73.9994105,54.9094014 L89.0882005,54.9094014 L89.0882005,32.3873874 L53.1069291,32.3873874 L53.1069291,55.2978599 L67.4227116,55.2978599 L67.4227116,63.0632868 L48.0781091,63.0632868 L48.0781091,68.8876688 L63.9408385,68.8876688 C59.297202,75.8772701 52.720503,82.090734 45.7567568,85.5853009 C47.303859,86.7500526 49.2386299,89.0798677 50.3993061,90.6326102 C56.5894235,86.7500526 62.7790751,80.537368 67.4227116,73.5476108 L67.4227116,93.3513514 L73.9994105,93.3513514 L73.9994105,73.1591524 C78.2553784,80.1489096 84.4462725,86.7500526 90.2493426,90.6326102 C91.4100188,89.0798677 93.3441684,86.7500526 94.8918919,85.5853009 C88.7016191,82.090734 82.123833,75.4888117 77.8677098,68.8882923 L92.9577423,68.8882923 L92.9577423,68.499678 Z M59.4054054,48.7657658 L83.0630631,48.7657658 L83.0630631,37.8468468 L59.4054054,37.8468468 L59.4054054,48.7657658 Z" id="baoxian" fill="#214FFF" mask="url(#mask-2)"></path>
        </g>
    </g>
</svg>