<?xml version="1.0" encoding="UTF-8"?>
<svg width="128px" height="128px" viewBox="0 0 128 128" version="1.1" xmlns="http://www.w3.org/2000/svg" xmlns:xlink="http://www.w3.org/1999/xlink">
    <!-- Generator: Sketch 53.2 (72643) - https://sketchapp.com -->
    <title>更多</title>
    <desc>Created with Sketch.</desc>
    <defs>
        <rect id="path-1" x="0" y="0" width="128" height="128"></rect>
    </defs>
    <g id="更多" stroke="none" stroke-width="1" fill="none" fill-rule="evenodd">
        <g>
            <mask id="mask-2" fill="white">
                <use xlink:href="#path-1"></use>
            </mask>
            <use id="Mask" fill-opacity="0" fill="#FFFFFF" xlink:href="#path-1"></use>
            <path d="M14,14.5630149 L52,14.5630149 C54.209139,14.5630149 56,16.3538759 56,18.5630149 L56,56.5630149 C56,58.7721539 54.209139,60.5630149 52,60.5630149 L14,60.5630149 C11.790861,60.5630149 10,58.7721539 10,56.5630149 L10,18.5630149 C10,16.3538759 11.790861,14.5630149 14,14.5630149 Z M14,74.5630149 L52,74.5630149 C54.209139,74.5630149 56,76.3538759 56,78.5630149 L56,116.563015 C56,118.772154 54.209139,120.563015 52,120.563015 L14,120.563015 C11.790861,120.563015 10,118.772154 10,116.563015 L10,78.5630149 C10,76.3538759 11.790861,74.5630149 14,74.5630149 Z M73,74.5630149 L111,74.5630149 C113.209139,74.5630149 115,76.3538759 115,78.5630149 L115,116.563015 C115,118.772154 113.209139,120.563015 111,120.563015 L73,120.563015 C70.790861,120.563015 69,118.772154 69,116.563015 L69,78.5630149 C69,76.3538759 70.790861,74.5630149 73,74.5630149 Z M86.7997214,8.50225334 L120.03527,26.9250189 C121.967427,27.9960307 122.665522,30.4305797 121.594511,32.3627362 L103.171745,65.5982851 C102.100733,67.5304416 99.6661842,68.2285373 97.7340277,67.1575254 L64.4984788,48.7347599 C62.5663223,47.663748 61.8682266,45.2291991 62.9392385,43.2970426 L81.3620041,10.0614937 C82.4330159,8.12933718 84.8675649,7.4312415 86.7997214,8.50225334 Z M85.8429564,14.9224442 L69.3594293,44.6595142 L99.0964994,61.1430413 L115.580026,31.4059713 L85.8429564,14.9224442 Z" id="Combined-Shape" fill="#214FFF" mask="url(#mask-2)"></path>
        </g>
    </g>
</svg>