<?xml version="1.0" encoding="utf-8"?>
<!-- Generator: Adobe Illustrator 21.0.0, SVG Export Plug-In . SVG Version: 6.00 Build 0)  -->
<svg version="1.1" id="图层_1" xmlns="http://www.w3.org/2000/svg" xmlns:xlink="http://www.w3.org/1999/xlink" x="0px" y="0px"
	 viewBox="0 0 86.8 84.5" style="enable-background:new 0 0 86.8 84.5;" xml:space="preserve">
<style type="text/css">
	.st0{display:none;opacity:0.25;fill:#5099FE;}
	.st1{display:none;fill:#5099FE;}
	.st2{fill:#5099FE;}
</style>
<rect x="14.7" y="13.8" class="st0" width="54" height="54"/>
<path class="st1" d="M66.6,15.5c-1.3-1.1-3.1-1.2-5.5-0.4c-2.4,0.8-4.5,2.1-6.4,4L48.8,25l-24.7-5.9c-0.4-0.1-0.8,0-1.1,0.3
	l-4.7,4.7c-0.3,0.3-0.4,0.6-0.3,1c0.1,0.4,0.3,0.7,0.6,0.9l18.8,10.3L27.8,46l-7.2-2c0,0-0.1,0-0.3,0c-0.3,0-0.6,0.1-0.9,0.3
	l-3.6,3.6c-0.3,0.3-0.4,0.6-0.3,0.9c0,0.4,0.2,0.7,0.5,0.9l9.3,7l7,9.3c0.2,0.3,0.5,0.4,0.9,0.5h0.1c0.3,0,0.6-0.1,0.9-0.3l3.6-3.6
	c0.3-0.3,0.4-0.7,0.3-1.2l-2-7.2l9.6-9.6L56,63.5c0.2,0.3,0.4,0.5,0.8,0.6c0.1,0,0.2,0,0.3,0c0.3,0,0.5-0.1,0.7-0.2l4.7-3.6
	c0.4-0.3,0.6-0.7,0.4-1.2L57,33.3l6-6c1.9-1.9,3.2-4,4-6.4C67.8,18.6,67.6,16.8,66.6,15.5L66.6,15.5z M66.6,15.5"/>
<path class="st1" d="M65.4,61.8h-3.3V29.4c0-0.6-0.5-1.1-1.2-1.1H39.3c-0.6,0-1.2,0.5-1.2,1.1v32.4h-2.3V19c2.5-0.4,4.1-1,4.1-1.7
	c0-1.2-5.3-2.2-11.8-2.2c-6.5,0-11.8,1-11.8,2.2c0,0.7,1.6,1.3,4.1,1.7v42.8h-2.9c-1,0-1.7,0.7-1.7,1.7V64c0,0.9,0.8,1.7,1.7,1.7
	h47.8c1,0,1.7-0.7,1.7-1.7v-0.6C67.1,62.5,66.3,61.8,65.4,61.8z M52.4,34.7h4.4v4.2h-4.4V34.7z M52.4,43.4h4.4v4.2h-4.4V43.4z
	 M52.4,51.7h4.4v4.2h-4.4V51.7z M43.8,34.7h4.4v4.2h-4.4V34.7z M43.8,43.4h4.4v4.2h-4.4V43.4z M43.8,51.7h4.4v4.2h-4.4V51.7z
	 M25.9,22.9h4.5v4.3h-4.5V22.9z M25.9,37h4.5v4.3h-4.5V37z M25.9,50.8h4.5v4.3h-4.5V50.8z"/>
<path class="st2" d="M67.1,35.4c0-1.7-1.4-2.9-2.3-2.9h-3.2c-0.4,0-0.7,0.2-0.9,0.5c-2.6-4.2-4.7-7.9-6.7-8.3c-2-0.4-7-0.4-12.5-0.4
	c-6.4,0-8.7,0.3-10.7,0.4c-2,0.1-5.2,4.2-7.8,8.2c-0.2-0.2-0.5-0.4-0.8-0.4h-3.2c-0.9,0-2.3,1.1-2.3,2.9c0,1,0.7,1.6,2.7,1.5
	c0.4,0,0.7,0,1,0c-1.7,2.6-3,4.7-3,5.6v19l1.2,1.2h6.3l1-0.5V59h33v2.9l0.6,1h5.9l0.9-1.2v-19c0-0.7-1.4-2.9-3.1-5.7
	c0.4,0,0.8,0,1.3,0C66.3,37,67.1,36.4,67.1,35.4L67.1,35.4z M25.6,34.5c0.9-1.8,3.8-6.2,5.5-6.6c1.4-0.4,6.2-0.5,10.9-0.5
	c4.9,0,9.7,0.2,11.2,0.5c1.8,0.4,3.9,4.7,4.8,6.7c0.2,0.5-0.3,1.1-0.8,1.1H26.1C25.6,35.7,25.3,35,25.6,34.5L25.6,34.5z M24,45.2
	c-2.1-0.2-2.4-1.3-1.9-2.5c0.6-1.6,2-1.4,4.1-0.8c3.1,1,5,1.5,5.4,2.4C32.2,45.7,26.1,45.3,24,45.2L24,45.2z M51,54.2h-19
	c-1.2,0-1.9-0.4-1.9-1.2c-0.1-1.7,2.5-4.5,4.3-4.5h15.2c1.5,0,3.5,2.7,3.5,4.2C53.3,53.7,52.7,54.2,51,54.2L51,54.2z M60.3,45.2
	c-2.1,0.2-8.2,0.6-7.5-0.9c0.4-0.9,2.3-1.4,5.4-2.4c2.1-0.6,3.5-0.9,4.1,0.8C62.6,43.9,62.3,45,60.3,45.2L60.3,45.2z M60.3,45.2"/>
</svg>
