<?xml version="1.0" encoding="UTF-8"?>
<svg width="100px" height="119px" viewBox="0 0 100 119" version="1.1" xmlns="http://www.w3.org/2000/svg" xmlns:xlink="http://www.w3.org/1999/xlink">
    <!-- Generator: Sketch 53.2 (72643) - https://sketchapp.com -->
    <title>product-train</title>
    <desc>Created with Sketch.</desc>
    <defs>
        <rect id="path-1" x="0" y="0" width="128" height="128"></rect>
    </defs>
    <g id="Page-2" stroke="none" stroke-width="1" fill="none" fill-rule="evenodd">
        <g id="product-train" transform="translate(-13.000000, -3.000000)">
            <g id="Mask" fill="#FFFFFF" fill-opacity="0" fill-rule="nonzero">
                <rect id="path-1" x="0" y="0" width="128" height="128"></rect>
            </g>
            <g id="Shape-Clipped">
                <mask id="mask-2" fill="white">
                    <use xlink:href="#path-1"></use>
                </mask>
                <g id="path-1"></g>
                <path d="M91.9451218,105.083333 L90.8491303,100.916667 L36.0068955,100.916667 L34.910904,105.083333 L91.9451218,105.083333 L91.9451218,105.083333 Z M94.1371049,113.416667 L32.7189209,113.416667 L30.5226925,121.76614 L21.8576492,121.76614 L27.3821278,100.916667 L22.375,100.916667 C17.1973305,100.916667 13,96.7193362 13,91.5416667 L13,20.7083333 C13,15.5306638 17.1973305,11.3333333 22.375,11.3333333 L46.3333333,11.3333333 L46.3333333,5.08333333 C46.3333333,3.9327401 47.2660734,3 48.4166667,3 L77.5833333,3 C78.7339266,3 79.6666667,3.9327401 79.6666667,5.08333333 L79.6666667,11.3333333 L103.625,11.3333333 C108.80267,11.3333333 113,15.5306638 113,20.7083333 L113,91.5416667 C113,96.7193362 108.80267,100.916667 103.625,100.916667 L99.473898,100.916667 L104.998377,121.76614 L96.3333333,121.76614 L94.1371049,113.416667 L94.1371049,113.416667 Z M73.4166667,28 C72.2660734,28 71.3333333,28.9327401 71.3333333,30.0833333 L71.3333333,55.0833333 C71.3333333,56.2339266 72.2660734,57.1666667 73.4166667,57.1666667 L98.4166667,57.1666667 C99.5672599,57.1666667 100.5,56.2339266 100.5,55.0833333 L100.5,30.0833333 C100.5,28.9327401 99.5672599,28 98.4166667,28 L73.4166667,28 Z M27.5833333,28 C26.4327401,28 25.5,28.9327401 25.5,30.0833333 L25.5,55.0833333 C25.5,56.2339266 26.4327401,57.1666667 27.5833333,57.1666667 L52.5833333,57.1666667 C53.7339266,57.1666667 54.6666667,56.2339266 54.6666667,55.0833333 L54.6666667,30.0833333 C54.6666667,28.9327401 53.7339266,28 52.5833333,28 L27.5833333,28 Z M82.7916667,67.5833333 L82.7916667,75.9166667 C82.7916667,77.6425565 84.1907768,79.0416667 85.9166667,79.0416667 L85.9166667,79.0416667 C87.6425565,79.0416667 89.0416667,77.6425565 89.0416667,75.9166667 L89.0416667,67.5833333 C89.0416667,65.8574435 87.6425565,64.4583333 85.9166667,64.4583333 L85.9166667,64.4583333 C84.1907768,64.4583333 82.7916667,65.8574435 82.7916667,67.5833333 Z M36.9583333,67.5833333 L36.9583333,75.9166667 C36.9583333,77.6425565 38.3574435,79.0416667 40.0833333,79.0416667 L40.0833333,79.0416667 C41.8092232,79.0416667 43.2083333,77.6425565 43.2083333,75.9166667 L43.2083333,67.5833333 C43.2083333,65.8574435 41.8092232,64.4583333 40.0833333,64.4583333 L40.0833333,64.4583333 C38.3574435,64.4583333 36.9583333,65.8574435 36.9583333,67.5833333 Z" id="Shape" fill="#2596D9" fill-rule="nonzero" mask="url(#mask-2)"></path>
            </g>
        </g>
    </g>
</svg>