<?xml version="1.0" standalone="no"?><!DOCTYPE svg PUBLIC "-//W3C//DTD SVG 1.1//EN" "http://www.w3.org/Graphics/SVG/1.1/DTD/svg11.dtd"><svg t="1559797488729" class="icon" style="" viewBox="0 0 1024 1024" version="1.1" xmlns="http://www.w3.org/2000/svg" p-id="27936" xmlns:xlink="http://www.w3.org/1999/xlink" width="64" height="64"><defs><style type="text/css"></style></defs><path d="M326 914L170 914c-36 0-60-30-60-60l0-156c0-12-12-24-24-24s-24 12-24 24l0 156c0 60 48 108 108 108l156 0c12 0 24-12 24-24C350 926 338 914 326 914z" fill="#1296db" p-id="27937"></path><path d="M938 674c-12 0-24 12-24 24l0 156c0 36-30 60-60 60l-156 0c-12 0-24 12-24 24 0 12 12 24 24 24l156 0c60 0 108-48 108-108l0-156C962 686 950 674 938 674z" fill="#1296db" p-id="27938"></path><path d="M854 62l-156 0c-12 0-24 12-24 24s12 24 24 24l156 0c36 0 60 30 60 60l0 156c0 12 12 24 24 24 12 0 24-12 24-24L962 170C962 110 914 62 854 62z" fill="#1296db" p-id="27939"></path><path d="M86 350c12 0 24-12 24-24L110 170c0-36 30-60 60-60l156 0c12 0 24-12 24-24S338 62 326 62L170 62c-60 0-108 48-108 108l0 156C62 338 74 350 86 350z" fill="#1296db" p-id="27940"></path><path d="M938 488L86 488C74 488 62 500 62 512s12 24 24 24l852 0c12 0 24-12 24-24S950 488 938 488z" fill="#1296db" p-id="27941"></path></svg>