<?xml version="1.0" encoding="UTF-8"?>
<svg width="38px" height="36px" viewBox="0 0 38 36" version="1.1" xmlns="http://www.w3.org/2000/svg" xmlns:xlink="http://www.w3.org/1999/xlink">
    <!-- Generator: Sketch 58 (84663) - https://sketch.com -->
    <title>设置</title>
    <desc>Created with Sketch.</desc>
    <g id="页面1" stroke="none" stroke-width="1" fill="none" fill-rule="evenodd">
        <g id="画板" transform="translate(-50.000000, -188.000000)" fill="#179BD4" fill-rule="nonzero">
            <g id="设置" transform="translate(50.000000, 188.000000)">
                <path d="M23.4494929,0.274799038 C23.6773395,0.0584679805 23.9936057,-0.0381946565 24.303453,0.0137972348 L24.4344469,0.0437974655 L24.6964347,0.125798016 C27.1312255,0.87914776 29.3900609,2.11353159 31.3391246,3.75582308 L31.7231066,4.08882538 L31.9260972,4.26982665 C32.1702918,4.48680284 32.2931186,4.8093806 32.2550818,5.13383262 L32.2330828,5.25383344 L32.1690858,5.51583527 C31.7900253,7.06303918 32.031199,8.69715025 32.8410545,10.0688667 C33.6107347,11.3810919 34.8305585,12.369298 36.2738942,12.8498859 L36.5468815,12.9348865 L36.8098692,13.010887 C37.1210902,13.1004845 37.3696489,13.3352676 37.476838,13.6408914 L37.5098365,13.7568922 L37.5678338,14.020894 C38.1023468,16.4552042 38.1414549,18.9722023 37.6828284,21.4219451 L37.5688337,21.979949 L37.5108364,22.2449508 C37.4413636,22.5612982 37.2229885,22.824406 36.9248638,22.9509557 L36.8108691,22.990956 L36.5468815,23.0669565 C34.9885904,23.5087247 33.6610124,24.5350913 32.8410545,25.9319763 C32.0834688,27.2158226 31.8220311,28.7325982 32.1060888,30.1960057 L32.1690858,30.4860077 L32.2330828,30.7480096 C32.3098681,31.0648471 32.2273973,31.3992265 32.0120931,31.6440158 L31.9260972,31.7310164 L31.7221067,31.9120176 C29.8190967,33.6053752 27.5956357,34.8996015 25.1834119,35.7180439 L24.6974346,35.875045 L24.4394466,35.9550455 C24.1428204,36.0471197 23.8202527,35.9961268 23.5664874,35.8170446 L23.4634922,35.733044 L23.2665014,35.5500427 C22.0854209,34.454487 20.5326169,33.8479854 18.9217042,33.853031 C17.4275222,33.8488451 15.9794525,34.3702631 14.8308952,35.3260412 L14.6079056,35.5200425 L14.4099149,35.7010438 C14.1809051,35.9105125 13.8676211,36.0017688 13.5619545,35.9480455 L13.4329605,35.9160453 L13.1759725,35.8350447 C10.7299813,35.0597712 8.46603788,33.7978 6.52028318,32.1250191 L6.13630109,31.7870168 L5.94031024,31.6090155 C5.70449292,31.3947345 5.58490534,31.0808931 5.61832528,30.7640097 L5.63832435,30.6470089 L5.69532168,30.3910071 C6.0429808,28.8707305 5.79499551,27.2750224 5.00235403,25.9319763 C4.25900631,24.6643685 3.09437922,23.6978638 1.71150768,23.2009574 L1.4325207,23.1069568 L1.17853255,23.0269562 C0.877107318,22.9332091 0.63764397,22.7026299 0.532562712,22.4049519 L0.500564179,22.2899511 L0.443566851,22.0339494 C-0.105440637,19.5672743 -0.145251256,17.0144942 0.326572313,14.5318976 L0.442566913,13.9658936 L0.499564241,13.7088919 C0.568450358,13.4004919 0.779042965,13.1427987 1.06753771,13.0138871 L1.17753258,12.9718867 L1.4325207,12.8918862 C2.93373351,12.4301196 4.20741978,11.4225333 5.00235403,10.0678667 C5.74400015,8.81119522 6.01078086,7.33034106 5.75431895,5.89383788 L5.69632165,5.60983589 L5.63832435,5.35383415 C5.5681051,5.04346042 5.64978871,4.71819369 5.85831409,4.47782807 L5.94131022,4.39282748 L6.13730106,4.21482625 C8.03603194,2.49039306 10.2639365,1.16786527 12.6869953,0.326799393 L13.1769724,0.163798283 L13.4339604,0.0827977232 C13.7299691,-0.0113358989 14.0529121,0.0374407138 14.3079196,0.214798647 L14.4099149,0.299799207 L14.6089056,0.480800477 C15.7861427,1.55777177 17.325209,2.15279983 18.9207043,2.147812 C20.3922815,2.15367699 21.8203519,1.64900145 22.9615157,0.71980212 L23.1795055,0.532800832 L23.4494929,0.275799064 L23.4494929,0.274799038 Z M24.8929527,2 L24.7258817,2.13041429 C23.0385617,3.38223722 21.0044711,4.05484868 18.9175219,4.05106097 C16.9225109,4.05479162 14.9735291,3.44021445 13.3291037,2.28885146 L13.0298563,2.07005726 L12.9949618,2.04203438 L12.8532686,2.09592457 C11.3469415,2.68202626 9.92994994,3.48329671 8.64477204,4.47571573 L8.22180754,4.81306837 L8.10972196,4.90791512 L8.12029609,4.98875044 C8.33227082,6.83860472 8.01653891,8.71152796 7.21092246,10.3831593 L7.04067924,10.7194342 L6.86832123,11.0319973 C5.8743774,12.761353 4.38824863,14.141954 2.60695403,14.9907713 L2.2728121,15.1416638 L2.2358027,15.1556753 L2.20196554,15.3636915 C2.12160228,15.883193 2.06450208,16.4091613 2.03277976,16.9372853 L2.00845931,17.4675648 L2,18.0010778 C2,18.7124284 2.04335385,19.4194678 2.13006159,20.116807 L2.20196554,20.6373863 L2.23686013,20.8443247 L2.61012629,21.0124621 C4.17236972,21.7578793 5.51152442,22.914151 6.48976799,24.3622769 L6.69490579,24.6791512 L6.86832123,24.9701583 C7.85812589,26.683587 8.30736394,28.6656963 8.15519064,30.6480296 L8.10972196,31.0931627 L8.22075015,31.1890872 C9.4746475,32.2216094 10.8659776,33.0674991 12.3531132,33.7014483 L12.8532686,33.906231 L12.9928469,33.9568878 L13.3312185,33.7100707 C14.7731058,32.701331 16.4529617,32.1030471 18.1974249,31.9769619 L18.5780929,31.9564837 L18.9175219,31.9510946 C20.9688997,31.9510946 22.924053,32.5891546 24.5514088,33.7445604 L24.8940101,34 L25.0293587,33.9514988 C26.5298135,33.3801943 27.9437436,32.5960981 29.229396,31.6223644 L29.6523605,31.2914786 L29.7401257,31.2181879 L29.6935995,30.8129337 C29.5263819,29.0279115 29.8485117,27.2306107 30.6241214,25.6211519 L30.7985943,25.274099 L30.9667226,24.9701583 C31.9460958,23.2659948 33.4038186,21.8999119 35.1519562,21.0480296 L35.4797537,20.8949815 L35.7758288,20.7699562 L35.8033215,20.6018188 C35.8815699,20.0887841 35.9365553,19.5714382 35.9682777,19.0497811 L35.9915407,18.5259683 L36,18.0010778 C36,17.2983496 35.9577035,16.6010104 35.8731107,15.9133715 L35.8033215,15.4003368 L35.7747714,15.2321994 L35.4786963,15.1060963 C33.8066222,14.3665146 32.3724143,13.1623602 31.3399888,11.6312563 L31.1380232,11.3186932 L30.9667226,11.0319973 C29.9480893,9.2689537 29.5024741,7.22274897 29.6935995,5.18598856 L29.7401257,4.78288988 L29.6523605,4.70959922 C28.397556,3.69602306 27.0089251,2.86767541 25.5273994,2.24897273 L25.0293587,2.049579 L24.8929527,2 Z M18.9997006,10.9998731 C22.8655134,10.9998731 25.9993738,14.1339015 25.9993738,17.9999215 C25.9988216,21.8658112 22.8647166,24.999338 18.9990341,24.9989698 C15.1333515,24.9986016 11.9998434,21.8644779 12.0000275,17.9985882 C12.0002115,14.1326984 15.134018,10.9988731 18.9997006,10.9988731 L18.9997006,10.9998731 Z M19,13 C16.2385763,13 14,15.2385763 14,18 C14,20.7614237 16.2385763,23 19,23 C21.7614237,23 24,20.7614237 24,18 C24,15.2385763 21.7614237,13 19,13 L19,13 Z" id="形状"></path>
            </g>
        </g>
    </g>
</svg>