<?xml version="1.0" encoding="UTF-8"?>
<svg width="24px" height="25px" viewBox="0 0 24 25" version="1.1" xmlns="http://www.w3.org/2000/svg" xmlns:xlink="http://www.w3.org/1999/xlink">
    <!-- Generator: Sketch 54.1 (76490) - https://sketchapp.com -->
    <title>我的</title>
    <desc>Created with Sketch.</desc>
    <g id="页面1" stroke="none" stroke-width="1" fill="none" fill-rule="evenodd">
        <g id="机票查询" transform="translate(-231.000000, -492.000000)" fill="#666666" fill-rule="nonzero">
            <g id="我的" transform="translate(231.000000, 492.000000)">
                <path d="M12,11.1111111 C14.5384615,11.1111111 16.6153846,9.02777778 16.6153846,6.48148148 C16.6153846,3.93518519 14.5384615,1.85185185 12,1.85185185 C9.46153846,1.85185185 7.38461538,3.93518519 7.38461538,6.48148148 C7.38461538,9.02777778 9.46153846,11.1111111 12,11.1111111 Z M7.98461538,11.5740741 C6.50769231,10.3703704 5.53846154,8.56481481 5.53846154,6.48148148 C5.53846154,2.91666667 8.44615385,0 12,0 C15.5538462,0 18.4615385,2.91666667 18.4615385,6.48148148 C18.4615385,8.51851852 17.4923077,10.3703704 16.0153846,11.5740741 C20.6307692,12.9166667 24,17.1759259 24,22.2222222 C24,23.75 22.7538462,25 21.2307692,25 L2.76923077,25 C1.24615385,25 0,23.75 0,22.2222222 C0,17.1759259 3.36923077,12.9166667 7.98461538,11.5740741 Z M21.2307692,23.1481481 C21.7384615,23.1481481 22.1538462,22.7314815 22.1538462,22.2222222 C22.1538462,17.1296296 18,12.962963 12.9230769,12.962963 L11.0769231,12.962963 C6,12.962963 1.84615385,17.1296296 1.84615385,22.2222222 C1.84615385,22.7314815 2.26153846,23.1481481 2.76923077,23.1481481 L21.2307692,23.1481481 Z" id="形状"></path>
            </g>
        </g>
    </g>
</svg>