<?xml version="1.0" encoding="UTF-8"?>
<svg width="20px" height="26px" viewBox="0 0 20 26" version="1.1" xmlns="http://www.w3.org/2000/svg" xmlns:xlink="http://www.w3.org/1999/xlink">
    <!-- Generator: Sketch 54.1 (76490) - https://sketchapp.com -->
    <title>行李箱复制</title>
    <desc>Created with Sketch.</desc>
    <g id="页面1" stroke="none" stroke-width="1" fill="none" fill-rule="evenodd">
        <g id="机票查询" transform="translate(-169.000000, -562.000000)" fill="#666666" fill-rule="nonzero">
            <g id="行李箱复制" transform="translate(169.000000, 562.000000)">
                <path d="M15.4545455,3.5862069 L15.4545455,2.68965517 C15.4545455,1.21034483 14.2272727,0 12.7272727,0 L7.27272727,0 C5.77272727,0 4.54545455,1.21034483 4.54545455,2.68965517 L4.54545455,3.5862069 C2.04545455,3.5862069 0,5.60344828 0,8.06896552 L0,19.7241379 C0,22.1896552 2.04545455,24.2068966 4.54545455,24.2068966 L5.45454545,24.2068966 L5.45454545,25.1034483 C5.45454545,25.5965517 5.86363636,26 6.36363636,26 C6.86363636,26 7.27272727,25.5965517 7.27272727,25.1034483 L7.27272727,24.2068966 L12.7272727,24.2068966 L12.7272727,25.1034483 C12.7272727,25.5965517 13.1363636,26 13.6363636,26 C14.1363636,26 14.5454545,25.5965517 14.5454545,25.1034483 L14.5454545,24.2068966 L15.4545455,24.2068966 C17.9545455,24.2068966 20,22.1896552 20,19.7241379 L20,8.06896552 C20,5.60344828 17.9545455,3.5862069 15.4545455,3.5862069 Z M6.36363636,2.68965517 C6.36363636,2.19655172 6.77272727,1.79310345 7.27272727,1.79310345 L12.7272727,1.79310345 C13.2272727,1.79310345 13.6363636,2.19655172 13.6363636,2.68965517 L13.6363636,3.5862069 L6.36363636,3.5862069 L6.36363636,2.68965517 Z M18.1818182,19.7241379 C18.1818182,21.2034483 16.9545455,22.4137931 15.4545455,22.4137931 L4.54545455,22.4137931 C3.04545455,22.4137931 1.81818182,21.2034483 1.81818182,19.7241379 L1.81818182,8.06896552 C1.81818182,6.58965517 3.04545455,5.37931034 4.54545455,5.37931034 L15.4545455,5.37931034 C16.9545455,5.37931034 18.1818182,6.58965517 18.1818182,8.06896552 L18.1818182,19.7241379 Z" id="形状"></path>
                <path d="M6.88888889,8 C6.4,8 6,8.38076923 6,8.84615385 L6,18.1538462 C6,18.6192308 6.4,19 6.88888889,19 C7.37777778,19 7.77777778,18.6192308 7.77777778,18.1538462 L7.77777778,8.84615385 C7.77777778,8.38076923 7.37777778,8 6.88888889,8 Z M13.1111111,8 C12.6222222,8 12.2222222,8.38076923 12.2222222,8.84615385 L12.2222222,18.1538462 C12.2222222,18.6192308 12.6222222,19 13.1111111,19 C13.6,19 14,18.6192308 14,18.1538462 L14,8.84615385 C14,8.38076923 13.6,8 13.1111111,8 Z" id="形状"></path>
            </g>
        </g>
    </g>
</svg>