<?xml version="1.0" encoding="UTF-8"?>
<svg width="12px" height="14px" viewBox="0 0 12 14" version="1.1" xmlns="http://www.w3.org/2000/svg" xmlns:xlink="http://www.w3.org/1999/xlink">
    <!-- Generator: Sketch 54.1 (76490) - https://sketchapp.com -->
    <title>验证码复制</title>
    <desc>Created with Sketch.</desc>
    <g id="页面1" stroke="none" stroke-width="1" fill="none" fill-rule="evenodd">
        <g id="验证码复制" fill="#2596D9" fill-rule="nonzero">
            <path d="M5.99898851,13.9996616 C3.90182912,13.9996616 0,10.8622103 0,7.89465278 L0,2.23045412 C0,2.09304996 0.114635721,1.98204365 0.256581717,1.97916696 L0.596442917,1.97341359 C0.609423725,1.97341359 1.94172684,1.9465081 3.31516394,1.40061424 C4.72467758,0.842198337 5.63316568,0.198327884 5.64277486,0.191728423 L5.84288162,0.0492477606 C5.88837147,0.0172208068 5.94258151,2.80354317e-05 5.9981456,5.62322697e-06 C6.05332559,-0.000354200442 6.10724466,0.0165626733 6.15239808,0.0484016701 L6.35638223,0.192066851 C6.36565423,0.198666312 7.27498524,0.841859909 8.68281307,1.40095269 C10.0575988,1.94684654 11.3899019,1.97375203 11.4035571,1.97375202 L11.740721,1.9795054 C11.8828355,1.98238209 11.9971341,2.0933884 11.9971341,2.23079255 L12,7.89499121 C12,10.8622103 8.09749655,14 5.99848277,14 L5.99898851,13.9996616 Z M11.0744851,2.89006176 C10.5587929,2.85114186 9.47379955,2.71746047 8.34666067,2.26954323 C7.19490882,1.81265749 6.34812171,1.29874565 5.99898851,1.07182572 C5.6508668,1.29789956 4.80357395,1.81198062 3.65215925,2.26954323 C2.52704335,2.71644517 1.44508443,2.85012656 0.922311822,2.89006176 L0.922311822,7.89465278 C0.922311822,10.2218934 4.32176674,13.0665994 5.99898851,13.0665994 C6.64904049,13.0665994 7.91576522,12.5371196 9.16091147,11.37443 C10.3612149,10.2545522 11.0776882,8.95344318 11.0776882,7.89499121 L11.0744851,2.89006176 Z M5.51785563,8.84649807 C5.43228784,8.93455312 5.31486944,8.98411442 5.1923239,8.98390223 C5.06946904,8.98385406 4.95174837,8.93443112 4.86544351,8.84666729 L3.48054284,7.44758162 C3.30057982,7.26468346 3.30057982,6.97053372 3.48054284,6.78763556 C3.56671036,6.69994667 3.6842965,6.6505817 3.80700177,6.6505817 C3.92970704,6.6505817 4.04729318,6.69994667 4.13346071,6.78763556 L5.1923239,7.85657897 L7.86569638,5.15367677 C7.95171504,5.06583801 8.06927953,5.01636298 8.19198673,5.01636298 C8.31469394,5.01636298 8.43225843,5.06583801 8.51827709,5.15367677 C8.69943454,5.33608105 8.69943454,5.63121857 8.51827709,5.81362285 L5.51785563,8.84649807 Z" id="形状"></path>
        </g>
    </g>
</svg>