<?xml version="1.0" encoding="UTF-8"?>
<svg width="50px" height="50px" viewBox="0 0 50 50" version="1.1" xmlns="http://www.w3.org/2000/svg" xmlns:xlink="http://www.w3.org/1999/xlink">
    <!-- Generator: Sketch 53.2 (72643) - https://sketchapp.com -->
    <title>Group 16</title>
    <desc>Created with Sketch.</desc>
    <defs>
        <polygon id="path-1" points="9.64027815e-17 0 24 0 24 29.5384615 9.64027815e-17 29.5384615"></polygon>
    </defs>
    <g id="页面1" stroke="none" stroke-width="1" fill="none" fill-rule="evenodd">
        <g id="Group-16">
            <rect id="Rectangle" fill="#2596D9" x="0" y="0" width="50" height="50"></rect>
            <g id="shenpi" transform="translate(13.000000, 10.000000)">
                <mask id="mask-2" fill="white">
                    <use xlink:href="#path-1"></use>
                </mask>
                <g id="Clip-2"></g>
                <path d="M12.1386199,0 C8.38165288,0 5.32515459,2.93938352 5.32515459,6.5524603 C5.32515459,8.87242643 6.6096225,11.0108717 8.65300562,12.1831734 L7.98908716,17.3452036 L2.43311122,17.3452036 C1.27570093,17.3452036 0.334034503,18.2532998 0.334034503,19.369112 L0.334034503,23.5998025 C0.334034503,24.7159426 1.27570093,25.6242028 2.43311122,25.6242028 L21.5663806,25.6242028 C22.7241297,25.6242028 23.6661349,24.7161066 23.6661349,23.5998025 L23.6661349,19.369112 C23.6661349,18.2531769 22.7241297,17.3452036 21.5663806,17.3452036 L16.2739645,17.3452036 L15.6115284,12.1905523 C17.662662,11.0199723 18.9519157,8.87886247 18.9519157,6.55229633 C18.9520852,2.93938352 15.8954175,0 12.1386199,0 Z M22.8349663,27.2831837 L1.16503374,27.2831837 C0.521613914,27.2831837 0,27.7880643 0,28.4108431 C0,29.033581 0.521613914,29.5384615 1.16503374,29.5384615 L22.8349663,29.5384615 C23.4783437,29.5384615 24,29.033581 24,28.4108431 C24,27.7880643 23.4783437,27.2831837 22.8349663,27.2831837 Z" id="Fill-1" fill="#FFFFFF" mask="url(#mask-2)"></path>
            </g>
        </g>
    </g>
</svg>