<?xml version="1.0" standalone="no"?><!DOCTYPE svg PUBLIC "-//W3C//DTD SVG 1.1//EN" "http://www.w3.org/Graphics/SVG/1.1/DTD/svg11.dtd"><svg t="1559721130797" class="icon" style="" viewBox="0 0 1025 1024" version="1.1" xmlns="http://www.w3.org/2000/svg" p-id="11670" xmlns:xlink="http://www.w3.org/1999/xlink" width="64.0625" height="64"><defs><style type="text/css"></style></defs><path d="M992.090881 443.129l-388.66-404.16C579.320881 13.934 546.998881 0.023 512.424881 0.023s-66.896 13.776-91.006 38.946L32.889881 443.129c-40.138 41.729-34.972 77.759-28.348 92.86 4.769 10.73 20.665 40.005 66.63 40.005l56.961 0 0 310.902c0 70.604 50.736 137.104 122.797 137.104l165.454 0L416.383881 694.949c0-35.236-5.298-54.975 30.733-54.975l130.745 0c36.03 0 30.732 19.605 30.732 54.975L608.593881 1024l165.321 0c72.063 0 122.797-66.499 122.797-137.104L896.711881 575.994l56.961 0c45.966 0 61.862-29.407 66.63-40.005C1026.927881 520.888 1032.094881 484.856 992.090881 443.129L992.090881 443.129zM953.676881 512.013 832.601881 512.013l0 374.884c0 35.237-22.784 72.99-58.814 72.99L672.445881 959.887 672.445881 694.949c0-70.604-22.651-118.956-94.717-118.956L446.985881 575.993c-72.063 0-94.717 48.352-94.717 118.956l0 265.068L250.929881 960.017c-36.031 0-58.816-37.754-58.816-72.989L192.113881 512.145 71.038881 512.145c-1.191 0-2.118-4.37-3.047-4.503 2.253-3.843 6.094-13.646 12.452-20.269l388.66-403.895c11.525-12.187 27.95-19.473 43.849-19.34 15.895-0.132 31.262 7.285 42.919 19.34L944.398881 487.24c6.358 6.623 10.199 16.426 12.32 20.269-0.796 0.132-1.856 4.503-3.047 4.503L953.676881 512.013z" p-id="11671"></path><path d="M512.424881 36.114 33.539881 512.012 66.537881 537.089 164.032881 544.589 167.032881 922.57 240.528881 988.566 368.022881 994.566 392.021881 628.585 452.018881 619.585 534.514881 613.585 593.011881 622.585 617.010881 631.584 644.008881 739.579 644.008881 967.567 656.008881 988.566 822.499881 985.566 873.496881 729.08 856.997881 591.087 859.997881 549.089 967.992881 543.089 990.490881 528.09 990.490881 489.092Z" p-id="11672"></path></svg>