<?xml version="1.0" standalone="no"?><!DOCTYPE svg PUBLIC "-//W3C//DTD SVG 1.1//EN" "http://www.w3.org/Graphics/SVG/1.1/DTD/svg11.dtd"><svg t="1559721085308" class="icon" style="" viewBox="0 0 1024 1024" version="1.1" xmlns="http://www.w3.org/2000/svg" p-id="10878" xmlns:xlink="http://www.w3.org/1999/xlink" width="64" height="64"><defs><style type="text/css"></style></defs><path d="M848.599451 1023.945455h-229.526886a32.727218 32.727218 0 0 1-32.727217-32.727218v-231.926881a21.818145 21.818145 0 0 0-21.490873-21.818145H459.309198a21.818145 21.818145 0 0 0-21.818145 21.818145v231.981426a32.727218 32.727218 0 0 1-32.727217 32.727218H180.855123A109.963451 109.963451 0 0 1 71.273489 914.036549v-365.126657A70.908971 70.908971 0 0 1 23.219025 425.528282L440.600139 29.147133a5.127264 5.127264 0 0 0 0.545454-0.545454 109.090725 109.090725 0 0 1 147.272479 0l1.418179 1.418179L1000.835558 425.528282a71.290789 71.290789 0 0 1 4.745446 100.308922 69.927155 69.927155 0 0 1-47.181738 23.127234v365.453929a109.963451 109.963451 0 0 1-109.799815 109.527088z m-196.799668-65.454435h196.799668a44.399925 44.399925 0 0 0 44.34538-44.290835v-409.090219a32.727218 32.727218 0 0 1 54.545362-24.272686 8.454531 8.454531 0 0 0 5.890899 2.563632 5.072719 5.072719 0 0 0 3.436358-1.690906 5.945445 5.945445 0 0 0-0.327272-8.290895l-0.81818-0.70909L543.799965 76.437962a43.963562 43.963562 0 0 0-58.418083 0.327272l-417.272024 396.326604-0.436363 0.436363a5.454536 5.454536 0 0 0-1.909087 3.981812 6.163626 6.163626 0 0 0 1.52727 4.199993 5.890899 5.890899 0 0 0 7.909077 0.599999l6.054536-5.781809A32.727218 32.727218 0 0 1 136.727924 500.255429v413.835665a44.399925 44.399925 0 0 0 44.290835 44.399926h191.290586v-199.199664a87.27258 87.27258 0 0 1 86.836217-87.27258h105.708913a87.27258 87.27258 0 0 1 86.945308 86.945307z" p-id="10879"></path></svg>