<?xml version="1.0" standalone="no"?><!DOCTYPE svg PUBLIC "-//W3C//DTD SVG 1.1//EN" "http://www.w3.org/Graphics/SVG/1.1/DTD/svg11.dtd"><svg t="1559794129655" class="icon" style="" viewBox="0 0 1024 1024" version="1.1" xmlns="http://www.w3.org/2000/svg" p-id="27226" xmlns:xlink="http://www.w3.org/1999/xlink" width="64" height="64"><defs><style type="text/css"></style></defs><path d="M367.371636 384.011636h53.201455v53.189819h-53.201455zM458.810182 573.509818h53.201454v53.189818h-53.201454zM367.371636 529.466182h53.213091V476.276364h-53.213091zM458.810182 384.011636h53.201454v53.189819h-53.201454z" fill="" p-id="27227"></path><path d="M512 0C229.224727 0 0 229.224727 0 512s229.224727 512 512 512c282.763636 0 512-229.224727 512-512S794.763636 0 512 0z m265.972364 751.36H246.027636a13.288727 13.288727 0 0 1 0-26.577455h39.912728v-425.541818a26.600727 26.600727 0 0 1 26.600727-26.600727h252.660364a26.589091 26.589091 0 0 1 26.58909 26.600727v146.280728h0.232728v279.272727h26.600727V475.496727a29.998545 29.998545 0 0 1 29.998545-29.998545h62.859637a26.589091 26.589091 0 0 1 26.600727 26.600727v252.695273l39.901091-0.011637a13.288727 13.288727 0 1 1-0.011636 26.577455z" fill="" p-id="27228"></path><path d="M367.371636 573.509818h53.201455v53.189818h-53.201455zM458.810182 529.466182h53.201454V476.276364h-53.201454z" fill="" p-id="27229"></path></svg>