<?xml version="1.0" standalone="no"?><!DOCTYPE svg PUBLIC "-//W3C//DTD SVG 1.1//EN" "http://www.w3.org/Graphics/SVG/1.1/DTD/svg11.dtd"><svg t="1559721195823" class="icon" style="" viewBox="0 0 1024 1024" version="1.1" xmlns="http://www.w3.org/2000/svg" p-id="12663" xmlns:xlink="http://www.w3.org/1999/xlink" width="64" height="64"><defs><style type="text/css"></style></defs><path d="M590.312473 576.105153h-156.821364A341.563447 341.563447 0 0 0 93.091025 918.831963 104.470019 104.470019 0 0 0 197.561044 1024h628.216149A104.935364 104.935364 0 0 0 930.712557 918.831963a341.563447 341.563447 0 0 0-340.400084-342.72681zM826.242538 977.46547h-628.216149A57.702817 57.702817 0 0 1 139.625555 918.831963a295.26159 295.26159 0 0 1 293.865554-296.19228h157.054037A295.26159 295.26159 0 0 1 884.178027 918.831963 58.400835 58.400835 0 0 1 826.242538 977.46547zM511.901791 526.778552A263.385437 263.385437 0 1 0 248.516354 263.625788 263.61811 263.61811 0 0 0 511.901791 526.778552zM511.901791 46.77488a216.850908 216.850908 0 1 1-216.850907 216.850908A217.08358 217.08358 0 0 1 511.901791 46.77488z" p-id="12664"></path></svg>