<?xml version="1.0" standalone="no"?><!DOCTYPE svg PUBLIC "-//W3C//DTD SVG 1.1//EN" "http://www.w3.org/Graphics/SVG/1.1/DTD/svg11.dtd"><svg t="1559794106221" class="icon" style="" viewBox="0 0 1024 1024" version="1.1" xmlns="http://www.w3.org/2000/svg" p-id="26343" xmlns:xlink="http://www.w3.org/1999/xlink" width="64" height="64"><defs><style type="text/css"></style></defs><path d="M512 0C229.230592 0 0 229.229568 0 512c0 282.770432 229.230592 512 512 512s512-229.229568 512-512C1024 229.229568 794.770432 0 512 0zM808.772608 313.607168 671.322112 451.042304l59.752448 297.003008c0.87552 4.307968-0.474112 8.777728-3.592192 11.8784l-40.863744 40.865792c-2.960384 2.962432-7.201792 4.379648-11.32032 3.680256-4.154368-0.648192-7.747584-3.241984-9.65632-6.976512L553.090048 578.3296l-93.714432 93.698048 8.552448 97.42848c0.331776 3.87584-1.051648 7.694336-3.80416 10.443776l-44.506112 44.510208c-2.471936 2.490368-5.835776 3.86048-9.289728 3.86048-0.858112 0-1.716224-0.09216-2.557952-0.247808-4.310016-0.862208-7.904256-3.806208-9.583616-7.85408l-58.703872-141.060096-135.560192-53.357568c-4.117504-1.613824-7.149568-5.224448-8.057856-9.551872-0.912384-4.328448 0.438272-8.829952 3.571712-11.968512l40.865792-40.863744c2.715648-2.717696 6.479872-4.100096 10.284032-3.81952l102.037504 7.709696 96.237568-96.22016L223.844352 361.061376c-3.816448-1.85856-6.498304-5.451776-7.197696-9.639936-0.68608-4.18816 0.681984-8.46336 3.680256-11.461632l39.950336-39.950336c3.065856-3.085312 7.554048-4.39808 11.742208-3.629056l299.505664 56.828928 138.416128-138.415104c25.4464-25.427968 69.745664-25.41056 95.169536 0l3.625984 3.627008C834.970624 244.672512 834.970624 287.356928 808.772608 313.607168z" p-id="26344"></path><path d="M786.55488 233.368576c-15.52384-15.471616-42.496-15.491072-58.017792 0L585.194496 376.710144c-3.067904 3.101696-7.535616 4.452352-11.742208 3.625984l-299.505664-56.828928-22.024192 22.029312 225.011712 109.92128c3.81952 1.857536 6.504448 5.451776 7.201792 9.638912 0.684032 4.18816-0.681984 8.46336-3.682304 11.460608L366.942208 590.071808c-2.679808 2.715648-6.486016 4.154368-10.288128 3.81952l-102.03648-7.711744-22.414336 22.414336 122.084352 48.052224c3.311616 1.309696 5.957632 3.888128 7.325696 7.180288l53.289984 128.08192 26.300416-26.288128-8.548352-97.412096c-0.333824-3.873792 1.047552-7.694336 3.800064-10.445824l110.782464-110.778368c2.962432-2.962432 7.201792-4.330496 11.32032-3.682304 4.15232 0.65024 7.744512 3.241984 9.65632 6.976512l112.553984 219.1616 23.126016-23.130112-59.754496-297.001984c-0.874496-4.31104 0.47616-8.779776 3.59424-11.881472l142.42816-142.408704c15.97952-15.982592 15.97952-42.005504 0.018432-58.021888L786.55488 233.368576z" p-id="26345"></path></svg>