<?xml version="1.0" standalone="no"?><!DOCTYPE svg PUBLIC "-//W3C//DTD SVG 1.1//EN" "http://www.w3.org/Graphics/SVG/1.1/DTD/svg11.dtd"><svg t="1559794061699" class="icon" style="" viewBox="0 0 1024 1024" version="1.1" xmlns="http://www.w3.org/2000/svg" p-id="25593" xmlns:xlink="http://www.w3.org/1999/xlink" width="64" height="64"><defs><style type="text/css"></style></defs><path d="M512 981.333333C252.8 981.333333 42.666667 771.2 42.666667 512S252.8 42.666667 512 42.666667s469.333333 210.133333 469.333333 469.333333-210.133333 469.333333-469.333333 469.333333z m192.170667-142.506666v-32.426667c-8.448 0-53.248-5.845333-134.4-17.536a42.666667 42.666667 0 0 1-36.608-42.24v-118.954667a42.666667 42.666667 0 0 1 42.666666-42.666666h17.194667a25.6 25.6 0 0 0 25.6-25.6l0.085333-67.84v-0.042667a25.6 25.6 0 0 0-25.6-25.6h-162.005333a25.6 25.6 0 0 0-25.6 25.6v67.84a25.6 25.6 0 0 0 25.6 25.6h16.981333c23.552 0 42.581333 19.072 42.581334 42.624v118.314667a42.666667 42.666667 0 0 1-37.290667 42.325333c-67.968 8.618667-112.426667 14.72-133.376 18.218667v32.384h384.170667z m-76.714667-99.328a277.376 277.376 0 0 0-41.472-519.594667l-6.741333-26.922667a17.066667 17.066667 0 0 0-16.554667-12.928h-101.333333a17.066667 17.066667 0 0 0-16.597334 12.928l-6.698666 26.88a277.461333 277.461333 0 0 0-41.514667 519.637334l28.672-57.301334a213.376 213.376 0 1 1 173.568 0l28.672 57.301334z" p-id="25594"></path></svg>