<?xml version="1.0" standalone="no"?><!DOCTYPE svg PUBLIC "-//W3C//DTD SVG 1.1//EN" "http://www.w3.org/Graphics/SVG/1.1/DTD/svg11.dtd"><svg t="1559737553938" class="icon" style="" viewBox="0 0 1024 1024" version="1.1" xmlns="http://www.w3.org/2000/svg" p-id="19536" xmlns:xlink="http://www.w3.org/1999/xlink" width="64" height="64"><defs><style type="text/css"></style></defs><path d="M881.660224 270.809917 150.64656 270.809917C95.705487 270.809917 50.965145 316.382149 50.965145 372.355174L50.965145 846.289455C50.965145 892.030942 80.811422 930.807539 121.722336 943.476365 134.116059 985.147238 172.21928 1015.545651 217.109145 1015.545651 260.429027 1015.545651 297.377605 987.246016 311.083799 947.843174L721.214677 947.843174C734.929182 987.246016 771.869453 1015.545651 815.197641 1015.545651 860.095812 1015.545651 898.149193 985.147238 910.576141 943.476365 951.495364 930.807539 981.333333 892.030942 981.333333 846.289455L981.333333 372.355174C981.333333 316.382149 936.634526 270.809917 881.660224 270.809917L881.660224 270.809917ZM914.87075 846.289455C914.87075 864.992265 899.98499 880.132233 881.660224 880.132233L848.416474 880.132233 848.416474 914.000397C848.416474 932.669355 833.555635 947.843174 815.197641 947.843174 796.839646 947.843174 781.953886 932.669355 781.953886 914.000397L781.953886 880.132233 250.352897 880.132233 250.352897 914.000397C250.352897 932.669355 235.467139 947.843174 217.109145 947.843174 198.751151 947.843174 183.890313 932.669355 183.890313 914.000397L183.890313 880.132233 150.64656 880.132233C132.288566 880.132233 117.427729 864.992265 117.427729 846.289455L117.427729 372.355174C117.427729 353.686215 132.288566 338.512397 150.64656 338.512397L881.660224 338.512397C899.98499 338.512397 914.87075 353.686215 914.87075 372.355174L914.87075 846.289455 914.87075 846.289455ZM316.782254 203.098975C335.140248 203.098975 350.034313 187.959008 350.034313 169.256198L350.034313 101.545256C350.034313 82.842446 364.886844 67.710942 383.244838 67.710942L649.061948 67.710942C667.411635 67.710942 682.305698 82.842446 682.305698 101.545256L682.305698 169.256198C682.305698 187.959008 697.166537 203.098975 715.524531 203.098975 733.874219 203.098975 748.735057 187.959008 748.735057 169.256198L748.735057 101.545256C748.735057 45.572231 704.03625 0 649.061948 0L383.244838 0C328.303764 0 283.563422 45.572231 283.563422 101.545256L283.563422 169.256198C283.563422 187.959008 298.457487 203.098975 316.782254 203.098975M316.782254 440.066116C298.424259 440.066116 283.563422 455.231471 283.563422 473.900429L283.563422 744.744196C283.563422 763.413158 298.424259 778.578513 316.782254 778.578513 335.140248 778.578513 350.034313 763.413158 350.034313 744.744196L350.034313 473.900429C350.034313 455.231471 335.140248 440.066116 316.782254 440.066116M715.524531 440.066116C697.166537 440.066116 682.272474 455.231471 682.272474 473.900429L682.272474 744.744196C682.272474 763.413158 697.166537 778.578513 715.524531 778.578513 733.874219 778.578513 748.735057 763.413158 748.735057 744.744196L748.735057 473.900429C748.735057 455.231471 733.874219 440.066116 715.524531 440.066116" p-id="19537"></path></svg>