<?xml version="1.0" standalone="no"?><!DOCTYPE svg PUBLIC "-//W3C//DTD SVG 1.1//EN" "http://www.w3.org/Graphics/SVG/1.1/DTD/svg11.dtd"><svg t="1559737559175" class="icon" style="" viewBox="0 0 1024 1024" version="1.1" xmlns="http://www.w3.org/2000/svg" p-id="19646" xmlns:xlink="http://www.w3.org/1999/xlink" width="64" height="64"><defs><style type="text/css"></style></defs><path d="M882.005333 273.066667H141.994667C86.698667 273.066667 40.96 318.805333 40.96 375.466667v477.866666c0 43.690667 27.306667 81.237333 65.536 95.573334 4.096 1.365333 6.826667 4.096 8.192 8.192 14.336 38.912 51.2 66.218667 94.208 66.218666 40.96 0 75.776-24.576 92.16-60.074666 2.048-4.778667 6.826667-8.192 12.288-8.192H709.973333c5.461333 0 10.24 3.413333 12.288 8.192 15.701333 35.498667 51.2 60.074667 92.16 60.074666 43.008 0 79.872-27.989333 94.208-66.218666 1.365333-4.096 4.778667-6.826667 8.192-8.192 38.229333-14.336 65.536-51.882667 65.536-95.573334V375.466667c0.682667-56.661333-45.056-102.4-100.352-102.4zM341.333333 750.933333c0 19.114667-12.288 34.133333-30.72 34.133334s-30.72-15.018667-30.72-34.133334V477.866667c0-19.114667 12.288-34.133333 30.72-34.133334s30.72 15.018667 30.72 34.133334v273.066666z m402.773334 0c0 19.114667-12.288 34.133333-30.72 34.133334s-30.72-15.018667-30.72-34.133334V477.866667c0-19.114667 12.288-34.133333 30.72-34.133334s30.72 15.018667 30.72 34.133334v273.066666zM310.613333 204.8c18.432 0 30.72-15.018667 30.72-34.133333V102.4c0-19.114667 17.749333-34.133333 36.181334-34.133333h268.970666c18.432 0 36.181333 15.018667 36.181334 34.133333v68.266667c0 19.114667 12.288 34.133333 30.72 34.133333s30.72-15.018667 30.72-34.133333V102.4c0-56.661333-42.325333-102.4-97.621334-102.4H377.514667C322.218667 0 279.893333 45.738667 279.893333 102.4v68.266667c0 19.114667 12.288 34.133333 30.72 34.133333z" p-id="19647"></path></svg>